<?xml version="1.0" encoding="utf-8"?>
<!-- Generator: Adobe Illustrator 22.0.1, SVG Export Plug-In . SVG Version: 6.00 Build 0)  -->
<svg version="1.0" id="レイヤー_2" xmlns="http://www.w3.org/2000/svg" xmlns:xlink="http://www.w3.org/1999/xlink" x="0px"
	y="0px" viewBox="0 0 863.2 667.5" enable-background="new 0 0 863.2 667.5" xml:space="preserve">
	<g>
		<g>

			<rect x="741.6" y="363.5" transform="matrix(0.5605 -0.8281 0.8281 0.5605 13.3097 811.5945)" fill="none"
				width="59.5" height="59.5" />
			<g>
				<path fill="#00fa00" d="M791.4,400.8c-5.5-6.1-20.6-7.3-20.6-7.3s-6.7,11.4-5.9,20.1c0.7,8.1,17.2,16.2,16.9,2.6
				C794,423.7,796.8,406.8,791.4,400.8z" />
				<path fill="#00fa00" d="M777.9,372.9c1.4,8.1-7.1,20.6-7.1,20.6s-13.1-1.8-19.4-7.8c-5.9-5.6-2.1-23.5,8.5-14.8
				C761.5,356.6,776.5,364.9,777.9,372.9z" />
			</g>
			<g>
				<path fill="#00b505" d="M764.4,413.7c6.1-5.5,7.3-20.6,7.3-20.6s-11.4-6.7-20.1-5.9c-8.1,0.7-16.2,17.2-2.6,16.9
				C741.4,416.3,758.3,419.1,764.4,413.7z" />
				<path fill="#00b505" d="M792.2,400.2c-8.1,1.4-20.6-7.1-20.6-7.1s1.8-13.1,7.8-19.4c5.6-5.9,23.5-2.1,14.8,8.5
				C808.6,383.9,800.2,398.9,792.2,400.2z" />
			</g>
		</g>
		<g>
			<g>
				<path fill="#00fa00" d="M90.3,101.8c10.6,19.2,37.5,28.3,37.5,28.3s25.9-19.4,27.3-37.4c2.3-29.3-24.4-40-36-17.6
				C98.7,56.2,78,79.5,90.3,101.8z" />
				<path fill="#00fa00" d="M100.3,173c4.9-21.4,28.3-37.5,28.3-37.5s30.2,11.5,36.6,28.4c10.3,27.5-12.4,45.2-29.8,26.9
				C121,214.5,94.7,197.9,100.3,173z" />
			</g>
			<g>
				<path fill="#00b505" d="M158.4,96c-19.2,10.6-28.3,37.5-28.3,37.5s19.4,25.9,37.4,27.3c29.3,2.3,40-24.4,17.6-36
				C203.9,104.4,180.7,83.7,158.4,96z" />
				<path fill="#00b505" d="M87.1,106c21.4,4.9,37.5,28.3,37.5,28.3s-11.5,30.2-28.4,36.6c-27.5,10.3-45.2-12.4-26.9-29.8
				C45.6,126.6,62.3,100.3,87.1,106z" />
			</g>
		</g>
		<g>
			<g>
				<path fill="#00fa00" d="M414.9,297.5c10.6,19.2,37.5,28.3,37.5,28.3s25.9-19.4,27.3-37.4c2.3-29.3-24.4-40-36-17.6
				C423.3,251.9,402.6,275.2,414.9,297.5z" />
				<path fill="#00fa00" d="M424.9,368.7c4.9-21.4,28.3-37.5,28.3-37.5s30.2,11.5,36.6,28.4c10.3,27.5-12.4,45.2-29.8,26.9
				C445.5,410.2,419.2,393.5,424.9,368.7z" />
			</g>
			<g>
				<path fill="#00b505" d="M482.9,291.6c-19.2,10.6-28.3,37.5-28.3,37.5s19.4,25.9,37.4,27.3c29.3,2.3,40-24.4,17.6-36
				C528.5,300,505.3,279.3,482.9,291.6z" />
				<path fill="#00b505" d="M411.7,301.7c21.4,4.9,37.5,28.3,37.5,28.3s-11.5,30.2-28.4,36.6c-27.5,10.3-45.2-12.4-26.9-29.8
				C370.2,322.3,386.9,296,411.7,301.7z" />
			</g>
		</g>
		<g>
			<g>
				<path fill="#00fa00" d="M534.8,153.2c3.3,14.9,19.5,26.1,19.5,26.1s21-7.9,25.5-19.6c7.2-19-8.4-31.4-20.6-18.8
				C549.3,124.5,531,135.9,534.8,153.2z" />
				<path fill="#00fa00" d="M527.6,202.5c7.4-13.3,26.1-19.5,26.1-19.5s17.9,13.6,18.8,26c1.5,20.3-17.1,27.7-25.1,12.1
				C533.3,234.2,519,218,527.6,202.5z" />
			</g>
			<g>
				<path fill="#00b505" d="M581.3,162.6c-14.9,3.3-26.1,19.5-26.1,19.5s7.9,21,19.6,25.5c19,7.2,31.4-8.4,18.8-20.6
				C610,177,598.5,158.7,581.3,162.6z" />
				<path fill="#00b505" d="M531.9,155.3c13.3,7.4,19.5,26.1,19.5,26.1s-13.6,17.9-26,18.8c-20.3,1.5-27.7-17.1-12.1-25.1
				C500.3,161,516.5,146.7,531.9,155.3z" />
			</g>
		</g>
		<g>
			<g>
				<path fill="#00fa00" d="M267.1,219.1c-3.3,17.6,9.1,37.2,9.1,37.2s26.4,1.1,36.6-9.5c16.6-17.3,5.3-37.8-13.6-29.7
				C296,194.7,270.9,198.7,267.1,219.1z" />
				<path fill="#00fa00" d="M236.7,269.2c14.1-11,37.2-9.1,37.2-9.1s13.1,22.9,8.4,36.8c-7.7,22.7-31.2,22.1-32.7,1.6
				C228.2,306.1,220.2,282,236.7,269.2z" />
			</g>
			<g>
				<path fill="#00b505" d="M313.1,250.6c-17.6-3.3-37.2,9.1-37.2,9.1s-1.1,26.4,9.5,36.6c17.3,16.6,37.8,5.3,29.7-13.6
				C337.5,279.5,333.5,254.4,313.1,250.6z" />
				<path fill="#00b505" d="M263,220.2c11,14.1,9.1,37.2,9.1,37.2s-22.9,13.1-36.8,8.4c-22.7-7.7-22.1-31.2-1.6-32.7
				C226.1,211.7,250.2,203.7,263,220.2z" />
			</g>
		</g>
		<g>
			<g>
				<path fill="#00fa00" d="M734.7,123.2c13.9,2.7,29.5-6.8,29.5-6.8s1.1-20.8-7.1-29c-13.5-13.3-29.8-4.6-23.6,10.5
				C715.7,100.2,718.6,120,734.7,123.2z" />
				<path fill="#00fa00" d="M774,147.8c-8.5-11.3-6.8-29.5-6.8-29.5s18.2-10.1,29.2-6.3c17.8,6.3,17.1,24.8,0.9,25.8
				C803,154.8,783.9,160.9,774,147.8z" />
			</g>
			<g>
				<path fill="#00b505" d="M760,87.2c-2.7,13.9,6.8,29.5,6.8,29.5s20.8,1.1,29-7.1c13.3-13.5,4.6-29.8-10.5-23.6
				C783.1,68.2,763.2,71.1,760,87.2z" />
				<path fill="#00b505" d="M735.4,126.5c11.3-8.5,29.5-6.8,29.5-6.8s10.1,18.2,6.3,29.2c-6.3,17.8-24.8,17.1-25.8,0.9
				C728.4,155.5,722.3,136.4,735.4,126.5z" />
			</g>
		</g>
		<g>
			<g>
				<path fill="#00fa00" d="M668.3,231.4c12.2,8.3,31.2,5.5,31.2,5.5s9.6-19.6,4.9-30.8c-7.6-18.3-26.9-16.5-27,0.5
				C659.3,201.5,654.1,221.8,668.3,231.4z" />
				<path fill="#00fa00" d="M696.1,271.1c-3.6-14.3,5.5-31.2,5.5-31.2s21.7-2.3,30.6,5.8c14.6,13.3,6.4,30.9-9.6,25.2
				C721.2,289.7,700.3,287.7,696.1,271.1z" />
			</g>
			<g>
				<path fill="#00b505" d="M707.3,207.1c-8.3,12.2-5.5,31.2-5.5,31.2s19.6,9.6,30.8,4.9c18.3-7.6,16.5-26.9-0.5-27
				C737.2,198.2,716.9,192.9,707.3,207.1z" />
				<path fill="#00b505" d="M667.7,234.9c14.3-3.6,31.2,5.5,31.2,5.5s2.3,21.7-5.8,30.6c-13.3,14.6-30.9,6.4-25.2-9.6
				C649.1,260,651,239.1,667.7,234.9z" />
			</g>
		</g>
		<g>

			<rect x="455.1" y="511.6" transform="matrix(0.156 -0.9878 0.9878 0.156 -124.3233 920.929)" fill="none"
				width="43.1" height="43.1" />
			<g>
				<path fill="#24fb20" d="M477.9,548.7c2.3-5.5-1.6-15.7-1.6-15.7s-9.6-0.9-15,2.3c-5.1,3-5.4,16.3,3.5,11.9
				C463.7,557.5,475.7,554.1,477.9,548.7z" />
				<path fill="#24fb20" d="M492.1,531.3c-4.9,3.4-15.7,1.7-15.7,1.7s-2.8-9.2-0.9-15.1c1.9-5.6,14.8-8.6,12.3,1
				C497.8,515.5,496.9,527.9,492.1,531.3z" />
			</g>
			<g>
				<path fill="#00b505" d="M461.2,534.9c5.5,2.3,15.7-1.6,15.7-1.6s0.9-9.6-2.3-15c-3-5.1-16.3-5.4-11.9,3.5
				C452.4,520.7,455.7,532.6,461.2,534.9z" />
				<path fill="#00b505" d="M478.6,549.1c-3.4-4.9-1.7-15.7-1.7-15.7s9.2-2.8,15.1-0.9c5.6,1.9,8.6,14.8-1,12.3
				C494.3,554.8,481.9,553.9,478.6,549.1z" />
			</g>
		</g>
		<g>

			<rect x="336.7" y="244" transform="matrix(0.4804 -0.877 0.877 0.4804 -49.9004 464.457)" fill="none"
				width="60.6" height="60.6" />
			<g>
				<path fill="#24fb20" d="M388.1,280.1c-6.1-5.7-21.5-5.4-21.5-5.4s-5.7,12.2-4.1,20.9c1.5,8.1,18.9,14.8,17.4,1
				C393,303.1,394.2,285.7,388.1,280.1z" />
				<path fill="#24fb20" d="M371.8,253.1c2.2,8.1-5.2,21.6-5.2,21.6s-13.5-0.6-20.4-6.1c-6.5-5.1-4.3-23.7,7.2-15.8
				C353.6,238.1,369.6,245.1,371.8,253.1z" />
			</g>
			<g>
				<path fill="#00b505" d="M361.9,295.7c5.7-6.1,5.4-21.5,5.4-21.5s-12.2-5.7-20.9-4.1c-8.1,1.5-14.8,18.9-1,17.4
				C338.9,300.6,356.3,301.8,361.9,295.7z" />
				<path fill="#00b505" d="M388.9,279.4c-8.1,2.2-21.6-5.2-21.6-5.2s0.6-13.5,6.1-20.4c5.1-6.5,23.7-4.3,15.8,7.2
				C403.9,261.3,396.9,277.3,388.9,279.4z" />
			</g>
		</g>
		<g>
			<rect x="260.5" y="308.6" fill="none" width="68.1" height="68.1" />
			<g>
				<path fill="#24fb20" d="M300.3,366.5c2.3-9.1-6.3-24.1-6.3-24.1s-15.2,0.9-22.8,7.2c-7.2,5.9-4.4,26.7,8.4,17.6
				C280.3,383.7,298.1,375.5,300.3,366.5z" />
				<path fill="#24fb20" d="M318.1,335.8c-6.8,6.5-24.1,6.5-24.1,6.5s-6.7-13.6-5.1-23.4c1.5-9.2,21-17,19.5-1.5
				C323.1,309.9,324.8,329.4,318.1,335.8z" />
			</g>
			<g>
				<path fill="#00b505" d="M270.8,349.1c9.1,2.3,24.1-6.3,24.1-6.3s-0.9-15.2-7.2-22.8c-5.9-7.2-26.7-4.4-17.6,8.4
				C253.5,329.1,261.7,346.9,270.8,349.1z" />
				<path fill="#00b505" d="M301.4,366.9c-6.5-6.8-6.5-24.1-6.5-24.1s13.6-6.7,23.4-5.1c9.2,1.5,17,21,1.5,19.5
				C327.4,371.9,307.8,373.6,301.4,366.9z" />
			</g>
		</g>
		<g>

			<rect x="198.6" y="109.7" transform="matrix(0.4537 -0.8911 0.8911 0.4537 -5.9261 306.3707)" fill="none"
				width="96.7" height="96.7" />
			<g>
				<path fill="#24fb20" d="M238.8,191.9c8.7-10.1,7.6-34.6,7.6-34.6s-19.8-8.6-33.6-5.5c-12.9,2.8-22.7,30.9-0.7,27.7
				C202.4,200.7,230.2,201.8,238.8,191.9z" />
				<path fill="#24fb20" d="M281.1,164.5c-12.7,3.8-34.7-7.3-34.7-7.3s0.3-21.6,8.7-32.9c7.9-10.6,37.5-8.1,25.6,10.7
				C304.1,134.9,293.7,160.7,281.1,164.5z" />
			</g>
			<g>
				<path fill="#00b505" d="M212.6,150.9c10.1,8.7,34.6,7.6,34.6,7.6s8.6-19.8,5.5-33.6c-2.8-12.9-30.9-22.7-27.7-0.7
				C203.7,114.4,202.6,142.2,212.6,150.9z" />
				<path fill="#00b505" d="M239.9,193.1c-3.8-12.7,7.3-34.7,7.3-34.7s21.6,0.3,32.9,8.7c10.6,7.9,8.1,37.5-10.7,25.6
				C269.6,216.2,243.7,205.8,239.9,193.1z" />
			</g>
		</g>
		<g>
			<rect x="739.4" y="154.6" fill="none" width="115.6" height="115.6" />
			<g>
				<path fill="#24fb20" d="M806.9,252.8c3.8-15.4-10.7-41-10.7-41s-25.7,1.6-38.8,12.3c-12.2,10-7.4,45.3,14.3,29.9
				C772.8,282.1,803.1,268.2,806.9,252.8z" />
				<path fill="#24fb20" d="M837,200.8c-11.5,11-40.9,11.1-40.9,11.1s-11.4-23.1-8.6-39.7c2.6-15.6,35.6-28.9,33.1-2.5
				C845.5,156.7,848.4,189.9,837,200.8z" />
			</g>
			<g>
				<path fill="#00b505" d="M756.7,223.4c15.4,3.8,41-10.7,41-10.7s-1.6-25.7-12.3-38.8c-10-12.2-45.3-7.4-29.9,14.3
				C727.4,189.4,741.4,219.6,756.7,223.4z" />
				<path fill="#00b505" d="M808.7,253.6c-11-11.5-11.1-40.9-11.1-40.9s23.1-11.4,39.7-8.6c15.6,2.6,28.9,35.6,2.5,33.1
				C852.8,262,819.6,265,808.7,253.6z" />
			</g>
		</g>
		<g>

			<rect x="596.3" y="179.3" transform="matrix(0.4804 -0.877 0.877 0.4804 141.6861 658.8423)" fill="none"
				width="61.1" height="61.1" />
			<g>
				<path fill="#24fb20" d="M648.1,215.6c-6.2-5.7-21.7-5.4-21.7-5.4s-5.8,12.3-4.1,21.1c1.5,8.2,19.1,14.9,17.5,1
				C653,238.8,654.3,221.3,648.1,215.6z" />
				<path fill="#24fb20" d="M631.7,188.4c2.2,8.1-5.3,21.8-5.3,21.8s-13.6-0.6-20.6-6.1c-6.6-5.2-4.4-23.9,7.2-16
				C613.4,173.3,629.5,180.3,631.7,188.4z" />
			</g>
			<g>
				<path fill="#00b505" d="M621.7,231.4c5.7-6.2,5.4-21.7,5.4-21.7s-12.3-5.8-21.1-4.1c-8.2,1.5-14.9,19.1-1,17.5
				C598.5,236.3,616.1,237.5,621.7,231.4z" />
				<path fill="#00b505" d="M648.9,214.9c-8.1,2.2-21.8-5.3-21.8-5.3s0.6-13.6,6.1-20.6c5.2-6.6,23.9-4.4,16,7.2
				C664.1,196.6,657,212.8,648.9,214.9z" />
			</g>
		</g>
		<g>
			<polygon fill="none" points="316.4,609.3 405.6,566.4 358.3,485.6 269.1,528.5 		" />
			<g>
				<path fill="#24fb20" d="M361.4,572.1c-3.4-12.2-25-24.7-25-24.7s-19.2,10.7-24.9,23c-5.3,11.5,12.8,34.4,23.3,15.6
				C347.1,605.2,364.7,584.2,361.4,572.1z" />
				<path fill="#24fb20" d="M363.4,524.6c-4.4,11.9-27,22.9-27,22.9s-18.2-11.9-22.9-24.6c-4.3-11.9,15.6-33.4,24.5-14
				C351.9,490.6,367.7,512.7,363.4,524.6z" />
			</g>
			<g>
				<path fill="#00b505" d="M310.6,570.2c13.5-3,27.2-22.7,27.2-22.7s-11.8-17.4-25.3-22.5c-12.7-4.8-38,11.6-17.3,21.1
				C274.1,557.2,297.3,573.2,310.6,570.2z" />
				<path fill="#00b505" d="M363.1,572c-13.2-4-25.3-24.5-25.3-24.5s13.2-16.5,27.2-20.7c13.1-3.9,36.9,14.2,15.4,22.2
				C400.6,561.5,376.2,575.9,363.1,572z" />
			</g>
		</g>
		<g>
			<g>
				<path fill="#00fa00" d="M377.9,587.9c5.7,10.3,20.1,15.1,20.1,15.1s13.8-10.4,14.6-20c1.2-15.7-13-21.4-19.3-9.4
				C382.4,563.5,371.3,576,377.9,587.9z" />
				<path fill="#00fa00" d="M383.3,626c2.6-11.5,15.1-20.1,15.1-20.1s16.2,6.2,19.6,15.2c5.5,14.7-6.6,24.2-15.9,14.4
				C394.3,648.2,380.2,639.3,383.3,626z" />
			</g>
			<g>
				<path fill="#00b505" d="M414.3,584.8c-10.3,5.7-15.1,20.1-15.1,20.1s10.4,13.8,20,14.6c15.7,1.2,21.4-13,9.4-19.3
				C438.7,589.3,426.3,578.2,414.3,584.8z" />
				<path fill="#00b505" d="M376.2,590.2c11.5,2.6,20.1,15.1,20.1,15.1s-6.2,16.2-15.2,19.6c-14.7,5.5-24.2-6.6-14.4-15.9
				C354,601.2,362.9,587.1,376.2,590.2z" />
			</g>
		</g>
		<g>
			<g>
				<path fill="#00fa00" d="M682,394.8c2.3,17,19.4,31.3,19.4,31.3s24.4-6.9,30.5-19.6c10-20.7-6.5-36.1-21.3-23.1
				C701,363.9,679.3,375,682,394.8z" />
				<path fill="#00fa00" d="M669.3,449.6c9.6-14.3,31.3-19.4,31.3-19.4s18.8,17,18.7,31.1c-0.2,23-21.8,29.5-29.3,11.2
				C672.6,485.8,658.1,466.2,669.3,449.6z" />
			</g>
			<g>
				<path fill="#00b505" d="M733.4,409.7c-17,2.3-31.3,19.4-31.3,19.4s6.9,24.4,19.6,30.5c20.7,10,36.1-6.5,23.1-21.3
				C764.3,428.7,753.2,407.1,733.4,409.7z" />
				<path fill="#00b505" d="M678.5,397c14.3,9.6,19.4,31.3,19.4,31.3s-17,18.8-31.1,18.7c-23-0.2-29.5-21.8-11.2-29.3
				C642.4,400.3,662,385.8,678.5,397z" />
			</g>
		</g>
		<g>

			<rect x="462.4" y="50.4" transform="matrix(0.8359 -0.5489 0.5489 0.8359 30.0495 295.8274)" fill="none"
				width="94.5" height="94.5" />
			<g>
				<path fill="#24fb20" d="M486.4,122.5c12.3-4.3,23.2-25.7,23.2-25.7s-12.7-16.9-25.8-21C471.5,71.9,449.5,91,469.8,99
				C451.1,112.3,474.2,126.8,486.4,122.5z" />
				<path fill="#24fb20" d="M535.5,119.7c-12.7-2.9-25.9-23-25.9-23s10.7-18.2,23.3-23.7c11.8-5.2,35.8,11.3,16.5,21.5
				C569.5,105.7,548.1,122.6,535.5,119.7z" />
			</g>
			<g>
				<path fill="#00b505" d="M484,75c4.3,12.3,25.7,23.2,25.7,23.2s16.9-12.7,21-25.8c3.9-12.3-15.2-34.3-23.2-14.1
				C494.1,39.7,479.7,62.8,484,75z" />
				<path fill="#00b505" d="M486.7,124.1c2.9-12.7,23-25.9,23-25.9s18.2,10.7,23.7,23.3c5.2,11.8-11.3,35.8-21.5,16.5
				C500.7,158,483.8,136.6,486.7,124.1z" />
			</g>
		</g>
		<g>
			<g>
				<path fill="#00fa00" d="M401.2,110.5c5.7,10.3,20.1,15.1,20.1,15.1s13.8-10.4,14.6-20c1.2-15.7-13-21.4-19.3-9.4
				C405.7,86.1,394.7,98.6,401.2,110.5z" />
				<path fill="#00fa00" d="M406.6,148.6c2.6-11.5,15.1-20.1,15.1-20.1s16.2,6.2,19.6,15.2c5.5,14.7-6.6,24.2-15.9,14.4
				C417.6,170.8,403.6,161.9,406.6,148.6z" />
			</g>
			<g>
				<path fill="#00b505" d="M437.7,107.4c-10.3,5.7-15.1,20.1-15.1,20.1s10.4,13.8,20,14.6c15.7,1.2,21.4-13,9.4-19.3
				C462,111.9,449.6,100.8,437.7,107.4z" />
				<path fill="#00b505" d="M399.6,112.8c11.5,2.6,20.1,15.1,20.1,15.1s-6.2,16.2-15.2,19.6c-14.7,5.5-24.2-6.6-14.4-15.9
				C377.3,123.8,386.3,109.7,399.6,112.8z" />
			</g>
		</g>
		<g>

			<rect x="55.3" y="308.1" transform="matrix(0.8826 -0.4701 0.4701 0.8826 -159.8168 97.9244)" fill="none"
				width="121.7" height="121.7" />
			<g>
				<path fill="#24fb20" d="M83.4,398c16.3-4.1,32.8-30.3,32.8-30.3s-14.2-23.1-30.6-29.9c-15.4-6.4-45.8,15.5-20.8,28.1
				C39.3,380.9,67.3,402.1,83.4,398z" />
				<path fill="#24fb20" d="M146.7,400.3c-15.9-5.2-30.5-32.5-30.5-32.5s15.9-22,32.7-27.7c15.8-5.3,44.5,18.7,18.7,29.5
				C191.9,386.4,162.5,405.5,146.7,400.3z" />
			</g>
			<g>
				<path fill="#00b505" d="M85.9,336.8c4.1,16.3,30.3,32.8,30.3,32.8s23.1-14.2,29.9-30.6c6.4-15.4-15.5-45.8-28.1-20.8
				C103.1,292.8,81.8,320.7,85.9,336.8z" />
				<path fill="#00b505" d="M83.6,400.1c5.2-15.9,32.5-30.5,32.5-30.5s22,15.9,27.7,32.7c5.3,15.8-18.7,44.5-29.5,18.7
				C97.6,445.3,78.4,415.9,83.6,400.1z" />
			</g>
		</g>
		<g>
			<g>
				<path fill="#00fa00" d="M207.4,362.3c5.7,10.3,20.1,15.1,20.1,15.1s13.8-10.4,14.6-20c1.2-15.7-13-21.4-19.3-9.4
				C211.9,337.9,200.8,350.3,207.4,362.3z" />
				<path fill="#00fa00" d="M212.7,400.4c2.6-11.5,15.1-20.1,15.1-20.1s16.2,6.2,19.6,15.2c5.5,14.7-6.6,24.2-15.9,14.4
				C223.8,422.6,209.7,413.7,212.7,400.4z" />
			</g>
			<g>
				<path fill="#00b505" d="M243.8,359.1c-10.3,5.7-15.1,20.1-15.1,20.1s10.4,13.8,20,14.6c15.7,1.2,21.4-13,9.4-19.3
				C268.2,363.6,255.7,352.6,243.8,359.1z" />
				<path fill="#00b505" d="M205.7,364.5c11.5,2.6,20.1,15.1,20.1,15.1s-6.2,16.2-15.2,19.6c-14.7,5.5-24.2-6.6-14.4-15.9
				C183.5,375.6,192.4,361.5,205.7,364.5z" />
			</g>
		</g>
		<g>
			<g>
				<path fill="#00fa00" d="M571.7,28c-0.4,11.7,9.4,23.3,9.4,23.3s17.2-1.8,22.8-9.6c9.1-12.8-0.2-25.1-11.7-18
				C588.1,9.4,572.2,14.3,571.7,28z" />
				<path fill="#00fa00" d="M556.6,63.4c8.1-8.5,23.3-9.4,23.3-9.4s10.7,13.6,8.9,23.1c-2.9,15.5-18.1,17.3-21.1,4.1
				C554.6,88.1,547.2,73.2,556.6,63.4z" />
			</g>
			<g>
				<path fill="#00b505" d="M604.5,44c-11.7-0.4-23.3,9.4-23.3,9.4s1.8,17.2,9.6,22.8c12.8,9.1,25.1-0.2,18-11.7
				C623.1,60.5,618.1,44.6,604.5,44z" />
				<path fill="#00b505" d="M569.1,29c8.5,8.1,9.4,23.3,9.4,23.3s-13.6,10.7-23.1,8.9c-15.5-2.9-17.3-18.1-4.1-21.1
				C544.3,27,559.2,19.6,569.1,29z" />
			</g>
		</g>
		<g>

			<rect x="335.2" y="51.1" transform="matrix(0.4804 -0.877 0.877 0.4804 118.4165 363.1652)" fill="none"
				width="61.1" height="61.1" />
			<g>
				<path fill="#24fb20" d="M386.9,87.4c-6.2-5.7-21.7-5.4-21.7-5.4s-5.8,12.3-4.1,21.1c1.5,8.2,19.1,14.9,17.5,1
				C391.9,110.6,393.1,93.1,386.9,87.4z" />
				<path fill="#24fb20" d="M370.5,60.2c2.2,8.1-5.3,21.8-5.3,21.8s-13.6-0.6-20.6-6.1c-6.6-5.2-4.4-23.9,7.2-16
				C352.2,45.1,368.3,52.1,370.5,60.2z" />
			</g>
			<g>
				<path fill="#00b505" d="M360.6,103.2c5.7-6.2,5.4-21.7,5.4-21.7s-12.3-5.8-21.1-4.1c-8.2,1.5-14.9,19.1-1,17.5
				C337.3,108.1,354.9,109.3,360.6,103.2z" />
				<path fill="#00b505" d="M387.7,86.7c-8.1,2.2-21.8-5.3-21.8-5.3s0.6-13.6,6.1-20.6c5.2-6.6,23.9-4.4,16,7.2
				C402.9,68.4,395.8,84.6,387.7,86.7z" />
			</g>
		</g>
		<g>
			<rect x="718.7" y="272" fill="none" width="89.9" height="89.9" />
			<g>
				<path fill="#24fb20" d="M771.2,348.4c3-12-8.3-31.9-8.3-31.9s-20,1.3-30.1,9.6c-9.5,7.8-5.8,35.2,11.1,23.3
				C744.7,371.2,768.3,360.4,771.2,348.4z" />
				<path fill="#24fb20" d="M794.7,308c-8.9,8.6-31.8,8.6-31.8,8.6s-8.9-18-6.7-30.9c2-12.1,27.7-22.5,25.7-1.9
				C801.3,273.7,803.6,299.5,794.7,308z" />
			</g>
			<g>
				<path fill="#00b505" d="M732.2,325.6c12,3,31.9-8.3,31.9-8.3s-1.3-20-9.6-30.1c-7.8-9.5-35.2-5.8-23.3,11.1
				C709.4,299.1,720.3,322.6,732.2,325.6z" />
				<path fill="#00b505" d="M772.6,349c-8.6-8.9-8.6-31.8-8.6-31.8s18-8.9,30.9-6.7c12.1,2,22.5,27.7,1.9,25.7
				C806.9,355.6,781.1,357.9,772.6,349z" />
			</g>
		</g>
		<g>
			<g>
				<path fill="#00fa00" d="M347.4,315.8c0.3,7.4,7,14.2,7,14.2s10.7-2,13.9-7.2c5.1-8.5-1.3-15.7-8.2-10.7
				C356.7,303.3,347,307.2,347.4,315.8z" />
				<path fill="#00fa00" d="M339.6,338.7c4.7-5.7,14.2-7,14.2-7s7.4,8,6.7,14.1c-1,9.8-10.5,11.7-13,3.6
				C339.6,354.4,334.2,345.4,339.6,338.7z" />
			</g>
			<g>
				<path fill="#00b505" d="M368.7,324.3c-7.4,0.3-14.2,7-14.2,7s2,10.7,7.2,13.9c8.5,5.1,15.7-1.3,10.7-8.2
				C381.2,333.7,377.3,323.9,368.7,324.3z" />
				<path fill="#00b505" d="M345.8,316.6c5.7,4.7,7,14.2,7,14.2s-8,7.4-14.1,6.7c-9.8-1-11.7-10.5-3.6-13
				C330.2,316.5,339.1,311.1,345.8,316.6z" />
			</g>
		</g>
		<g>
			<g>
				<path fill="#00fa00" d="M815.3,278.5c4.8,8.6,16.9,12.7,16.9,12.7s11.6-8.7,12.3-16.8c1-13.2-10.9-18-16.2-7.9
				C819,258,809.7,268.4,815.3,278.5z" />
				<path fill="#00fa00" d="M819.8,310.4c2.2-9.6,12.7-16.9,12.7-16.9s13.6,5.2,16.4,12.8c4.6,12.4-5.6,20.3-13.4,12.1
				C829,329.1,817.2,321.6,819.8,310.4z" />
			</g>
			<g>
				<path fill="#00b505" d="M845.8,275.8c-8.6,4.8-12.7,16.9-12.7,16.9s8.7,11.6,16.8,12.3c13.2,1,18-10.9,7.9-16.2
				C866.3,279.6,855.8,270.3,845.8,275.8z" />
				<path fill="#00b505" d="M813.8,280.3c9.6,2.2,16.9,12.7,16.9,12.7s-5.2,13.6-12.8,16.4c-12.4,4.6-20.3-5.6-12.1-13.4
				C795.2,289.6,802.7,277.8,813.8,280.3z" />
			</g>
		</g>
		<g>
			<g>
				<path fill="#00fa00" d="M625.3,124.6c13.2,10.5,34.9,9,34.9,9s12.6-21.4,8.3-34.5c-7-21.4-29-21.1-30.7-1.9
				C617.8,89.8,610,112.4,625.3,124.6z" />
				<path fill="#00fa00" d="M653.4,172c-2.9-16.6,9-34.9,9-34.9s24.8-0.7,34.3,9.3c15.4,16.4,4.5,35.6-13.2,27.8
				C680.3,195.3,656.7,191.3,653.4,172z" />
			</g>
			<g>
				<path fill="#00b505" d="M671.8,100.4c-10.5,13.2-9,34.9-9,34.9s21.4,12.6,34.5,8.3c21.4-7,21.1-29,1.9-30.7
				C706.5,92.9,684,85.1,671.8,100.4z" />
				<path fill="#00b505" d="M624.3,128.5c16.6-2.9,34.9,9,34.9,9s0.7,24.8-9.3,34.3c-16.4,15.4-35.6,4.5-27.8-13.2
				C601,155.3,605.1,131.8,624.3,128.5z" />
			</g>
		</g>
		<g>

			<rect x="689.8" y="32.1" transform="matrix(0.8519 -0.5237 0.5237 0.8519 74.7199 384.96)" fill="none"
				width="56.5" height="56.5" />
			<g>
				<path fill="#24fb20" d="M703.7,74.8c7.4-2.4,14.3-15,14.3-15s-7.3-10.3-15-13c-7.3-2.5-20.8,8.5-8.8,13.6
				C682.8,68.1,696.3,77.1,703.7,74.8z" />
				<path fill="#24fb20" d="M733.1,74c-7.5-2-15.1-14.2-15.1-14.2s6.7-10.7,14.4-13.7c7.2-2.9,21.2,7.4,9.5,13.1
				C753.6,66.2,740.5,76,733.1,74z" />
			</g>
			<g>
				<path fill="#00b505" d="M703.1,46.3c2.4,7.4,15,14.3,15,14.3s10.3-7.3,13-15c2.5-7.3-8.5-20.8-13.6-8.8
				C709.8,25.4,700.8,39,703.1,46.3z" />
				<path fill="#00b505" d="M703.9,75.7c2-7.5,14.2-15.1,14.2-15.1s10.7,6.7,13.7,14.4c2.9,7.2-7.4,21.2-13.1,9.5
				C711.6,96.2,701.9,83.2,703.9,75.7z" />
			</g>
		</g>
		<g>

			<rect x="557.7" y="88.7" transform="matrix(0.4903 -0.8715 0.8715 0.4903 197.7033 566.5507)" fill="none"
				width="51" height="51" />
			<g>
				<path fill="#24fb20" d="M578.2,131.9c4.8-5.1,4.7-18.1,4.7-18.1s-10.2-4.9-17.6-3.7c-6.9,1.2-12.7,15.8-1,14.6
				C558.8,135.8,573.5,137,578.2,131.9z" />
				<path fill="#24fb20" d="M601.1,118.4c-6.8,1.7-18.1-4.6-18.1-4.6s0.6-11.4,5.3-17.1c4.4-5.4,19.9-3.4,13.3,6.2
				C613.9,103.3,607.8,116.7,601.1,118.4z" />
			</g>
			<g>
				<path fill="#00b505" d="M565.3,109.7c5.1,4.8,18.1,4.7,18.1,4.7s4.9-10.2,3.7-17.6c-1.2-6.9-15.8-12.7-14.6-1
				C561.4,90.3,560.2,105,565.3,109.7z" />
				<path fill="#00b505" d="M578.8,132.6c-1.7-6.8,4.6-18.1,4.6-18.1s11.4,0.6,17.1,5.3c5.4,4.4,3.4,19.9-6.2,13.3
				C593.9,145.4,580.5,139.3,578.8,132.6z" />
			</g>
		</g>
		<g>
			<rect x="514.3" y="225.1" fill="none" width="115.6" height="115.6" />
			<g>
				<path fill="#24fb20" d="M581.8,323.3c3.8-15.4-10.7-41-10.7-41s-25.7,1.6-38.8,12.3c-12.2,10-7.4,45.3,14.3,29.9
				C547.7,352.6,578,338.7,581.8,323.3z" />
				<path fill="#24fb20" d="M611.9,271.3c-11.5,11-40.9,11.1-40.9,11.1s-11.4-23.1-8.6-39.7c2.6-15.6,35.6-28.9,33.1-2.5
				C620.4,227.2,623.4,260.4,611.9,271.3z" />
			</g>
			<g>
				<path fill="#00b505" d="M531.6,293.9c15.4,3.8,41-10.7,41-10.7s-1.6-25.7-12.3-38.8c-10-12.2-45.3-7.4-29.9,14.3
				C502.4,259.9,516.3,290.1,531.6,293.9z" />
				<path fill="#00b505" d="M583.6,324.1c-11-11.5-11.1-40.9-11.1-40.9s23.1-11.4,39.7-8.6c15.6,2.6,28.9,35.6,2.5,33.1
				C627.7,332.5,594.5,335.5,583.6,324.1z" />
			</g>
		</g>
		<g>

			<rect x="408.5" y="535.4" transform="matrix(0.4302 -0.9027 0.9027 0.4302 -257.0606 702.6262)" fill="none"
				width="39.1" height="39.1" />
			<g>
				<path fill="#24fb20" d="M425.1,568.7c3.4-4.2,2.7-14.1,2.7-14.1s-8.1-3.3-13.6-1.9c-5.2,1.3-8.9,12.8,0,11.2
				C410.5,572.7,421.7,572.9,425.1,568.7z" />
				<path fill="#24fb20" d="M441.9,557.2c-5.1,1.7-14.1-2.6-14.1-2.6s-0.1-8.7,3.2-13.4c3.1-4.4,15.1-3.7,10.5,4.1
				C450.9,545,447,555.5,441.9,557.2z" />
			</g>
			<g>
				<path fill="#00b505" d="M414.1,552.4c4.2,3.4,14.1,2.7,14.1,2.7s3.3-8.1,1.9-13.6c-1.3-5.2-12.8-8.9-11.2,0
				C410.1,537.7,409.9,549,414.1,552.4z" />
				<path fill="#00b505" d="M425.6,569.2c-1.7-5.1,2.6-14.1,2.6-14.1s8.7-0.1,13.4,3.2c4.4,3.1,3.7,15.1-4.1,10.5
				C437.8,578.2,427.3,574.3,425.6,569.2z" />
			</g>
		</g>
		<g>

			<rect x="419.7" y="622.1" transform="matrix(0.5416 -0.8406 0.8406 0.5416 -337.8695 662.73)" fill="none"
				width="38.1" height="38.1" />
			<g>
				<path fill="#24fb20" d="M434.2,654.1c3.8-3.6,4.3-13.3,4.3-13.3s-7.4-4.1-12.9-3.5c-5.2,0.6-10.1,11.2-1.4,10.8
				C419.6,656.1,430.4,657.7,434.2,654.1z" />
				<path fill="#24fb20" d="M451.9,645.1c-5.2,1-13.3-4.2-13.3-4.2s1-8.4,4.7-12.5c3.5-3.8,15-1.7,9.6,5.2
				C462.1,634.4,457,644.1,451.9,645.1z" />
			</g>
			<g>
				<path fill="#00b505" d="M425.6,637c3.6,3.8,13.3,4.3,13.3,4.3s4.1-7.4,3.5-12.9c-0.6-5.2-11.2-10.1-10.8-1.4
				C423.6,622.3,422,633.2,425.6,637z" />
				<path fill="#00b505" d="M434.6,654.7c-1-5.2,4.2-13.3,4.2-13.3s8.4,1,12.5,4.7c3.8,3.5,1.7,15-5.2,9.6
				C445.3,664.9,435.6,659.8,434.6,654.7z" />
			</g>
		</g>
		<g>

			<rect x="316.7" y="353.6" transform="matrix(0.7203 -0.6936 0.6936 0.7203 -175.0894 361.8064)" fill="none"
				width="88.8" height="88.8" />
			<g>
				<path fill="#24fb20" d="M343.9,425c10.6-6.1,17-27.8,17-27.8s-14.6-13.4-27.5-14.9c-12-1.4-29,20-9,23.9
				C309.6,421.7,333.4,431,343.9,425z" />
				<path fill="#24fb20" d="M388.8,413.9c-12.2-0.5-27.9-16.7-27.9-16.7s6.7-18.6,17.4-25.9c10-6.9,35,4.3,19,17
				C417.7,395.1,400.9,414.4,388.8,413.9z" />
			</g>
			<g>
				<path fill="#00b505" d="M333.5,381.5c6.1,10.6,27.8,17,27.8,17s13.4-14.6,14.9-27.5c1.4-12-20-29-23.9-9
				C336.7,347.2,327.4,371,333.5,381.5z" />
				<path fill="#00b505" d="M344.5,426.4c0.5-12.2,16.7-27.9,16.7-27.9s18.6,6.7,25.9,17.4c6.9,10-4.3,35-17,19
				C363.3,455.3,344,438.5,344.5,426.4z" />
			</g>
		</g>
		<g>
			<g>
				<path fill="#00fa00" d="M514.5,508.7c9.6,7.7,25.6,6.7,25.6,6.7s9.3-15.7,6.2-25.3c-5.1-15.8-21.3-15.6-22.5-1.5
				C509.1,483.1,503.3,499.7,514.5,508.7z" />
				<path fill="#00fa00" d="M534.9,543.6c-2-12.2,6.7-25.6,6.7-25.6s18.2-0.5,25.1,7c11.3,12.1,3.2,26.2-9.7,20.4
				C554.6,560.8,537.3,557.8,534.9,543.6z" />
			</g>
			<g>
				<path fill="#00b505" d="M548.7,491.1c-7.7,9.6-6.7,25.6-6.7,25.6s15.7,9.3,25.3,6.2c15.8-5.1,15.6-21.3,1.5-22.5
				C574.2,485.7,557.6,479.9,548.7,491.1z" />
				<path fill="#00b505" d="M513.7,511.5c12.2-2,25.6,6.7,25.6,6.7s0.5,18.2-7,25.1c-12.1,11.3-26.2,3.2-20.4-9.7
				C496.5,531.2,499.5,513.9,513.7,511.5z" />
			</g>
		</g>
		<g>
			<g>
				<path fill="#00fa00" d="M385.6,505.8c16.8-5,28.3-24.5,28.3-24.5s-10.8-23.4-24.5-27.6c-22.4-6.7-35.3,12.3-19.8,25.1
				C351.5,491.6,366.2,511.6,385.6,505.8z" />
				<path fill="#00fa00" d="M442.8,510c-15.9-7.4-24.5-28.3-24.5-28.3s14.1-21.6,28.3-23.7c23.2-3.4,33.1,17.3,15.9,27.7
				C478.6,500.9,461.2,518.6,442.8,510z" />
			</g>
			<g>
				<path fill="#00b505" d="M392.5,451.8c5,16.8,24.5,28.3,24.5,28.3s23.4-10.8,27.6-24.5c6.7-22.4-12.3-35.3-25.1-19.8
				C406.7,417.7,386.7,432.3,392.5,451.8z" />
				<path fill="#00b505" d="M388.3,508.9c7.4-15.9,28.3-24.5,28.3-24.5s21.6,14.1,23.7,28.3c3.4,23.2-17.3,33.1-27.7,15.9
				C397.4,544.7,379.8,527.3,388.3,508.9z" />
			</g>
		</g>
		<g>
			<g>
				<path fill="#00fa00" d="M473.4,571.4c1.8,12.2,14.1,22.3,14.1,22.3s17.5-5.1,21.8-14.3c7-14.9-4.9-25.9-15.5-16.4
				C486.9,549.1,471.4,557.2,473.4,571.4z" />
				<path fill="#00fa00" d="M464.6,610.8c6.8-10.3,22.3-14.1,22.3-14.1s13.6,12.1,13.6,22.2c0,16.5-15.5,21.3-21,8.2
				C467.2,636.7,456.7,622.8,464.6,610.8z" />
			</g>
			<g>
				<path fill="#00b505" d="M510.4,581.8c-12.2,1.8-22.3,14.1-22.3,14.1s5.1,17.5,14.3,21.8c14.9,7,25.9-4.9,16.4-15.5
				C532.7,595.2,524.5,579.7,510.4,581.8z" />
				<path fill="#00b505" d="M471,573c10.3,6.8,14.1,22.3,14.1,22.3s-12.1,13.6-22.2,13.6c-16.5,0-21.3-15.5-8.2-21
				C445,575.6,459,565.1,471,573z" />
			</g>
		</g>
		<g>
			<g>
				<path fill="#00fa00" d="M487.9,263.3c2.1,3.9,7.6,5.7,7.6,5.7s5.2-3.9,5.5-7.6c0.5-5.9-4.9-8.1-7.3-3.6
				C489.6,254.1,485.4,258.8,487.9,263.3z" />
				<path fill="#00fa00" d="M489.9,277.7c1-4.3,5.7-7.6,5.7-7.6s6.1,2.3,7.4,5.7c2.1,5.6-2.5,9.1-6,5.4
				C494.1,286.1,488.8,282.7,489.9,277.7z" />
			</g>
			<g>
				<path fill="#00b505" d="M501.6,262.1c-3.9,2.1-5.7,7.6-5.7,7.6s3.9,5.2,7.6,5.5c5.9,0.5,8.1-4.9,3.6-7.3
				C510.8,263.8,506.1,259.6,501.6,262.1z" />
				<path fill="#00b505" d="M487.2,264.2c4.3,1,7.6,5.7,7.6,5.7s-2.3,6.1-5.7,7.4c-5.6,2.1-9.1-2.5-5.4-6
				C478.9,268.3,482.2,263,487.2,264.2z" />
			</g>
		</g>
		<g>
			<g>
				<path fill="#00fa00" d="M585.1,387.2c-1.8,14.6,9.3,30.1,9.3,30.1s21.7-0.4,29.5-9.6c12.7-15,2.4-31.3-12.7-23.7
				C607.5,365.7,587.1,370.2,585.1,387.2z" />
				<path fill="#00fa00" d="M562.6,429.8c11-9.7,30.1-9.3,30.1-9.3s11.9,18.1,8.7,29.8c-5.2,19-24.4,19.7-26.7,2.9
				C557.6,460.4,549.8,441,562.6,429.8z" />
			</g>
			<g>
				<path fill="#00b505" d="M624.3,410.6c-14.6-1.8-30.1,9.3-30.1,9.3s0.4,21.7,9.6,29.5c15,12.7,31.3,2.4,23.7-12.7
				C645.8,433.1,641.3,412.7,624.3,410.6z" />
				<path fill="#00b505" d="M581.7,388.2c9.7,11,9.3,30.1,9.3,30.1s-18.1,11.9-29.8,8.7c-19-5.2-19.7-24.4-2.9-26.7
				C551.1,383.2,570.4,375.4,581.7,388.2z" />
			</g>
		</g>
		<g>
			<g>
				<path fill="#00fa00" d="M803.3,363.9c2,3.7,7.2,5.4,7.2,5.4s5-3.7,5.2-7.2c0.4-5.6-4.7-7.7-6.9-3.4
				C804.9,355.2,800.9,359.6,803.3,363.9z" />
				<path fill="#00fa00" d="M805.2,377.6c0.9-4.1,5.4-7.2,5.4-7.2s5.8,2.2,7,5.4c2,5.3-2.4,8.7-5.7,5.2
				C809.1,385.5,804.1,382.3,805.2,377.6z" />
			</g>
			<g>
				<path fill="#00b505" d="M816.3,362.8c-3.7,2-5.4,7.2-5.4,7.2s3.7,5,7.2,5.2c5.6,0.4,7.7-4.7,3.4-6.9
				C825.1,364.4,820.6,360.4,816.3,362.8z" />
				<path fill="#00b505" d="M802.7,364.7c4.1,0.9,7.2,5.4,7.2,5.4s-2.2,5.8-5.4,7c-5.3,2-8.7-2.4-5.2-5.7
				C794.7,368.7,797.9,363.6,802.7,364.7z" />
			</g>
		</g>
		<g>
			<g>
				<path fill="#00fa00" d="M584.4,540.6c1.9,6.3,9.3,10.6,9.3,10.6s8.8-4.1,10.3-9.3c2.5-8.5-4.7-13.3-9.5-7.4
				C589.6,527.7,582.1,533.3,584.4,540.6z" />
				<path fill="#00fa00" d="M583,562.2c2.8-6,10.6-9.3,10.6-9.3s8.2,5.3,9,10.6c1.3,8.7-6.4,12.5-10.4,6.1
				C586.5,575.7,579.8,569.2,583,562.2z" />
			</g>
			<g>
				<path fill="#00b505" d="M604.8,543.1c-6.3,1.9-10.6,9.3-10.6,9.3s4.1,8.8,9.3,10.3c8.5,2.5,13.3-4.7,7.4-9.5
				C617.7,548.3,612.1,540.8,604.8,543.1z" />
				<path fill="#00b505" d="M583.2,541.7c6,2.8,9.3,10.6,9.3,10.6s-5.3,8.2-10.6,9c-8.7,1.3-12.5-6.4-6.1-10.4
				C569.7,545.2,576.2,538.5,583.2,541.7z" />
			</g>
		</g>
		<g>

			<rect x="623.2" y="11.6" transform="matrix(0.4379 -0.899 0.899 0.4379 328.3463 616.9761)" fill="none"
				width="68.7" height="68.7" />
			<g>
				<path fill="#24fb20" d="M652.2,70.1c6.1-7.3,4.9-24.7,4.9-24.7s-14.2-5.8-23.9-3.5c-9.1,2.2-15.8,22.3-0.2,19.7
				C626.4,76.8,646.2,77.3,652.2,70.1z" />
				<path fill="#24fb20" d="M681.9,50.1c-9,2.9-24.7-4.7-24.7-4.7s-0.1-15.3,5.8-23.5c5.5-7.6,26.5-6.2,18.3,7.3
				C697.9,28.8,690.8,47.3,681.9,50.1z" />
			</g>
			<g>
				<path fill="#00b505" d="M633.1,41.3c7.3,6.1,24.7,4.9,24.7,4.9s5.8-14.2,3.5-23.9c-2.2-9.1-22.3-15.8-19.7-0.2
				C626.3,15.5,625.9,35.3,633.1,41.3z" />
				<path fill="#00b505" d="M653,70.9c-2.9-9,4.7-24.7,4.7-24.7s15.3-0.1,23.5,5.8c7.6,5.5,6.2,26.5-7.3,18.3
				C674.4,86.9,655.9,79.9,653,70.9z" />
			</g>
		</g>
		<g>

			<rect x="585.3" y="456.1" transform="matrix(0.7779 -0.6284 0.6284 0.7779 -174.4878 506.6068)" fill="none"
				width="88.1" height="88.1" />
			<g>
				<path fill="#24fb20" d="M610.1,525.3c11-5.1,19.2-26,19.2-26s-13.3-14.5-25.9-17.1c-11.8-2.4-30.4,17.3-10.9,22.8
				C576.4,519.1,599.2,530.4,610.1,525.3z" />
				<path fill="#24fb20" d="M655.4,518.3c-12-1.6-26.2-19-26.2-19s8.3-17.8,19.5-24.1c10.5-5.9,34.2,7.2,17.3,18.4
				C685.6,502.1,667.3,519.8,655.4,518.3z" />
			</g>
			<g>
				<path fill="#00b505" d="M603.5,481.4c5.1,11,26,19.2,26,19.2s14.5-13.3,17.1-25.9c2.4-11.8-17.3-30.4-22.8-10.9
				C609.7,447.7,598.4,470.5,603.5,481.4z" />
				<path fill="#00b505" d="M610.5,526.7c1.6-12,19-26.2,19-26.2s17.8,8.3,24.1,19.5c5.9,10.5-7.2,34.2-18.4,17.3
				C626.6,557,609,538.7,610.5,526.7z" />
			</g>
		</g>
		<g>

			<rect x="703.1" y="156.9" transform="matrix(0.1208 -0.9927 0.9927 0.1208 460.2604 871.7854)" fill="none"
				width="38.3" height="38.3" />
			<g>
				<path fill="#24fb20" d="M736,174.5c-4.9-1.9-13.9,1.9-13.9,1.9s-0.5,8.5,2.5,13.3c2.8,4.4,14.6,4.3,10.4-3.5
				C744.3,186.9,740.9,176.3,736,174.5z" />
				<path fill="#24fb20" d="M720.1,162.5c3.2,4.2,2,13.9,2,13.9s-8.1,2.8-13.4,1.2c-5-1.5-8.1-12.9,0.5-11
				C705.9,157.9,716.9,158.3,720.1,162.5z" />
			</g>
			<g>
				<path fill="#00b505" d="M724.3,189.8c1.9-4.9-1.9-13.9-1.9-13.9s-8.5-0.5-13.3,2.5c-4.4,2.8-4.3,14.6,3.5,10.4
				C711.9,198.1,722.4,194.7,724.3,189.8z" />
				<path fill="#00b505" d="M736.3,173.9c-4.2,3.2-13.9,2-13.9,2s-2.8-8.1-1.2-13.4c1.5-5,12.9-8.1,11,0.5
				C740.9,159.7,740.5,170.8,736.3,173.9z" />
			</g>
		</g>
		<g>

			<rect x="530.3" y="559.3" transform="matrix(0.9382 -0.3462 0.3462 0.9382 -166.2717 225.9703)" fill="none"
				width="38.2" height="38.2" />
			<g>
				<path fill="#24fb20" d="M557,589.8c-0.6-5.2-8-11.5-8-11.5s-7.8,3.4-10.6,8.2c-2.6,4.5,2.9,14.9,7.8,7.6
				C549.8,602.8,557.6,595,557,589.8z" />
				<path fill="#24fb20" d="M560.4,570.2c-2.3,4.7-11.4,8.1-11.4,8.1s-6.2-5.9-7.2-11.3c-1-5.1,7.7-13,10-4.6
				C558,555.6,562.7,565.5,560.4,570.2z" />
			</g>
			<g>
				<path fill="#00b505" d="M538.1,586.4c5.2-0.6,11.5-8,11.5-8s-3.4-7.8-8.2-10.6c-4.5-2.6-14.9,2.9-7.6,7.8
				C525.1,579.2,532.9,587,538.1,586.4z" />
				<path fill="#00b505" d="M557.6,589.8c-4.7-2.3-8.1-11.4-8.1-11.4s5.9-6.2,11.3-7.2c5.1-1,13,7.7,4.6,10
				C572.3,587.4,562.3,592.1,557.6,589.8z" />
			</g>
		</g>
		<g>
			<rect x="614.5" y="312.4" fill="none" width="74.1" height="74.1" />
			<g>
				<path fill="#24fb20" d="M657.8,375.4c2.5-9.9-6.9-26.3-6.9-26.3s-16.5,1-24.8,7.9c-7.8,6.4-4.8,29,9.2,19.2
				C635.9,394.2,655.3,385.2,657.8,375.4z" />
				<path fill="#24fb20" d="M677.1,342c-7.4,7.1-26.2,7.1-26.2,7.1s-7.3-14.8-5.5-25.5c1.7-10,22.8-18.6,21.2-1.6
				C682.5,313.8,684.4,335,677.1,342z" />
			</g>
			<g>
				<path fill="#00b505" d="M625.6,356.5c9.9,2.5,26.3-6.9,26.3-6.9s-1-16.5-7.9-24.8c-6.4-7.8-29-4.8-19.2,9.2
				C606.8,334.7,615.8,354.1,625.6,356.5z" />
				<path fill="#00b505" d="M658.9,375.9c-7.1-7.4-7.1-26.2-7.1-26.2s14.8-7.3,25.5-5.5c10,1.7,18.6,22.8,1.6,21.2
				C687.2,381.3,665.9,383.2,658.9,375.9z" />
			</g>
		</g>
		<g>

			<rect x="492.7" y="220.7" transform="matrix(0.5849 -0.8111 0.8111 0.5849 18.849 511.9794)" fill="none"
				width="33.8" height="33.8" />
			<g>
				<path fill="#24fb20" d="M505,248.8c3.6-3,4.5-11.6,4.5-11.6s-6.4-4-11.3-3.7c-4.6,0.3-9.5,9.5-1.7,9.6
				C491.9,250,501.5,251.8,505,248.8z" />
				<path fill="#24fb20" d="M521.1,241.7c-4.6,0.6-11.6-4.4-11.6-4.4s1.3-7.4,4.8-10.9c3.3-3.2,13.4-0.8,8.3,5.1
				C530.7,232.6,525.7,241,521.1,241.7z" />
			</g>
			<g>
				<path fill="#00b505" d="M498.2,233.3c3,3.6,11.6,4.5,11.6,4.5s4-6.4,3.7-11.3c-0.3-4.6-9.5-9.5-9.6-1.7
				C497,220.2,495.2,229.7,498.2,233.3z" />
				<path fill="#00b505" d="M505.3,249.3c-0.6-4.6,4.4-11.6,4.4-11.6s7.4,1.3,10.9,4.8c3.2,3.3,0.8,13.4-5.1,8.3
				C514.4,258.9,506,253.9,505.3,249.3z" />
			</g>
		</g>
		<g>
			<rect x="280.7" y="428.5" fill="none" width="74.1" height="74.1" />
			<g>
				<path fill="#24fb20" d="M324,491.5c2.5-9.9-6.9-26.3-6.9-26.3s-16.5,1-24.8,7.9c-7.8,6.4-4.8,29,9.2,19.2
				C302.1,510.3,321.5,501.4,324,491.5z" />
				<path fill="#24fb20" d="M343.3,458.2c-7.4,7.1-26.2,7.1-26.2,7.1s-7.3-14.8-5.5-25.5c1.7-10,22.8-18.6,21.2-1.6
				C348.7,429.9,350.6,451.2,343.3,458.2z" />
			</g>
			<g>
				<path fill="#00b505" d="M291.8,472.7c9.9,2.5,26.3-6.9,26.3-6.9s-1-16.5-7.9-24.8c-6.4-7.8-29-4.8-19.2,9.2
				C273,450.8,282,470.2,291.8,472.7z" />
				<path fill="#00b505" d="M325.2,492c-7.1-7.4-7.1-26.2-7.1-26.2s14.8-7.3,25.5-5.5c10,1.7,18.6,22.8,1.6,21.2
				C353.4,497.4,332.2,499.3,325.2,492z" />
			</g>
		</g>
		<g>

			<rect x="398" y="161.5" transform="matrix(0.2333 -0.9724 0.9724 0.2333 138.0199 595.8294)" fill="none"
				width="97.7" height="97.7" />
			<g>
				<path fill="#24fb20" d="M446.9,245.6c6.2-11.9-0.7-35.8-0.7-35.8s-21.5-3.7-34.3,2.5c-12,5.8-15,35.7,5.8,27.4
				C413.1,262.9,440.7,257.4,446.9,245.6z" />
				<path fill="#24fb20" d="M481.9,208.7c-11.6,6.8-35.8,1-35.8,1s-4.8-21.3,0.8-34.4c5.2-12.3,35-16.8,27.7,4.5
				C497.6,174.2,493.5,202,481.9,208.7z" />
			</g>
			<g>
				<path fill="#00b505" d="M411.4,211.5c11.9,6.2,35.8-0.7,35.8-0.7s3.7-21.5-2.5-34.3c-5.8-12-35.7-15-27.4,5.8
				C394.1,177.7,399.6,205.3,411.4,211.5z" />
				<path fill="#00b505" d="M448.2,246.5c-6.8-11.6-1-35.8-1-35.8s21.3-4.8,34.4,0.8c12.3,5.2,16.8,35-4.5,27.7
				C482.8,262.2,455,258.1,448.2,246.5z" />
			</g>
		</g>
		<g>

			<rect x="465.7" y="405.6" transform="matrix(0.9813 -0.1925 0.1925 0.9813 -76.3143 105.6741)" fill="none"
				width="79.8" height="79.8" />
			<g>
				<path fill="#24fb20" d="M517.5,471.6c0.5-11-12.7-26.3-12.7-26.3s-17.2,4.5-24.6,13.5c-6.9,8.4,1,31.7,13.7,18.4
				C498.4,496,517,482.5,517.5,471.6z" />
				<path fill="#24fb20" d="M531.1,432.4c-6.3,9-26.2,12.9-26.2,12.9s-10.8-14.2-11.1-25.8c-0.3-10.9,20.3-24.3,22.1-6.1
				C530.9,401.3,537.4,423.4,531.1,432.4z" />
			</g>
			<g>
				<path fill="#00b505" d="M479.6,458.4c11,0.5,26.3-12.7,26.3-12.7s-4.5-17.2-13.5-24.6c-8.4-6.9-31.7,1-18.4,13.7
				C455.3,439.2,468.7,457.8,479.6,458.4z" />
				<path fill="#00b505" d="M518.9,471.9c-9-6.3-12.9-26.2-12.9-26.2s14.2-10.8,25.8-11.1c10.9-0.3,24.3,20.3,6.1,22.1
				C549.9,471.7,527.8,478.2,518.9,471.9z" />
			</g>
		</g>
		<g>

			<rect x="808.2" y="326" transform="matrix(0.9505 -0.3107 0.3107 0.9505 -65.428 272.9791)" fill="none"
				width="31.8" height="31.8" />
			<g>
				<path fill="#24fb20" d="M830.2,351.6c-0.3-4.4-6.3-9.8-6.3-9.8s-6.6,2.6-9.1,6.5c-2.3,3.7,1.9,12.5,6.3,6.6
				C823.7,362.2,830.5,355.9,830.2,351.6z" />
				<path fill="#24fb20" d="M833.6,335.4c-2.1,3.9-9.8,6.4-9.8,6.4s-5-5.1-5.6-9.7c-0.6-4.3,6.8-10.6,8.4-3.5
				C832,323.2,835.7,331.6,833.6,335.4z" />
			</g>
			<g>
				<path fill="#00b505" d="M814.5,348.2c4.4-0.3,9.8-6.3,9.8-6.3s-2.6-6.6-6.5-9.1c-3.7-2.3-12.5,1.9-6.6,6.3
				C803.9,341.8,810.2,348.5,814.5,348.2z" />
				<path fill="#00b505" d="M830.7,351.7c-3.9-2.1-6.4-9.8-6.4-9.8s5.1-5,9.7-5.6c4.3-0.6,10.6,6.8,3.5,8.4
				C843,350.1,834.5,353.7,830.7,351.7z" />
			</g>
		</g>
		<g>
			<g>
				<path fill="#00fa00" d="M633.4,252.3c0.2,5.5,5.2,10.5,5.2,10.5s8-1.5,10.3-5.3c3.8-6.3-1-11.7-6.1-8
				C640.4,243,633.2,245.9,633.4,252.3z" />
				<path fill="#00fa00" d="M627.7,269.3c3.5-4.2,10.5-5.2,10.5-5.2s5.5,6,5,10.4c-0.8,7.3-7.8,8.7-9.7,2.7
				C627.7,280.9,623.7,274.2,627.7,269.3z" />
			</g>
			<g>
				<path fill="#00b505" d="M649.3,258.6c-5.5,0.2-10.5,5.2-10.5,5.2s1.5,8,5.3,10.3c6.3,3.8,11.7-1,8-6.1
				C658.6,265.5,655.7,258.3,649.3,258.6z" />
				<path fill="#00b505" d="M632.3,252.8c4.2,3.5,5.2,10.5,5.2,10.5s-6,5.5-10.4,5c-7.3-0.8-8.7-7.8-2.7-9.7
				C620.7,252.8,627.3,248.8,632.3,252.8z" />
			</g>
		</g>
		<g>

			<rect x="629.4" y="281.6" transform="matrix(0.1208 -0.9927 0.9927 0.1208 271.9559 902.8714)" fill="none"
				width="32.7" height="32.7" />
			<g>
				<path fill="#24fb20" d="M657.4,296.6c-4.2-1.6-11.9,1.6-11.9,1.6s-0.4,7.3,2.1,11.3c2.4,3.8,12.4,3.6,8.9-3
				C664.4,307.1,661.5,298.1,657.4,296.6z" />
				<path fill="#24fb20" d="M643.8,286.3c2.7,3.6,1.7,11.8,1.7,11.8s-6.9,2.4-11.4,1.1c-4.3-1.3-6.9-11,0.4-9.4
				C631.7,282.4,641.1,282.7,643.8,286.3z" />
			</g>
			<g>
				<path fill="#00b505" d="M647.4,309.6c1.6-4.2-1.6-11.9-1.6-11.9s-7.3-0.4-11.3,2.1c-3.8,2.4-3.6,12.4,3,8.9
				C636.9,316.7,645.8,313.8,647.4,309.6z" />
				<path fill="#00b505" d="M657.6,296.1c-3.6,2.7-11.8,1.7-11.8,1.7s-2.4-6.9-1.1-11.4c1.3-4.3,11-6.9,9.4,0.4
				C661.5,284,661.2,293.4,657.6,296.1z" />
			</g>
		</g>
		<g>
			<g>
				<path fill="#00fa00" d="M235.7,494c6.1,11.1,21.6,16.3,21.6,16.3s14.9-11.2,15.7-21.6c1.3-16.9-14.1-23-20.8-10.2
				C240.6,467.8,228.7,481.2,235.7,494z" />
				<path fill="#00fa00" d="M241.5,535.1c2.8-12.3,16.3-21.6,16.3-21.6s17.4,6.6,21.1,16.4c5.9,15.9-7.1,26-17.2,15.5
				C253.4,559,238.3,549.4,241.5,535.1z" />
			</g>
			<g>
				<path fill="#00b505" d="M275,490.7c-11.1,6.1-16.3,21.6-16.3,21.6s11.2,14.9,21.6,15.7c16.9,1.3,23-14.1,10.2-20.8
				C301.2,495.5,287.8,483.6,275,490.7z" />
				<path fill="#00b505" d="M233.9,496.4c12.3,2.8,21.6,16.3,21.6,16.3s-6.6,17.4-16.4,21.1c-15.9,5.9-26-7.1-15.5-17.2
				C210,508.3,219.6,493.2,233.9,496.4z" />
			</g>
		</g>
		<g>
			<g>
				<path fill="#00fa00"
					d="M218,18.4c4.1,3.5,11.1,3.2,11.1,3.2s4.3-6.8,3-11c-2-7-9.1-7.1-9.9-0.9C215.9,7.1,213.2,14.3,218,18.4z" />
				<path fill="#00fa00" d="M226.6,34c-0.8-5.4,3.2-11.1,3.2-11.1s8,0,10.9,3.3c4.8,5.4,1.1,11.5-4.5,8.8
				C235,41.7,227.4,40.2,226.6,34z" />
			</g>
			<g>
				<path fill="#00b505" d="M233.2,11.1c-3.5,4.1-3.2,11.1-3.2,11.1s6.8,4.3,11,3c7-2,7.1-9.1,0.9-9.9C244.4,9,237.2,6.3,233.2,11.1z
				" />
				<path fill="#00b505" d="M217.6,19.6c5.4-0.8,11.1,3.2,11.1,3.2s0,8-3.3,10.9c-5.4,4.8-11.5,1.1-8.8-4.5
				C209.9,28.1,211.4,20.5,217.6,19.6z" />
			</g>
		</g>
		<g>
			<g>
				<path fill="#00fa00" d="M459.9,145.3c4.5,3.2,11.6,2.2,11.6,2.2s3.7-7.3,2-11.5c-2.8-6.9-10-6.3-10.1,0.1
				C456.7,134.1,454.6,141.6,459.9,145.3z" />
				<path fill="#00fa00" d="M470.1,160.2c-1.3-5.4,2.2-11.6,2.2-11.6s8.1-0.8,11.4,2.3c5.4,5.1,2.3,11.6-3.7,9.4
				C479.4,167.3,471.6,166.5,470.1,160.2z" />
			</g>
			<g>
				<path fill="#00b505" d="M474.6,136.4c-3.2,4.5-2.2,11.6-2.2,11.6s7.3,3.7,11.5,2c6.9-2.8,6.3-10-0.1-10.1
				C485.8,133.2,478.3,131.1,474.6,136.4z" />
				<path fill="#00b505" d="M459.7,146.6c5.4-1.3,11.6,2.2,11.6,2.2s0.8,8.1-2.3,11.4c-5.1,5.4-11.6,2.3-9.4-3.7
				C452.6,155.9,453.4,148.1,459.7,146.6z" />
			</g>
		</g>
		<g>
			<g>
				<path fill="#00fa00" d="M683.7,296c3.3,6,11.7,8.8,11.7,8.8s8.1-6.1,8.5-11.7c0.7-9.1-7.6-12.5-11.2-5.5
				C686.3,281.8,679.9,289,683.7,296z" />
				<path fill="#00fa00" d="M686.8,318.2c1.5-6.7,8.8-11.7,8.8-11.7s9.4,3.6,11.4,8.9c3.2,8.6-3.9,14.1-9.3,8.4
				C693.3,331.1,685.1,325.9,686.8,318.2z" />
			</g>
			<g>
				<path fill="#00b505" d="M704.9,294.2c-6,3.3-8.8,11.7-8.8,11.7s6.1,8.1,11.7,8.5c9.1,0.7,12.5-7.6,5.5-11.2
				C719.1,296.8,711.9,290.3,704.9,294.2z" />
				<path fill="#00b505" d="M682.7,297.3c6.7,1.5,11.7,8.8,11.7,8.8s-3.6,9.4-8.9,11.4c-8.6,3.2-14.1-3.9-8.4-9.3
				C669.8,303.7,675,295.5,682.7,297.3z" />
			</g>
		</g>
		<g>
			<g>
				<path fill="#00fa00" d="M700.6,343.7c2.8,5.1,9.9,7.5,9.9,7.5s6.8-5.1,7.2-9.9c0.6-7.7-6.4-10.6-9.5-4.7
				C702.9,331.7,697.4,337.8,700.6,343.7z" />
				<path fill="#00fa00" d="M703.3,362.6c1.3-5.7,7.5-9.9,7.5-9.9s8,3,9.7,7.5c2.7,7.3-3.3,11.9-7.9,7.1
				C708.7,373.5,701.8,369.1,703.3,362.6z" />
			</g>
			<g>
				<path fill="#00b505" d="M718.6,342.2c-5.1,2.8-7.5,9.9-7.5,9.9s5.1,6.8,9.9,7.2c7.7,0.6,10.6-6.4,4.7-9.5
				C730.7,344.4,724.5,338.9,718.6,342.2z" />
				<path fill="#00b505" d="M699.8,344.8c5.7,1.3,9.9,7.5,9.9,7.5s-3,8-7.5,9.7c-7.3,2.7-11.9-3.3-7.1-7.9
				C688.8,350.3,693.2,343.3,699.8,344.8z" />
			</g>
		</g>
		<g>
			<g>
				<path fill="#00fa00" d="M579.8,347.9c2.8,5.1,9.9,7.5,9.9,7.5s6.8-5.1,7.2-9.9c0.6-7.7-6.4-10.6-9.5-4.7
				C582,335.8,576.6,342,579.8,347.9z" />
				<path fill="#00fa00" d="M582.5,366.7c1.3-5.7,7.5-9.9,7.5-9.9s8,3,9.7,7.5c2.7,7.3-3.3,11.9-7.9,7.1
				C587.9,377.7,581,373.3,582.5,366.7z" />
			</g>
			<g>
				<path fill="#00b505" d="M597.8,346.4c-5.1,2.8-7.5,9.9-7.5,9.9s5.1,6.8,9.9,7.2c7.7,0.6,10.6-6.4,4.7-9.5
				C609.8,348.6,603.7,343.1,597.8,346.4z" />
				<path fill="#00b505" d="M579,349c5.7,1.3,9.9,7.5,9.9,7.5s-3,8-7.5,9.7c-7.3,2.7-11.9-3.3-7.1-7.9C568,354.5,572.4,347.5,579,349
				z" />
			</g>
		</g>
		<g>

			<rect x="515.3" y="337" transform="matrix(0.4903 -0.8715 0.8715 0.4903 -40.2797 656.1373)" fill="none"
				width="51" height="51" />
			<g>
				<path fill="#24fb20" d="M535.8,380.2c4.8-5.1,4.7-18.1,4.7-18.1s-10.2-4.9-17.6-3.7c-6.9,1.2-12.7,15.8-1,14.6
				C516.4,384,531.1,385.2,535.8,380.2z" />
				<path fill="#24fb20" d="M558.7,366.7c-6.8,1.7-18.1-4.6-18.1-4.6s0.6-11.4,5.3-17.1c4.4-5.4,19.9-3.4,13.3,6.2
				C571.5,351.6,565.4,365,558.7,366.7z" />
			</g>
			<g>
				<path fill="#00b505" d="M522.9,358c5.1,4.8,18.1,4.7,18.1,4.7s4.9-10.2,3.7-17.6c-1.2-6.9-15.8-12.7-14.6-1
				C519,338.6,517.8,353.2,522.9,358z" />
				<path fill="#00b505" d="M536.4,380.8c-1.7-6.8,4.6-18.1,4.6-18.1s11.4,0.6,17.1,5.3c5.4,4.4,3.4,19.9-6.2,13.3
				C551.5,393.6,538.1,387.6,536.4,380.8z" />
			</g>
		</g>
		<g>
			<g>
				<path fill="#00fa00" d="M503.1,385.7c2,3.7,7.2,5.4,7.2,5.4s5-3.7,5.2-7.2c0.4-5.6-4.7-7.7-6.9-3.4
				C504.7,376.9,500.8,381.4,503.1,385.7z" />
				<path fill="#00fa00" d="M505.1,399.3c0.9-4.1,5.4-7.2,5.4-7.2s5.8,2.2,7,5.4c2,5.3-2.4,8.7-5.7,5.2
				C509,407.3,504,404.1,505.1,399.3z" />
			</g>
			<g>
				<path fill="#00b505" d="M516.2,384.6c-3.7,2-5.4,7.2-5.4,7.2s3.7,5,7.2,5.2c5.6,0.4,7.7-4.7,3.4-6.9
				C524.9,386.2,520.5,382.2,516.2,384.6z" />
				<path fill="#00b505" d="M502.5,386.5c4.1,0.9,7.2,5.4,7.2,5.4s-2.2,5.8-5.4,7c-5.3,2-8.7-2.4-5.2-5.7
				C494.6,390.4,497.8,385.4,502.5,386.5z" />
			</g>
		</g>
		<g>

			<rect x="431.6" y="397.2" transform="matrix(0.4903 -0.8715 0.8715 0.4903 -132.7627 603.8032)" fill="none"
				width="36.4" height="36.4" />
			<g>
				<path fill="#24fb20" d="M446.3,428c3.4-3.7,3.4-12.9,3.4-12.9s-7.3-3.5-12.5-2.6c-4.9,0.9-9,11.3-0.7,10.4
				C432.4,430.8,442.9,431.6,446.3,428z" />
				<path fill="#24fb20" d="M462.6,418.4c-4.9,1.2-12.9-3.3-12.9-3.3s0.4-8.1,3.8-12.2c3.1-3.9,14.2-2.5,9.5,4.4
				C471.7,407.6,467.4,417.2,462.6,418.4z" />
			</g>
			<g>
				<path fill="#00b505" d="M437,412.2c3.7,3.4,12.9,3.4,12.9,3.4s3.5-7.3,2.6-12.5c-0.9-4.9-11.3-9-10.4-0.7
				C434.3,398.3,433.4,408.8,437,412.2z" />
				<path fill="#00b505" d="M446.7,428.5c-1.2-4.9,3.3-12.9,3.3-12.9s8.1,0.4,12.2,3.8c3.9,3.1,2.5,14.2-4.4,9.5
				C457.5,437.7,447.9,433.3,446.7,428.5z" />
			</g>
		</g>
		<g>
			<g>
				<path fill="#00fa00" d="M410.3,405.9c2,3.7,7.2,5.4,7.2,5.4s5-3.7,5.2-7.2c0.4-5.6-4.7-7.7-6.9-3.4
				C411.9,397.1,407.9,401.6,410.3,405.9z" />
				<path fill="#00fa00" d="M412.2,419.5c0.9-4.1,5.4-7.2,5.4-7.2s5.8,2.2,7,5.4c2,5.3-2.4,8.7-5.7,5.2
				C416.1,427.5,411.1,424.3,412.2,419.5z" />
			</g>
			<g>
				<path fill="#00b505" d="M423.3,404.8c-3.7,2-5.4,7.2-5.4,7.2s3.7,5,7.2,5.2c5.6,0.4,7.7-4.7,3.4-6.9
				C432,406.4,427.6,402.4,423.3,404.8z" />
				<path fill="#00b505" d="M409.6,406.7c4.1,0.9,7.2,5.4,7.2,5.4s-2.2,5.8-5.4,7c-5.3,2-8.7-2.4-5.2-5.7
				C401.7,410.7,404.9,405.6,409.6,406.7z" />
			</g>
		</g>
		<g>

			<rect x="547.5" y="454.9" transform="matrix(0.1208 -0.9927 0.9927 0.1208 27.9253 973.9252)" fill="none"
				width="32.7" height="32.7" />
			<g>
				<path fill="#24fb20" d="M575.5,469.8c-4.2-1.6-11.9,1.6-11.9,1.6s-0.4,7.3,2.1,11.3c2.4,3.8,12.4,3.6,8.9-3
				C582.5,480.4,579.6,471.4,575.5,469.8z" />
				<path fill="#24fb20" d="M561.9,459.6c2.7,3.6,1.7,11.8,1.7,11.8s-6.9,2.4-11.4,1.1c-4.3-1.3-6.9-11,0.4-9.4
				C549.8,455.7,559.2,456,561.9,459.6z" />
			</g>
			<g>
				<path fill="#00b505" d="M565.5,482.9c1.6-4.2-1.6-11.9-1.6-11.9s-7.3-0.4-11.3,2.1c-3.8,2.4-3.6,12.4,3,8.9
				C555,490,563.9,487.1,565.5,482.9z" />
				<path fill="#00b505" d="M575.7,469.4c-3.6,2.7-11.8,1.7-11.8,1.7s-2.4-6.9-1.1-11.4c1.3-4.3,11-6.9,9.4,0.4
				C579.6,457.3,579.3,466.7,575.7,469.4z" />
			</g>
		</g>
		<g>
			<rect x="228.2" y="17.8" fill="none" width="100.8" height="100.8" />
			<g>
				<path fill="#24fb20" d="M287.1,103.5c3.3-13.5-9.4-35.8-9.4-35.8s-22.4,1.4-33.8,10.7c-10.7,8.7-6.5,39.5,12.5,26.1
				C257.4,129.1,283.8,116.9,287.1,103.5z" />
				<path fill="#24fb20" d="M313.4,58.2c-10,9.6-35.7,9.6-35.7,9.6s-9.9-20.2-7.5-34.7c2.3-13.6,31.1-25.3,28.9-2.2
				C320.8,19.7,323.4,48.6,313.4,58.2z" />
			</g>
			<g>
				<path fill="#00b505" d="M243.3,77.9c13.5,3.3,35.8-9.4,35.8-9.4s-1.4-22.4-10.7-33.8c-8.7-10.7-39.5-6.5-26.1,12.5
				C217.8,48.2,229.9,74.6,243.3,77.9z" />
				<path fill="#00b505" d="M288.7,104.2c-9.6-10-9.6-35.7-9.6-35.7s20.2-9.9,34.7-7.5c13.6,2.3,25.3,31.1,2.2,28.9
				C327.2,111.6,298.2,114.1,288.7,104.2z" />
			</g>
		</g>
		<g>

			<rect x="332.6" y="180.5" transform="matrix(0.5208 -0.8537 0.8537 0.5208 -6.2617 411.558)" fill="none"
				width="61.8" height="61.8" />
			<g>
				<path fill="#24fb20" d="M356.7,232.5c6-6,6.5-21.7,6.5-21.7s-12.2-6.4-21.1-5.2c-8.4,1.2-16,18.6-1.8,17.6
				C333,236.4,350.7,238.5,356.7,232.5z" />
				<path fill="#24fb20" d="M384.9,217.2c-8.3,1.8-21.7-6.3-21.7-6.3s1.2-13.7,7.1-20.5c5.5-6.4,24.3-3.3,15.8,8.1
				C401.1,199.4,393.2,215.4,384.9,217.2z" />
			</g>
			<g>
				<path fill="#00b505" d="M341.9,205.1c6,6,21.7,6.5,21.7,6.5s6.4-12.2,5.2-21.1c-1.2-8.4-18.6-16-17.6-1.8
				C338.1,181.4,336,199.1,341.9,205.1z" />
				<path fill="#00b505" d="M357.3,233.4c-1.8-8.3,6.3-21.7,6.3-21.7s13.7,1.2,20.5,7.1c6.4,5.5,3.3,24.3-8.1,15.8
				C375.1,249.5,359.1,241.6,357.3,233.4z" />
			</g>
		</g>
		<g>

			<rect x="144.3" y="18.2" transform="matrix(0.9487 -0.3161 0.3161 0.9487 -6.8869 58.3798)" fill="none"
				width="64.4" height="64.4" />
			<g>
				<path fill="#24fb20" d="M196.2,38.2c-8.8,0.7-19.8,12.9-19.8,12.9s5.4,13.3,13.3,18.3c7.4,4.7,25.2-4,13.3-12.8
				C217.7,51,205,37.5,196.2,38.2z" />
				<path fill="#24fb20" d="M163.4,31.4c7.8,4.1,13,19.7,13,19.7s-10.2,10.1-19.5,11.5c-8.7,1.4-21.6-13.7-7.1-17
				C138.6,34.7,155.6,27.3,163.4,31.4z" />
			</g>
			<g>
				<path fill="#00b505" d="M189.5,69.9c-0.7-8.8-12.9-19.8-12.9-19.8s-13.3,5.4-18.3,13.3c-4.7,7.4,4,25.2,12.8,13.3
				C176.6,91.3,190.2,78.6,189.5,69.9z" />
				<path fill="#00b505" d="M196.3,37.1c-4.1,7.8-19.7,13-19.7,13s-10.1-10.2-11.5-19.5c-1.4-8.7,13.7-21.6,17-7.1
				C193,12.3,200.4,29.3,196.3,37.1z" />
			</g>
		</g>
		<g>
			<rect x="169.1" y="175.3" fill="none" width="36.5" height="36.5" />
			<g>
				<path fill="#24fb20" d="M190.4,206.2c1.2-4.9-3.4-12.9-3.4-12.9s-8.1,0.5-12.2,3.9c-3.9,3.2-2.3,14.3,4.5,9.4
				C179.7,215.5,189.2,211.1,190.4,206.2z" />
				<path fill="#24fb20" d="M199.9,189.8c-3.6,3.5-12.9,3.5-12.9,3.5s-3.6-7.3-2.7-12.5c0.8-4.9,11.2-9.1,10.4-0.8
				C202.6,175.9,203.5,186.4,199.9,189.8z" />
			</g>
			<g>
				<path fill="#00b505" d="M174.6,197c4.9,1.2,12.9-3.4,12.9-3.4s-0.5-8.1-3.9-12.2c-3.2-3.9-14.3-2.3-9.4,4.5
				C165.3,186.2,169.7,195.8,174.6,197z" />
				<path fill="#00b505" d="M191,206.5c-3.5-3.6-3.5-12.9-3.5-12.9s7.3-3.6,12.5-2.7c4.9,0.8,9.1,11.2,0.8,10.4
				C204.9,209.2,194.4,210.1,191,206.5z" />
			</g>
		</g>
		<g>

			<rect x="16.8" y="172.1" transform="matrix(0.5502 -0.835 0.835 0.5502 -153.0039 147.6332)" fill="none"
				width="87.4" height="87.4" />
			<g>
				<path fill="#24fb20" d="M49.9,245.4c8.8-8.2,10.3-30.3,10.3-30.3s-16.9-9.7-29.6-8.4C18.7,208,7,232.2,27.1,231.6
				C16.2,249.7,41.1,253.5,49.9,245.4z" />
				<path fill="#24fb20" d="M90.5,225.1c-11.8,2.2-30.4-10-30.4-10s2.4-19.3,11.1-28.7c8.1-8.7,34.5-3.5,21.9,12.2
				C114.2,200.8,102.3,223,90.5,225.1z" />
			</g>
			<g>
				<path fill="#00b505" d="M30.4,206c8.2,8.8,30.3,10.3,30.3,10.3s9.7-16.9,8.4-29.6c-1.2-11.9-25.5-23.5-24.8-3.4
				C26.1,172.3,22.3,197.2,30.4,206z" />
				<path fill="#00b505" d="M50.7,246.7c-2.2-11.8,10-30.4,10-30.4s19.3,2.4,28.7,11.1c8.7,8.1,3.5,34.5-12.2,21.9
				C75,270.4,52.8,258.4,50.7,246.7z" />
			</g>
		</g>
		<g>
			<g>
				<path fill="#00fa00" d="M330.2,41.9c2,3.7,7.2,5.4,7.2,5.4s5-3.7,5.2-7.2c0.4-5.6-4.7-7.7-6.9-3.4
				C331.8,33.2,327.9,37.6,330.2,41.9z" />
				<path fill="#00fa00" d="M332.1,55.6c0.9-4.1,5.4-7.2,5.4-7.2s5.8,2.2,7,5.4c2,5.3-2.4,8.7-5.7,5.2
				C336.1,63.5,331.1,60.3,332.1,55.6z" />
			</g>
			<g>
				<path fill="#00b505" d="M343.3,40.8c-3.7,2-5.4,7.2-5.4,7.2s3.7,5,7.2,5.2c5.6,0.4,7.7-4.7,3.4-6.9
				C352,42.4,347.5,38.4,343.3,40.8z" />
				<path fill="#00b505" d="M329.6,42.7c4.1,0.9,7.2,5.4,7.2,5.4s-2.2,5.8-5.4,7c-5.3,2-8.7-2.4-5.2-5.7
				C321.7,46.7,324.8,41.6,329.6,42.7z" />
			</g>
		</g>
		<g>
			<g>
				<path fill="#00fa00" d="M169.3,412.5c3.5,6.3,12.3,9.2,12.3,9.2s8.5-6.4,8.9-12.2c0.8-9.6-8-13.1-11.8-5.8
				C172.1,397.6,165.3,405.2,169.3,412.5z" />
				<path fill="#00fa00" d="M172.6,435.8c1.6-7,9.2-12.3,9.2-12.3s9.9,3.8,12,9.3c3.4,9-4.1,14.8-9.7,8.8
				C179.3,449.4,170.7,444,172.6,435.8z" />
			</g>
			<g>
				<path fill="#00b505" d="M191.6,410.6c-6.3,3.5-9.2,12.3-9.2,12.3s6.4,8.5,12.2,8.9c9.6,0.8,13.1-8,5.8-11.8
				C206.5,413.4,198.9,406.6,191.6,410.6z" />
				<path fill="#00b505" d="M168.3,413.9c7,1.6,12.3,9.2,12.3,9.2s-3.8,9.9-9.3,12c-9,3.4-14.8-4.1-8.8-9.7
				C154.7,420.7,160.2,412,168.3,413.9z" />
			</g>
		</g>
		<g>
			<g>
				<path fill="#00fa00" d="M36.2,278.4c2.5,11.1,14.6,19.5,14.6,19.5s15.7-5.9,19-14.6c5.4-14.2-6.3-23.4-15.4-14
				C47,256.9,33.3,265.5,36.2,278.4z" />
				<path fill="#00fa00" d="M30.8,315.3c5.5-9.9,19.5-14.6,19.5-14.6s13.4,10.1,14.1,19.5c1.1,15.2-12.7,20.7-18.7,9
				C35,338.9,24.3,326.8,30.8,315.3z" />
			</g>
			<g>
				<path fill="#00b505" d="M70.9,285.4C59.8,287.9,51.3,300,51.3,300s5.9,15.7,14.6,19c14.2,5.4,23.4-6.3,14-15.4
				C92.3,296.2,83.8,282.5,70.9,285.4z" />
				<path fill="#00b505" d="M34,280c9.9,5.5,14.6,19.5,14.6,19.5s-10.1,13.4-19.5,14.1c-15.2,1.1-20.7-12.7-9-18.7
				C10.3,284.2,22.4,273.6,34,280z" />
			</g>
		</g>
		<g>
			<g>
				<path fill="#00fa00" d="M275.1,391c1.6,8.6,10.5,15.3,10.5,15.3s12.2-4,15-10.6c4.6-10.7-4.1-18.1-11.3-11.2
				C284,374.9,273.3,381.1,275.1,391z" />
				<path fill="#00fa00" d="M269.9,419c4.5-7.4,15.3-10.5,15.3-10.5s9.9,8.1,10.2,15.3c0.4,11.6-10.3,15.4-14.6,6.3
				C272.4,437.2,264.6,427.6,269.9,419z" />
			</g>
			<g>
				<path fill="#00b505" d="M301.4,397.4c-8.6,1.6-15.3,10.5-15.3,10.5s4,12.2,10.6,15c10.7,4.6,18.1-4.1,11.2-11.3
				C317.4,406.3,311.3,395.6,301.4,397.4z" />
				<path fill="#00b505" d="M273.4,392.2c7.4,4.5,10.5,15.3,10.5,15.3s-8.1,9.9-15.3,10.2c-11.6,0.4-15.4-10.3-6.3-14.6
				C255.2,394.7,264.7,386.9,273.4,392.2z" />
			</g>
		</g>
		<g>
			<g>
				<path fill="#00fa00" d="M317.9,118.1c1.7,10.2,12.3,18.5,12.3,18.5s14.6-4.6,18-12.4c5.6-12.7-4.6-21.7-13.3-13.5
				C328.7,99.1,315.9,106.2,317.9,118.1z" />
				<path fill="#00fa00" d="M311.2,151.4c5.5-8.8,18.5-12.3,18.5-12.3s11.7,9.9,11.9,18.4c0.3,13.9-12.6,18.2-17.5,7.3
				C313.9,173.2,304.8,161.6,311.2,151.4z" />
			</g>
			<g>
				<path fill="#00b505" d="M349.1,126.1c-10.2,1.7-18.5,12.3-18.5,12.3s4.6,14.6,12.4,18c12.7,5.6,21.7-4.6,13.5-13.3
				C368.2,137,361,124.1,349.1,126.1z" />
				<path fill="#00b505" d="M315.8,119.5c8.8,5.5,12.3,18.5,12.3,18.5s-9.9,11.7-18.4,11.9c-13.9,0.3-18.2-12.6-7.3-17.5
				C294.1,122.2,305.6,113.1,315.8,119.5z" />
			</g>
		</g>
		<g>
			<g>
				<path fill="#00fa00" d="M111.8,243.9c13.3,11.1,35.8,10.1,35.8,10.1s13.5-21.7,9.4-35.4c-6.7-22.3-29.4-22.5-31.6-2.7
				C104.9,207.9,96.3,231,111.8,243.9z" />
				<path fill="#00fa00" d="M139.5,293.6c-2.5-17.2,10.1-35.8,10.1-35.8s25.6-0.1,35.1,10.5c15.5,17.3,3.8,36.8-14.3,28.3
				C166.6,318.3,142.4,313.5,139.5,293.6z" />
			</g>
			<g>
				<path fill="#00b505" d="M160.3,220.2c-11.1,13.3-10.1,35.8-10.1,35.8s21.7,13.5,35.4,9.4c22.3-6.7,22.5-29.4,2.7-31.6
				C196.3,213.3,173.2,204.7,160.3,220.2z" />
				<path fill="#00b505" d="M110.6,247.9c17.2-2.5,35.8,10.1,35.8,10.1s0.1,25.6-10.5,35.1c-17.3,15.5-36.8,3.8-28.3-14.3
				C85.9,275,90.7,250.9,110.6,247.9z" />
			</g>
		</g>
		<g>
			<g>
				<path fill="#00fa00" d="M200.9,81.5c3.4,6.1,11.9,9,11.9,9s8.2-6.2,8.7-11.9c0.7-9.3-7.7-12.7-11.4-5.6
				C203.5,67,197,74.4,200.9,81.5z" />
				<path fill="#00fa00" d="M204.1,104c1.5-6.8,9-11.9,9-11.9s9.6,3.7,11.6,9c3.3,8.7-3.9,14.3-9.4,8.5
				C210.6,117.2,202.3,111.9,204.1,104z" />
			</g>
			<g>
				<path fill="#00b505" d="M222.5,79.6c-6.1,3.4-9,11.9-9,11.9s6.2,8.2,11.9,8.7c9.3,0.7,12.7-7.7,5.6-11.4
				C236.9,82.3,229.5,75.7,222.5,79.6z" />
				<path fill="#00b505" d="M199.9,82.8c6.8,1.5,11.9,9,11.9,9s-3.7,9.6-9,11.6c-8.7,3.3-14.3-3.9-8.5-9.4
				C186.7,89.3,192,81,199.9,82.8z" />
			</g>
		</g>
		<g>
			<g>
				<path fill="#00fa00" d="M299,179.7c3.3,6,11.7,8.8,11.7,8.8s8.1-6.1,8.5-11.7c0.7-9.1-7.6-12.5-11.2-5.5
				C301.6,165.5,295.2,172.7,299,179.7z" />
				<path fill="#00fa00" d="M302.1,201.9c1.5-6.7,8.8-11.7,8.8-11.7s9.4,3.6,11.4,8.9c3.2,8.6-3.9,14.1-9.3,8.4
				C308.6,214.8,300.4,209.6,302.1,201.9z" />
			</g>
			<g>
				<path fill="#00b505" d="M320.2,177.9c-6,3.3-8.8,11.7-8.8,11.7s6.1,8.1,11.7,8.5c9.1,0.7,12.5-7.6,5.5-11.2
				C334.4,180.5,327.2,174,320.2,177.9z" />
				<path fill="#00b505" d="M298,181c6.7,1.5,11.7,8.8,11.7,8.8s-3.6,9.4-8.9,11.4c-8.6,3.2-14.1-3.9-8.4-9.3
				C285.1,187.4,290.3,179.2,298,181z" />
			</g>
		</g>
		<g>

			<rect x="359.2" y="143.7" transform="matrix(0.1208 -0.9927 0.9927 0.1208 170.948 518.7917)" fill="none"
				width="38.3" height="38.3" />
			<g>
				<path fill="#24fb20" d="M392.1,161.3c-4.9-1.9-13.9,1.9-13.9,1.9s-0.5,8.5,2.5,13.3c2.8,4.4,14.6,4.3,10.4-3.5
				C400.3,173.7,397,163.2,392.1,161.3z" />
				<path fill="#24fb20" d="M376.1,149.3c3.2,4.2,2,13.9,2,13.9s-8.1,2.8-13.4,1.2c-5-1.5-8.1-12.9,0.5-11
				C362,144.7,373,145.1,376.1,149.3z" />
			</g>
			<g>
				<path fill="#00b505" d="M380.4,176.6c1.9-4.9-1.9-13.9-1.9-13.9s-8.5-0.5-13.3,2.5c-4.4,2.8-4.3,14.6,3.5,10.4
				C368,184.9,378.5,181.5,380.4,176.6z" />
				<path fill="#00b505" d="M392.4,160.7c-4.2,3.2-13.9,2-13.9,2s-2.8-8.1-1.2-13.4c1.5-5,12.9-8.1,11,0.5
				C396.9,146.5,396.6,157.6,392.4,160.7z" />
			</g>
		</g>
		<g>

			<rect x="167.9" y="300.4" transform="matrix(0.8214 -0.5704 0.5704 0.8214 -151.0747 168.0605)" fill="none"
				width="49.8" height="49.8" />
			<g>
				<path fill="#24fb20" d="M206.2,337.2c-2.4-6.4-13.9-11.9-13.9-11.9s-8.7,6.9-10.7,13.9c-1.9,6.5,8.5,17.8,12.4,7.1
				C201.3,355.9,208.6,343.5,206.2,337.2z" />
				<path fill="#24fb20" d="M204.1,311.4c-1.4,6.7-11.7,14-11.7,14s-9.7-5.4-12.8-11.9c-2.9-6.2,5.5-19,11.1-9
				C196.2,293.7,205.4,304.7,204.1,311.4z" />
			</g>
			<g>
				<path fill="#00b505" d="M181.2,339.1c6.4-2.4,11.9-13.9,11.9-13.9s-6.9-8.7-13.9-10.7c-6.5-1.9-17.8,8.5-7.1,12.4
				C162.5,334.2,174.9,341.5,181.2,339.1z" />
				<path fill="#00b505" d="M207,337c-6.7-1.4-14-11.7-14-11.7s5.4-9.7,11.9-12.8c6.2-2.9,19,5.5,9,11.1
				C224.7,329.1,213.7,338.3,207,337z" />
			</g>
		</g>
		<g>

			<rect x="128.7" y="434.2" transform="matrix(0.776 -0.6307 0.6307 0.776 -253.7532 196.7577)" fill="none"
				width="42.9" height="42.9" />
			<g>
				<path fill="#24fb20" d="M162.4,465c-2.5-5.3-12.7-9.3-12.7-9.3s-7,6.5-8.3,12.6c-1.2,5.7,8.4,14.8,11.1,5.3
				C159.4,481.4,164.9,470.3,162.4,465z" />
				<path fill="#24fb20" d="M158.9,443c-0.7,5.9-9.2,12.7-9.2,12.7s-8.7-4-11.8-9.4c-2.9-5.1,3.5-16.7,8.9-8.4
				C151,428.3,159.6,437.2,158.9,443z" />
			</g>
			<g>
				<path fill="#00b505" d="M141.1,468.3c5.3-2.5,9.3-12.7,9.3-12.7s-6.5-7-12.6-8.3c-5.7-1.2-14.8,8.4-5.3,11.1
				C124.7,465.3,135.8,470.8,141.1,468.3z" />
				<path fill="#00b505" d="M163.1,464.8c-5.9-0.7-12.7-9.2-12.7-9.2s4-8.7,9.4-11.8c5.1-2.9,16.7,3.5,8.4,8.9
				C177.8,456.9,168.9,465.5,163.1,464.8z" />
			</g>
		</g>
		<g>
			<rect x="203" y="412" fill="none" width="65.2" height="65.2" />
			<g>
				<path fill="#24fb20" d="M241.1,467.4c2.2-8.7-6-23.1-6-23.1s-14.5,0.9-21.9,6.9c-6.9,5.6-4.2,25.5,8.1,16.9
				C221.9,483.9,239,476,241.1,467.4z" />
				<path fill="#24fb20" d="M258.1,438.1c-6.5,6.2-23.1,6.2-23.1,6.2s-6.4-13-4.8-22.4c1.5-8.8,20.1-16.3,18.7-1.4
				C262.9,413.2,264.6,431.9,258.1,438.1z" />
			</g>
			<g>
				<path fill="#00b505" d="M212.8,450.8c8.7,2.2,23.1-6,23.1-6s-0.9-14.5-6.9-21.9c-5.6-6.9-25.5-4.2-16.9,8.1
				C196.3,431.6,204.2,448.7,212.8,450.8z" />
				<path fill="#00b505" d="M242.1,467.8c-6.2-6.5-6.2-23.1-6.2-23.1s13-6.4,22.4-4.8c8.8,1.5,16.3,20.1,1.4,18.7
				C267,472.6,248.3,474.3,242.1,467.8z" />
			</g>
		</g>
		<g>
			<g>
				<path fill="#00fa00" d="M209.8,207.9c0.2,5.5,5.2,10.5,5.2,10.5s8-1.5,10.3-5.3c3.8-6.3-1-11.7-6.1-8
				C216.8,198.6,209.6,201.5,209.8,207.9z" />
				<path fill="#00fa00" d="M204.1,224.9c3.5-4.2,10.5-5.2,10.5-5.2s5.5,6,5,10.4c-0.8,7.3-7.8,8.7-9.7,2.7
				C204.1,236.5,200.1,229.9,204.1,224.9z" />
			</g>
			<g>
				<path fill="#00b505" d="M225.7,214.2c-5.5,0.2-10.5,5.2-10.5,5.2s1.5,8,5.3,10.3c6.3,3.8,11.7-1,8-6.1
				C235,221.2,232.1,213.9,225.7,214.2z" />
				<path fill="#00b505" d="M208.7,208.5c4.2,3.5,5.2,10.5,5.2,10.5s-6,5.5-10.4,5c-7.3-0.8-8.7-7.8-2.7-9.7
				C197.1,208.4,203.7,204.4,208.7,208.5z" />
			</g>
		</g>
		<g>
			<g>
				<path fill="#00fa00" d="M202.8,270.8c2.1,3.9,7.6,5.7,7.6,5.7s5.2-3.9,5.5-7.6c0.5-5.9-4.9-8.1-7.3-3.6
				C204.5,261.5,200.3,266.2,202.8,270.8z" />
				<path fill="#00fa00" d="M204.8,285.1c1-4.3,5.7-7.6,5.7-7.6s6.1,2.3,7.4,5.7c2.1,5.6-2.5,9.1-6,5.4
				C209,293.5,203.7,290.2,204.8,285.1z" />
			</g>
			<g>
				<path fill="#00b505" d="M216.5,269.6c-3.9,2.1-5.7,7.6-5.7,7.6s3.9,5.2,7.6,5.5c5.9,0.5,8.1-4.9,3.6-7.3
				C225.7,271.3,221,267.1,216.5,269.6z" />
				<path fill="#00b505" d="M202.1,271.6c4.3,1,7.6,5.7,7.6,5.7s-2.3,6.1-5.7,7.4c-5.6,2.1-9.1-2.5-5.4-6
				C193.8,275.8,197.1,270.5,202.1,271.6z" />
			</g>
		</g>
		<g>

			<rect x="220" y="303.6" transform="matrix(0.5849 -0.8111 0.8111 0.5849 -161.6479 325.233)" fill="none"
				width="33.8" height="33.8" />
			<g>
				<path fill="#24fb20" d="M232.3,331.8c3.6-3,4.5-11.6,4.5-11.6s-6.4-4-11.3-3.7c-4.6,0.3-9.5,9.5-1.7,9.6
				C219.2,332.9,228.8,334.8,232.3,331.8z" />
				<path fill="#24fb20" d="M248.4,324.6c-4.6,0.6-11.6-4.4-11.6-4.4s1.3-7.4,4.8-10.9c3.3-3.2,13.4-0.8,8.3,5.1
				C258,315.6,253,324,248.4,324.6z" />
			</g>
			<g>
				<path fill="#00b505" d="M225.5,316.2c3,3.6,11.6,4.5,11.6,4.5s4-6.4,3.7-11.3c-0.3-4.6-9.5-9.5-9.6-1.7
				C224.3,303.1,222.5,312.7,225.5,316.2z" />
				<path fill="#00b505" d="M232.6,332.3c-0.6-4.6,4.4-11.6,4.4-11.6s7.4,1.3,10.9,4.8c3.2,3.3,0.8,13.4-5.1,8.3
				C241.7,341.9,233.3,336.9,232.6,332.3z" />
			</g>
		</g>
		<g>
			<g>
				<path fill="#00fa00" d="M182.1,476.4c3.3,6,11.8,8.9,11.8,8.9s8.1-6.1,8.6-11.7c0.7-9.2-7.6-12.5-11.3-5.5
				C184.7,462.1,178.2,469.4,182.1,476.4z" />
				<path fill="#00fa00" d="M185.2,498.7c1.5-6.7,8.9-11.8,8.9-11.8s9.5,3.6,11.5,8.9c3.2,8.6-3.9,14.2-9.3,8.4
				C191.7,511.7,183.4,506.5,185.2,498.7z" />
			</g>
			<g>
				<path fill="#00b505" d="M203.4,474.5c-6,3.3-8.9,11.8-8.9,11.8s6.1,8.1,11.7,8.6c9.2,0.7,12.5-7.6,5.5-11.3
				C217.7,477.2,210.4,470.7,203.4,474.5z" />
				<path fill="#00b505" d="M181.1,477.7c6.7,1.5,11.8,8.9,11.8,8.9s-3.6,9.5-8.9,11.5c-8.6,3.2-14.2-3.9-8.4-9.3
				C168.1,484.1,173.3,475.9,181.1,477.7z" />
			</g>
		</g>
	</g>
</svg>