<svg width="397" height="200" viewBox="0 0 397 200" fill="none" xmlns="http://www.w3.org/2000/svg">
<path d="M161.766 78.0235C151.355 74.5169 137.63 75.6091 125.75 78.121C136.441 72.5996 147.605 64.8816 153.393 55.6956C153.393 55.6956 163.805 42.1772 148.94 30.2003C148.94 30.2003 141.295 23.7077 132.546 27.3728V27.3001C127.303 29.0111 125.69 24.0357 125.69 24.0357L125.653 24.0599C122.971 14.9826 113.118 13.1385 113.118 13.1385C94.4424 9.15779 90.5106 25.7465 90.5106 25.7465C86.9792 36.1577 88.0957 49.8948 90.5952 61.7623C85.0743 51.0716 77.3564 39.9197 68.1704 34.1317C68.1704 34.1317 54.6639 23.7199 42.6745 38.5852C42.6745 38.5852 36.1825 46.2181 39.8352 54.9671H39.7742C41.4853 60.2216 36.5099 61.8357 36.5099 61.8357L36.5346 61.8717C27.4574 64.5538 25.6126 74.4072 25.6126 74.4072C21.6325 93.0829 38.2333 97.0146 38.2333 97.0146C48.645 100.534 62.3697 99.429 74.2373 96.9171C63.5465 102.451 52.3947 110.169 46.5942 119.355C46.5942 119.355 36.1949 132.873 51.0596 144.85C51.0596 144.85 58.7048 151.342 67.4539 147.689V147.738C72.6965 146.039 74.31 151.002 74.31 151.002L74.3468 150.978C77.0284 160.067 86.8821 161.912 86.8821 161.912C105.557 165.88 109.489 149.291 109.489 149.291C111.37 143.697 111.904 137.156 111.625 130.458C115.326 146.16 125.022 166.911 150.687 172.117L158.866 165.964L155.177 152.871C155.177 152.871 127.776 148.029 118.469 127.874C122.437 133.152 126.915 137.812 131.829 140.918C131.829 140.918 145.348 151.33 157.325 136.465C157.325 136.465 163.817 128.82 160.164 120.071H160.225C158.514 114.829 163.489 113.214 163.489 113.214L163.453 113.178C172.542 110.496 174.387 100.643 174.387 100.643C178.367 81.9552 161.766 78.0235 161.766 78.0235Z" fill="#00FA00"/>
<path d="M285.272 140.617C285.272 141.864 285.334 142.986 285.459 143.983C285.708 148.471 285.833 151.899 285.833 154.268C285.833 156.512 285.646 158.195 285.272 159.317C285.023 160.314 284.524 160.875 283.776 161C283.028 161 281.968 161 280.597 161C279.226 160.875 277.418 160.875 275.174 161C273.055 161.125 269.377 161.249 264.141 161.374C259.03 161.499 251.924 161.561 242.823 161.561C233.847 161.561 221.817 161.436 206.732 161.187V157.821C207.106 148.471 207.418 140.056 207.667 132.576C207.916 124.971 208.041 117.928 208.041 111.445C208.166 104.838 208.228 98.4797 208.228 92.371C208.228 86.2623 208.166 80.029 208.041 73.671C207.916 67.313 207.792 60.581 207.667 53.475C207.542 46.2443 207.418 38.2657 207.293 29.539C208.54 29.0403 210.472 28.6663 213.09 28.417C215.708 28.043 218.513 27.856 221.505 27.856C224.497 27.856 227.427 28.043 230.294 28.417C233.161 28.791 235.468 29.352 237.213 30.1C236.964 38.2033 236.839 46.556 236.839 55.158C236.964 63.6353 237.088 72.175 237.213 80.777C237.338 89.379 237.4 97.981 237.4 106.583C237.525 115.06 237.525 123.288 237.4 131.267V131.454C238.273 131.205 239.893 131.142 242.262 131.267C244.755 131.267 247.623 131.329 250.864 131.454C254.105 131.579 257.534 131.766 261.149 132.015C264.889 132.14 268.38 132.264 271.621 132.389C274.987 132.514 277.917 132.638 280.41 132.763C283.028 132.763 284.836 132.701 285.833 132.576C285.833 133.947 285.771 135.319 285.646 136.69C285.521 137.937 285.397 139.246 285.272 140.617ZM305.456 66.939C308.324 67.0637 311.752 67.0637 315.741 66.939H318.92V67.5C318.796 82.5847 318.484 97.981 317.985 113.689C317.611 129.397 317.861 144.793 318.733 159.878C318.11 160.626 316.552 161 314.058 161C311.565 161.125 308.822 161.125 305.83 161C302.963 161 300.22 160.938 297.602 160.813C294.984 160.688 293.239 160.751 292.366 161C292.99 153.146 293.239 145.167 293.114 137.064C293.114 128.961 292.99 120.92 292.74 112.941C292.491 104.962 292.366 97.1083 292.366 89.379C292.366 81.525 292.74 73.9203 293.488 66.565V66.378C293.987 66.2533 294.797 66.2533 295.919 66.378C297.166 66.5027 298.101 66.565 298.724 66.565C300.345 66.6897 302.589 66.8143 305.456 66.939ZM292.927 40.759C292.678 36.7697 292.616 31.9077 292.74 26.173L318.172 26.734C318.172 27.482 318.172 28.8533 318.172 30.848C318.297 32.718 318.359 34.8373 318.359 37.206C318.484 39.45 318.546 41.8187 318.546 44.312C318.671 46.6807 318.733 48.8 318.733 50.67C318.235 51.418 317.05 51.9167 315.18 52.166C313.435 52.4153 311.316 52.54 308.822 52.54C306.454 52.4153 303.898 52.2907 301.155 52.166C298.413 51.9167 295.857 51.8543 293.488 51.979C293.488 48.3637 293.301 44.6237 292.927 40.759ZM365.302 94.428V135.194V160.252C363.183 160.003 361.063 159.94 358.944 160.065C356.825 160.19 354.705 160.377 352.586 160.626C350.467 160.751 348.41 160.875 346.415 161C344.545 161.125 342.8 161.062 341.179 160.813C340.93 159.317 340.743 156.886 340.618 153.52C340.618 150.029 340.556 146.165 340.431 141.926C340.431 137.563 340.431 133.012 340.431 128.275C340.431 123.538 340.431 118.987 340.431 114.624C340.556 110.136 340.618 106.147 340.618 102.656C340.743 99.1653 340.805 96.485 340.805 94.615C338.81 94.615 336.691 94.615 334.447 94.615C332.328 94.615 330.021 94.6773 327.528 94.802L326.967 71.988C329.585 71.988 331.954 71.988 334.073 71.988C336.317 71.988 338.436 72.0503 340.431 72.175C340.182 69.0583 340.244 65.6923 340.618 62.077C340.992 58.4617 341.865 54.971 343.236 51.605C344.732 48.1143 346.789 44.9977 349.407 42.255C352.025 39.3877 355.453 37.2683 359.692 35.897C364.928 34.1517 370.6 33.092 376.709 32.718C382.942 32.2193 388.989 32.0947 394.848 32.344C395.471 34.214 395.845 36.271 395.97 38.515C396.219 40.759 396.282 43.003 396.157 45.247C396.032 47.491 395.845 49.6727 395.596 51.792C395.347 53.9113 395.097 55.8437 394.848 57.589C393.352 57.4643 391.607 57.4643 389.612 57.589C387.742 57.7137 385.747 57.9007 383.628 58.15C381.509 58.3993 379.389 58.711 377.27 59.085C375.151 59.3343 373.218 59.5837 371.473 59.833C368.606 60.3317 366.798 61.8277 366.05 64.321C365.427 66.6897 365.427 69.4323 366.05 72.549H394.661C394.412 73.9203 394.349 75.2917 394.474 76.663C394.599 77.9097 394.599 79.4057 394.474 81.151C394.474 82.5223 394.474 83.6443 394.474 84.517C394.474 85.265 394.412 86.0753 394.287 86.948C394.287 87.8207 394.225 88.9427 394.1 90.314C393.975 91.6853 393.788 93.5553 393.539 95.924C387.181 95.55 381.82 95.2383 377.457 94.989C373.218 94.7397 369.167 94.5527 365.302 94.428Z" fill="white"/>
</svg>
