<svg width="1084" height="351" viewBox="0 0 1084 351" fill="none" xmlns="http://www.w3.org/2000/svg">
<path d="M404.297 159.289C410 159.289 414.453 158.703 417.656 157.531C420.938 156.359 423.477 154.914 425.273 153.195C427.07 151.477 428.633 149.758 429.961 148.039C431.211 146.477 432.227 145.305 433.008 144.523C433.867 143.742 435.039 143.195 436.523 142.883C437.773 142.492 439.766 142.258 442.5 142.18C445.312 142.023 448.086 141.945 450.82 141.945C453.633 141.945 455.586 142.023 456.68 142.18C458.32 142.258 459.453 142.57 460.078 143.117C460.703 143.664 461.094 144.836 461.25 146.633C461.484 149.133 461.602 152.102 461.602 155.539C461.68 158.977 461.641 161.945 461.484 164.445C461.406 165.227 461.25 165.891 461.016 166.438C460.859 166.984 460.469 167.805 459.844 168.898C459.062 170.148 457.539 171.984 455.273 174.406C453.008 176.75 449.688 179.211 445.312 181.789C440.938 184.289 435.273 186.438 428.32 188.234C421.445 190.031 412.969 190.93 402.891 190.93C392.109 190.93 382.031 189.562 372.656 186.828C363.281 184.016 355.039 179.328 347.93 172.766C340.898 166.203 335.391 157.336 331.406 146.164C327.5 134.992 325.547 121.047 325.547 104.328C325.547 85.7344 328.75 69.9531 335.156 56.9844C341.641 43.9375 350.82 34.0156 362.695 27.2188C374.57 20.4219 388.633 17.0234 404.883 17.0234C416.289 17.0234 425.43 18.1953 432.305 20.5391C439.258 22.8828 444.531 25.6563 448.125 28.8594C451.719 31.9844 454.258 34.7188 455.742 37.0625C456.289 37.9219 456.68 38.7031 456.914 39.4062C457.148 40.0312 457.305 41.0469 457.383 42.4531C457.617 44.3281 457.656 47.0625 457.5 50.6562C457.422 54.25 457.148 57.4141 456.68 60.1484C456.367 61.8672 455.859 63 455.156 63.5469C454.844 63.8594 454.297 64.1328 453.516 64.3672C452.734 64.6016 451.562 64.7188 450 64.7188C447.5 64.7188 444.688 64.6406 441.562 64.4844C438.438 64.25 436.094 64.0156 434.531 63.7812C432.656 63.4687 431.289 63.0391 430.43 62.4922C429.57 61.8672 428.711 60.9297 427.852 59.6797C426.445 57.6484 424.023 55.3047 420.586 52.6484C417.148 49.9922 411.484 48.6641 403.594 48.6641C392.5 48.6641 383.359 52.9609 376.172 61.5547C368.984 70.0703 365.391 83.8984 365.391 103.039C365.391 122.102 369.141 136.242 376.641 145.461C384.219 154.68 393.438 159.289 404.297 159.289ZM499.922 190.461C498.281 191.164 497.109 191.516 496.406 191.516C495.703 191.516 494.961 191.242 494.18 190.695C492.383 189.445 490.312 186.398 487.969 181.555C485.703 176.633 484.57 169.094 484.57 158.938V23.2344C484.57 21.3594 484.961 19.9141 485.742 18.8984C489.023 14.6016 493.828 9.95313 500.156 4.95312C501.25 4.17187 502.227 3.78125 503.086 3.78125C504.102 3.78125 505.078 4.17187 506.016 4.95312C509.375 7.53125 512.188 9.95313 514.453 12.2188C516.797 14.4844 518.789 16.7109 520.43 18.8984C521.211 19.9141 521.602 21.3594 521.602 23.2344V151.789C521.602 156.945 522.031 161.359 522.891 165.031C523.75 168.625 524.766 171.516 525.938 173.703C527.266 176.281 526.758 178.117 524.414 179.211L499.922 190.461ZM611.25 190.93C591.562 190.93 575.977 185.695 564.492 175.227C553.008 164.758 547.266 149.172 547.266 128.469C547.266 107.219 553.203 91.3594 565.078 80.8906C577.031 70.3438 592.969 65.0703 612.891 65.0703C632.109 65.0703 647.5 70.2656 659.062 80.6562C670.625 90.9688 676.406 106.203 676.406 126.359C676.406 147.375 670.625 163.391 659.062 174.406C647.5 185.422 631.562 190.93 611.25 190.93ZM612.422 162.57C621.016 162.57 627.5 159.914 631.875 154.602C636.25 149.211 638.438 140.031 638.438 127.062C638.438 114.719 636.211 106.047 631.758 101.047C627.383 95.9688 620.859 93.4297 612.188 93.4297C603.828 93.4297 597.227 96.1641 592.383 101.633C587.617 107.023 585.234 115.812 585.234 128C585.234 140.734 587.5 149.68 592.031 154.836C596.641 159.992 603.438 162.57 612.422 162.57ZM726.914 177.102C722.617 170.305 718.359 162.492 714.141 153.664C710 144.758 706.211 135.773 702.773 126.711C699.414 117.57 696.719 109.25 694.688 101.75C692.656 94.1719 691.641 88.3516 691.641 84.2891C691.641 82.7266 692.07 81.4375 692.93 80.4219C696.523 75.9688 701.641 71.3203 708.281 66.4766C709.453 65.6953 710.508 65.3047 711.445 65.3047C712.461 65.3047 713.516 65.6953 714.609 66.4766C718.203 69.0547 721.211 71.4766 723.633 73.7422C726.133 76.0078 728.242 78.2344 729.961 80.4219C730.82 81.4375 731.25 82.8828 731.25 84.7578V84.1719C731.25 89.25 732.148 95.9297 733.945 104.211C735.82 112.414 738.359 121.086 741.562 130.227C744.766 139.367 748.477 147.766 752.695 155.422H753.281C756.797 149.641 759.922 143.391 762.656 136.672C765.391 129.953 767.695 123.234 769.57 116.516C771.445 109.797 772.852 103.625 773.789 98C774.805 92.375 775.312 87.8047 775.312 84.2891V84.7578C775.312 82.8828 775.703 81.4375 776.484 80.4219C778.281 78.2344 780.391 76.0078 782.812 73.7422C785.234 71.4766 788.164 69.0547 791.602 66.4766C792.695 65.6953 793.711 65.3047 794.648 65.3047C795.742 65.3047 796.758 65.6953 797.695 66.4766C801.211 69.0547 804.18 71.4766 806.602 73.7422C809.023 76.0078 811.094 78.2344 812.812 80.4219C813.594 81.4375 813.984 82.8047 813.984 84.5234C813.906 88.7422 812.812 94.6797 810.703 102.336C808.594 109.914 805.742 118.273 802.148 127.414C798.633 136.477 794.688 145.422 790.312 154.25C785.938 163 781.484 170.617 776.953 177.102C774.219 181.086 771.758 183.898 769.57 185.539C767.383 187.18 763.594 188 758.203 188H745.781C740.156 188 736.25 187.219 734.062 185.656C731.953 184.094 729.57 181.242 726.914 177.102ZM691.641 84.1719V84.2891C691.641 84.4453 691.641 84.6016 691.641 84.7578V84.1719ZM813.984 84.2891V84.7578V84.5234C813.984 84.4453 813.984 84.3672 813.984 84.2891ZM894.492 190.93C881.289 190.93 869.805 188.82 860.039 184.602C850.273 180.305 842.695 173.664 837.305 164.68C831.914 155.695 829.219 144.094 829.219 129.875C829.219 108.547 834.688 92.4141 845.625 81.4766C856.562 70.5391 871.094 65.0703 889.219 65.0703C901.016 65.0703 910.977 67.1797 919.102 71.3984C927.305 75.6172 933.516 81.4375 937.734 88.8594C942.031 96.2812 944.18 104.758 944.18 114.289C944.18 123.586 941.797 130.07 937.031 133.742C932.266 137.414 925.312 139.25 916.172 139.25H865.898C866.523 147.297 869.453 153.43 874.688 157.648C880 161.867 887.188 163.977 896.25 163.977C903.438 163.977 909.18 162.922 913.477 160.812C917.852 158.625 920.898 156.906 922.617 155.656C924.102 154.562 925.781 154.055 927.656 154.133C929.141 154.133 931.25 154.445 933.984 155.07C936.797 155.617 939.57 156.672 942.305 158.234C944.258 159.25 945.234 160.656 945.234 162.453C945.234 163.469 945.039 164.914 944.648 166.789C944.414 167.883 944.023 169.484 943.477 171.594C942.93 173.625 942.227 175.539 941.367 177.336C940.898 178.195 940.156 179.016 939.141 179.797C937.578 180.891 935.039 182.336 931.523 184.133C928.086 185.93 923.359 187.492 917.344 188.82C911.328 190.227 903.711 190.93 894.492 190.93ZM865.664 115.227H903.867C907.852 115.227 909.844 113.391 909.844 109.719C909.844 104.172 908.086 99.5234 904.57 95.7734C901.133 91.9453 895.938 90.0312 888.984 90.0312C881.406 90.0312 875.82 92.4531 872.227 97.2969C868.711 102.141 866.523 108.117 865.664 115.227ZM1006.99 90.2656H1007.46C1013.32 74.0156 1023.87 65.8906 1039.1 65.8906C1041.05 65.8906 1042.66 66.0078 1043.91 66.2422C1045.16 66.3984 1046.02 66.5547 1046.48 66.7109C1047.66 67.1016 1048.24 68 1048.24 69.4062V97.6484C1048.24 100.07 1046.84 100.734 1044.02 99.6406C1043.09 99.25 1041.72 98.8594 1039.92 98.4688C1038.2 98 1035.78 97.7656 1032.66 97.7656C1024.61 97.7656 1018.32 100.734 1013.79 106.672C1009.26 112.531 1006.99 120.539 1006.99 130.695V181.789C1006.99 184.133 1006.48 185.773 1005.47 186.711C1004.53 187.57 1002.89 188 1000.55 188H976.406C974.062 188 972.383 187.57 971.367 186.711C970.43 185.773 969.961 184.133 969.961 181.789V83.5859C969.961 81.7109 970.352 80.2656 971.133 79.25C972.773 77.0625 974.727 74.8359 976.992 72.5703C979.336 70.3047 982.188 67.8828 985.547 65.3047C986.172 64.8359 986.797 64.5234 987.422 64.3672C988.047 64.2109 988.594 64.1328 989.062 64.1328C990.156 64.1328 991.25 64.5234 992.344 65.3047C998.828 70.3828 1003.36 74.7188 1005.94 78.3125C1006.64 79.25 1006.99 80.3438 1006.99 81.5938V90.2656Z" fill="white"/>
<path d="M341 267.2H423.3V346.3H415.5V274.4H348.6V347.1H341V267.2ZM345 332.7H419.7V340H345V332.7ZM387.8 272H395.1V303.8C395.1 305.867 395.367 307.033 395.9 307.3C396.5 307.567 397.4 307.7 398.6 307.7C399.067 307.7 399.767 307.7 400.7 307.7C401.7 307.7 402.533 307.7 403.2 307.7C403.867 307.7 404.5 307.667 405.1 307.6C405.767 307.533 406.267 307.467 406.6 307.4C406.933 307.2 407.233 306.933 407.5 306.6C407.767 306.2 407.967 305.633 408.1 304.9C408.3 304.167 408.4 303 408.4 301.4C408.467 299.8 408.533 297.9 408.6 295.7C409.333 296.3 410.233 296.9 411.3 297.5C412.433 298.033 413.467 298.467 414.4 298.8C414.333 300.867 414.2 302.933 414 305C413.867 307.067 413.633 308.567 413.3 309.5C412.967 310.367 412.5 311.1 411.9 311.7C411.367 312.233 410.7 312.7 409.9 313.1C409.167 313.433 408.2 313.667 407 313.8C405.867 313.933 404.767 314 403.7 314C403.233 314 402.533 314 401.6 314C400.733 314 399.833 314 398.9 314C398.033 314 397.367 314 396.9 314C395.767 314 394.567 313.867 393.3 313.6C392.1 313.333 391.1 312.867 390.3 312.2C389.367 311.6 388.7 310.7 388.3 309.5C387.967 308.3 387.8 306.2 387.8 303.2V272ZM367.4 271.7H374.7C374.367 279.167 373.667 286 372.6 292.2C371.6 298.333 369.733 303.767 367 308.5C364.267 313.233 360.2 317.167 354.8 320.3C354.4 319.433 353.7 318.467 352.7 317.4C351.767 316.333 350.9 315.467 350.1 314.8C354.9 312.067 358.5 308.633 360.9 304.5C363.3 300.3 364.9 295.467 365.7 290C366.567 284.467 367.133 278.367 367.4 271.7ZM468.7 292.3H528.2V299.7H468.7V292.3ZM493.8 259.8H501.6V350H493.8V259.8ZM443.5 268.6H469.3V324.7H443.5V317.7H462.2V275.6H443.5V268.6ZM439.5 268.6H446.5V332.7H439.5V268.6ZM537.6 326.6H626.7V333.4H537.6V326.6ZM577.9 313.7H585.4V349.8H577.9V313.7ZM556.4 302.1V310.9H607.4V302.1H556.4ZM556.4 287.8V296.4H607.4V287.8H556.4ZM549.2 281.8H615V316.9H549.2V281.8ZM561.1 258H568.4V279.9H561.1V258ZM595.4 258H602.7V279.9H595.4V258ZM538.2 265.4H626.1V272.2H538.2V265.4ZM697.9 258.7H704.8V338.2H697.9V258.7ZM676.4 280.2H728.9V286H676.4V280.2ZM678.6 320.9H726.9V326.7H678.6V320.9ZM681.6 307.2H724.1V313.1H681.6V307.2ZM659 266.3H673.5V272.5H659V266.3ZM662.7 294.3H675.5V300.2H662.7V294.3ZM671.8 266.3H672.8L673.9 265.9L678.7 267.3C677.367 270.767 675.767 274.667 673.9 279C672.033 283.333 670.1 287.767 668.1 292.3C666.167 296.767 664.267 300.967 662.4 304.9L656.1 303.3C657.5 300.433 658.933 297.333 660.4 294C661.933 290.667 663.4 287.333 664.8 284C666.267 280.667 667.6 277.567 668.8 274.7C670 271.767 671 269.267 671.8 267.2V266.3ZM673.6 294.3H674.8L676 294.1L680.1 294.9C678.9 308.767 676.5 320.133 672.9 329C669.3 337.867 664.4 344.733 658.2 349.6C657.867 349.067 657.433 348.467 656.9 347.8C656.433 347.133 655.933 346.467 655.4 345.8C654.867 345.133 654.333 344.6 653.8 344.2C657.4 341.533 660.567 337.933 663.3 333.4C666.033 328.8 668.267 323.333 670 317C671.733 310.667 672.933 303.533 673.6 295.6V294.3ZM663.2 308.3C664.533 315.033 666.3 320.567 668.5 324.9C670.767 329.233 673.467 332.6 676.6 335C679.8 337.333 683.433 339 687.5 340C691.633 340.933 696.233 341.4 701.3 341.4C701.967 341.4 703.2 341.4 705 341.4C706.8 341.4 708.867 341.4 711.2 341.4C713.6 341.4 716 341.4 718.4 341.4C720.867 341.333 723.067 341.3 725 341.3C726.933 341.3 728.3 341.267 729.1 341.2C728.767 341.8 728.4 342.5 728 343.3C727.667 344.167 727.367 345.033 727.1 345.9C726.833 346.767 726.633 347.5 726.5 348.1H721.6H701.1C695.1 348.1 689.733 347.533 685 346.4C680.333 345.333 676.233 343.433 672.7 340.7C669.167 337.9 666.133 334.033 663.6 329.1C661.067 324.167 659 317.833 657.4 310.1L663.2 308.3ZM683.2 266.7H722.8V299.6H683.2V293.8H716.3V272.5H683.2V266.7ZM653.7 258.5L660.5 260.4C658.833 265.933 656.8 271.4 654.4 276.8C652.067 282.2 649.5 287.3 646.7 292.1C643.9 296.833 640.933 301.067 637.8 304.8C637.6 304.2 637.267 303.433 636.8 302.5C636.333 301.567 635.867 300.6 635.4 299.6C634.933 298.6 634.5 297.8 634.1 297.2C638.233 292.467 642 286.7 645.4 279.9C648.8 273.033 651.567 265.9 653.7 258.5ZM646.7 283.8L653.3 277.2L653.4 277.4V349.8H646.7V283.8ZM753.5 294.7H828V300.4H753.5V294.7ZM760.5 281.8H818.1V313.7H759.7V308.2H811V287.3H760.5V281.8ZM784 274.6H791.2V341.4C791.2 343.733 790.867 345.433 790.2 346.5C789.6 347.633 788.5 348.467 786.9 349C785.3 349.533 783.133 349.833 780.4 349.9C777.667 350.033 774.233 350.1 770.1 350.1C769.9 349.233 769.567 348.133 769.1 346.8C768.7 345.533 768.2 344.433 767.6 343.5C769.733 343.567 771.733 343.6 773.6 343.6C775.533 343.667 777.2 343.667 778.6 343.6C780.067 343.6 781.1 343.6 781.7 343.6C782.567 343.6 783.167 343.433 783.5 343.1C783.833 342.767 784 342.2 784 341.4V274.6ZM756 319L760.3 315C762.033 315.933 763.833 317.033 765.7 318.3C767.567 319.5 769.333 320.7 771 321.9C772.733 323.1 774.133 324.233 775.2 325.3L770.6 329.8C769.6 328.733 768.267 327.567 766.6 326.3C764.933 325.033 763.167 323.767 761.3 322.5C759.433 321.167 757.667 320 756 319ZM816.9 315.4L822.5 319.9C819.433 322.1 816.1 324.3 812.5 326.5C808.9 328.633 805.567 330.467 802.5 332L798.2 328.1C800.2 327.1 802.333 325.867 804.6 324.4C806.933 322.867 809.167 321.333 811.3 319.8C813.5 318.2 815.367 316.733 816.9 315.4ZM792.9 311.6C795.5 319.2 799.633 325.733 805.3 331.2C810.967 336.667 817.867 340.567 826 342.9C825.2 343.567 824.333 344.5 823.4 345.7C822.533 346.9 821.867 348 821.4 349C813 346.067 805.9 341.533 800.1 335.4C794.367 329.2 790.033 321.767 787.1 313.1L792.9 311.6ZM750.7 340C754.1 338.867 758.2 337.433 763 335.7C767.867 333.9 772.8 332.067 777.8 330.2L779.1 335.8C774.767 337.6 770.433 339.4 766.1 341.2C761.833 343 757.867 344.6 754.2 346L750.7 340ZM781.1 258H788.8V270.8H781.1V258ZM747.4 267.2H826.9V273.9H747.4V267.2ZM743.8 267.2H751V296.8C751 300.733 750.867 305 750.6 309.6C750.4 314.2 749.967 318.933 749.3 323.8C748.633 328.6 747.633 333.3 746.3 337.9C745.033 342.433 743.367 346.6 741.3 350.4C740.833 349.933 740.233 349.433 739.5 348.9C738.767 348.367 738 347.867 737.2 347.4C736.4 346.933 735.7 346.567 735.1 346.3C737.167 342.7 738.767 338.8 739.9 334.6C741.033 330.4 741.867 326.1 742.4 321.7C743 317.233 743.367 312.9 743.5 308.7C743.7 304.433 743.8 300.467 743.8 296.8V267.2ZM878.6 280.7H921V287.8H878.6V280.7ZM917.7 280.7H924.9C924.9 280.7 924.9 280.967 924.9 281.5C924.9 281.967 924.9 282.5 924.9 283.1C924.9 283.633 924.9 284.067 924.9 284.4C924.633 295 924.367 303.967 924.1 311.3C923.833 318.567 923.5 324.533 923.1 329.2C922.767 333.8 922.3 337.367 921.7 339.9C921.1 342.433 920.4 344.233 919.6 345.3C918.667 346.633 917.633 347.567 916.5 348.1C915.367 348.633 914 349 912.4 349.2C910.867 349.333 908.833 349.367 906.3 349.3C903.833 349.3 901.267 349.233 898.6 349.1C898.533 348.033 898.3 346.8 897.9 345.4C897.5 344.067 896.967 342.9 896.3 341.9C899.167 342.1 901.8 342.233 904.2 342.3C906.6 342.367 908.3 342.4 909.3 342.4C910.167 342.4 910.9 342.3 911.5 342.1C912.1 341.9 912.633 341.5 913.1 340.9C913.767 340.1 914.333 338.5 914.8 336.1C915.267 333.7 915.667 330.267 916 325.8C916.4 321.267 916.733 315.433 917 308.3C917.267 301.167 917.5 292.5 917.7 282.3V280.7ZM895.3 258H902.6C902.6 265.667 902.5 273.2 902.3 280.6C902.1 287.933 901.567 295 900.7 301.8C899.833 308.6 898.4 315 896.4 321C894.467 326.933 891.733 332.367 888.2 337.3C884.667 342.233 880.133 346.533 874.6 350.2C874 349.267 873.167 348.267 872.1 347.2C871.033 346.133 870.033 345.267 869.1 344.6C874.433 341.267 878.767 337.333 882.1 332.8C885.433 328.2 888 323.1 889.8 317.5C891.667 311.833 892.967 305.8 893.7 299.4C894.433 293 894.867 286.333 895 279.4C895.2 272.4 895.3 265.267 895.3 258ZM842.6 262.9H875.3V328H868.2V269.7H849.4V334.3H842.6V262.9ZM835.4 332.5C839.133 331.767 843.467 330.9 848.4 329.9C853.333 328.9 858.567 327.8 864.1 326.6C869.7 325.4 875.267 324.2 880.8 323L881.4 329.8C876.133 331 870.833 332.233 865.5 333.5C860.167 334.767 855.033 335.967 850.1 337.1C845.233 338.233 840.8 339.267 836.8 340.2L835.4 332.5ZM846.2 284.4H871.5V291.1H846.2V284.4ZM846.2 305.8H871.5V312.5H846.2V305.8ZM1011.8 258.1L1017.3 264.2C1012.83 265.533 1007.7 266.733 1001.9 267.8C996.167 268.8 990.067 269.667 983.6 270.4C977.2 271.133 970.733 271.733 964.2 272.2C957.733 272.667 951.467 273 945.4 273.2C945.267 272.267 945 271.167 944.6 269.9C944.267 268.567 943.933 267.5 943.6 266.7C949.533 266.367 955.7 265.967 962.1 265.5C968.5 265.033 974.767 264.467 980.9 263.8C987.033 263.067 992.733 262.233 998 261.3C1003.33 260.367 1007.93 259.3 1011.8 258.1ZM943.7 286.4H1021.6V293.6H943.7V286.4ZM937 309.8H1027.3V317.2H937V309.8ZM978.3 268.8H986V339.5C986 342.167 985.567 344.133 984.7 345.4C983.9 346.733 982.567 347.7 980.7 348.3C978.767 348.9 976.1 349.267 972.7 349.4C969.367 349.6 965.067 349.667 959.8 349.6C959.6 348.867 959.333 348.033 959 347.1C958.667 346.233 958.267 345.333 957.8 344.4C957.4 343.533 957 342.8 956.6 342.2C959.4 342.267 962.067 342.3 964.6 342.3C967.133 342.3 969.333 342.3 971.2 342.3C973.067 342.3 974.4 342.3 975.2 342.3C976.333 342.233 977.133 342 977.6 341.6C978.067 341.2 978.3 340.5 978.3 339.5V268.8Z" fill="white"/>
<path d="M126.783 122.52C116.393 91.5098 88.2869 60.5857 99.1848 28.7809C110.043 -2.90783 157.03 -1.26263 162.063 30.7925C183.771 6.67434 224.046 30.9313 215.856 63.4119C207.637 96.0131 167.21 106.594 141.584 126.914C172.594 116.525 203.518 88.4174 235.323 99.3171C267.014 110.174 265.369 157.161 233.311 162.193C257.43 183.902 233.031 224.719 200.694 215.986C172.537 208.383 167.247 180.924 146.744 154.215C181.048 211.918 206.479 272.029 210.522 330.109C202.31 329.459 196.089 330.006 193.779 329.977C199.29 279.476 174.822 216.998 142.266 155.928C155.678 193.108 173.818 207.639 164.789 235.455C154.446 267.315 106.944 265.499 101.911 233.443C80.2041 257.561 39.9296 233.306 48.1183 200.825C56.3374 168.223 96.7648 157.641 122.39 137.32C91.38 147.711 60.4556 175.819 28.6499 164.92C-3.03858 154.061 -1.39407 107.074 30.6617 102.043C6.54313 80.3348 30.7996 40.0606 63.2804 48.2502C95.8814 56.4693 106.463 96.896 126.783 122.52Z" fill="#34C759" stroke="#1B5E20" stroke-width="10.7505"/>
</svg>
