<svg width="1951" height="675" viewBox="0 0 1951 675" fill="none" xmlns="http://www.w3.org/2000/svg">
<path d="M245.5 635.459V634.411C245.238 635.896 244.539 637.555 243.404 639.389C242.356 641.136 241.177 642.62 239.867 643.843C238.557 645.066 236.679 646.157 234.234 647.118C231.876 648.079 228.732 648.559 224.802 648.559C220.872 648.559 217.16 647.686 213.667 645.939C210.174 644.105 207.466 641.616 205.545 638.472C201.877 632.621 200.043 626.202 200.043 619.215C200.043 612.141 201.047 601.705 203.056 587.906H228.47V616.202C228.47 625.809 231.308 630.612 236.985 630.612C239.518 630.612 241.395 629.477 242.618 627.206C243.841 624.935 244.452 622.053 244.452 618.56C244.452 618.123 244.452 617.643 244.452 617.119L243.273 587.906H272.748L270.914 628.123C270.652 633.8 270.215 638.647 269.604 642.664C269.08 646.681 268.032 650.786 266.46 654.978C264.975 659.257 263.01 662.707 260.565 665.327C254.888 671.266 246.461 674.235 235.282 674.235C227.422 674.235 220.042 671.79 213.143 666.899L211.964 666.113L217.466 654.847C221.658 656.768 225.588 657.729 229.256 657.729C234.321 657.729 238.295 655.764 241.177 651.834C244.059 647.991 245.5 642.533 245.5 635.459ZM290.086 643.581C283.798 638.341 280.654 630.044 280.654 618.691C280.654 607.338 283.798 599.085 290.086 593.932C296.461 588.692 304.933 586.072 315.5 586.072C326.067 586.072 334.495 588.692 340.783 593.932C347.158 599.085 350.346 607.338 350.346 618.691C350.346 630.044 347.158 638.341 340.783 643.581C334.495 648.734 326.067 651.31 315.5 651.31C304.933 651.31 296.461 648.734 290.086 643.581ZM309.998 603.888C308.95 606.857 308.426 611.792 308.426 618.691C308.426 625.59 308.95 630.568 309.998 633.625C311.046 636.594 312.88 638.079 315.5 638.079C318.12 638.079 319.954 636.594 321.002 633.625C322.05 630.568 322.574 625.59 322.574 618.691C322.574 611.792 322.05 606.857 321.002 603.888C319.954 600.831 318.12 599.303 315.5 599.303C312.88 599.303 311.046 600.831 309.998 603.888ZM383.624 651.31C367.118 651.31 358.865 640.088 358.865 617.643C358.865 611.617 359.87 601.705 361.878 587.906H387.292V616.202C387.292 626.333 390.131 631.398 395.807 631.398C400.785 631.398 403.274 626.857 403.274 617.774C403.274 617.075 403.274 616.333 403.274 615.547L402.095 587.906H431.57L428.819 650H406.68L405.239 637.948C405.065 638.297 404.846 638.778 404.584 639.389C404.322 640 403.58 641.092 402.357 642.664C401.222 644.149 399.912 645.502 398.427 646.725C396.943 647.86 394.89 648.908 392.27 649.869C389.65 650.83 386.768 651.31 383.624 651.31ZM469.853 596.421C474.482 589.522 480.202 586.072 487.014 586.072C490.245 586.072 493.215 586.858 495.922 588.43L492.778 609.914C489.285 607.469 485.355 606.246 480.988 606.246C476.796 606.246 473.958 607.993 472.473 611.486C471.6 613.669 471.032 615.765 470.77 617.774L468.281 650H444.701L440.771 587.906H466.578L469.853 596.421ZM559.898 564.981L556.361 650H532.257L528.72 564.981H559.898ZM600.227 589.74L602.454 588.954L598 650H573.241L569.049 588.954C574.027 590.963 579.31 591.967 584.9 591.967C590.576 591.967 595.685 591.225 600.227 589.74ZM585.686 586.203C581.319 586.203 577.651 584.893 574.682 582.273C571.712 579.653 570.228 576.247 570.228 572.055C570.228 567.776 571.669 564.37 574.551 561.837C577.52 559.217 581.188 557.907 585.555 557.907C590.009 557.907 593.72 559.217 596.69 561.837C599.659 564.457 601.144 567.863 601.144 572.055C601.144 576.247 599.659 579.653 596.69 582.273C593.72 584.893 590.052 586.203 585.686 586.203ZM618.23 587.906C618.23 579.871 620.108 573.758 623.863 569.566C627.706 565.287 634.168 563.147 643.251 563.147C647.268 563.147 651.111 563.715 654.779 564.85L656.22 577.557C654.91 577.208 653.6 577.033 652.29 577.033C648.011 577.033 645.871 580.09 645.871 586.203V587.906H653.862L655.434 604.936H646.657L644.692 650H620.588L618.623 604.936H610.37L611.942 587.906H618.23ZM698.225 651.31C688.356 651.31 680.06 648.472 673.335 642.795C666.698 637.031 663.379 628.603 663.379 617.512C663.379 610.525 665.082 604.587 668.488 599.696C674.689 590.613 684.295 586.072 697.308 586.072C707.264 586.072 714.862 588.081 720.102 592.098C725.342 596.028 727.962 601.486 727.962 608.473C727.962 613.888 725.779 618.298 721.412 621.704C717.133 625.023 710.845 626.682 702.548 626.682C699.142 626.682 696.085 626.42 693.378 625.896L691.937 625.634C692.374 628.778 693.727 631.136 695.998 632.708C698.356 634.193 701.151 634.935 704.382 634.935C709.709 634.935 714.251 633.319 718.006 630.088L726.128 639.913C724.731 641.572 723.071 643.144 721.15 644.629C719.229 646.026 716.172 647.511 711.98 649.083C707.788 650.568 703.203 651.31 698.225 651.31ZM708.836 607.294C708.836 605.547 708.137 604.106 706.74 602.971C705.43 601.836 703.596 601.268 701.238 601.268C698.88 601.268 696.653 602.316 694.557 604.412C692.548 606.508 691.544 608.997 691.544 611.879C693.465 612.752 695.954 613.189 699.011 613.189C702.155 613.189 704.557 612.665 706.216 611.617C707.963 610.482 708.836 609.041 708.836 607.294ZM816.539 586.072C821.517 586.072 825.578 587.557 828.722 590.526C831.866 593.408 833.962 596.901 835.01 601.006C836.146 605.111 836.713 610.351 836.713 616.726C836.713 623.101 835.709 634.193 833.7 650H810.775L807.893 619.608C807.369 614.368 806.671 610.875 805.797 609.128C804.924 607.381 803.439 606.508 801.343 606.508C796.191 606.508 793.396 610.918 792.959 619.739L791.649 650H767.545L764.008 564.981H795.186L793.876 599.041C796.671 593.452 801.3 589.565 807.762 587.382C810.47 586.509 813.395 586.072 816.539 586.072ZM880.105 651.31C870.236 651.31 861.94 648.472 855.215 642.795C848.578 637.031 845.259 628.603 845.259 617.512C845.259 610.525 846.962 604.587 850.368 599.696C856.569 590.613 866.175 586.072 879.188 586.072C889.144 586.072 896.742 588.081 901.982 592.098C907.222 596.028 909.842 601.486 909.842 608.473C909.842 613.888 907.659 618.298 903.292 621.704C899.013 625.023 892.725 626.682 884.428 626.682C881.022 626.682 877.965 626.42 875.258 625.896L873.817 625.634C874.254 628.778 875.607 631.136 877.878 632.708C880.236 634.193 883.031 634.935 886.262 634.935C891.589 634.935 896.131 633.319 899.886 630.088L908.008 639.913C906.611 641.572 904.951 643.144 903.03 644.629C901.109 646.026 898.052 647.511 893.86 649.083C889.668 650.568 885.083 651.31 880.105 651.31ZM890.716 607.294C890.716 605.547 890.017 604.106 888.62 602.971C887.31 601.836 885.476 601.268 883.118 601.268C880.76 601.268 878.533 602.316 876.437 604.412C874.428 606.508 873.424 608.997 873.424 611.879C875.345 612.752 877.834 613.189 880.891 613.189C884.035 613.189 886.437 612.665 888.096 611.617C889.843 610.482 890.716 609.041 890.716 607.294ZM940.754 651.31C934.029 651.31 928.484 649.345 924.117 645.415C919.838 641.485 917.698 635.939 917.698 628.778C917.698 621.529 920.143 616.289 925.034 613.058C929.925 609.739 935.82 608.08 942.719 608.08C949.618 608.08 955.601 609.172 960.666 611.355C959.531 604.106 954.946 600.482 946.911 600.482C943.243 600.482 938.702 601.224 933.287 602.709L930.012 590.919C937.872 587.688 945.863 586.072 953.985 586.072C977.39 586.072 989.093 596.028 989.093 615.94C989.093 622.752 988.307 632.184 986.735 644.236L986.08 650H964.465L963.679 642.795C957.74 648.472 950.099 651.31 940.754 651.31ZM952.544 635.066C956.474 635.066 959.836 633.974 962.631 631.791L961.845 623.145C959.662 621.66 957.216 620.918 954.509 620.918C951.889 620.918 949.706 621.573 947.959 622.883C946.3 624.193 945.47 625.809 945.47 627.73C945.47 629.651 946.125 631.354 947.435 632.839C948.745 634.324 950.448 635.066 952.544 635.066ZM1029.39 564.981L1025.85 650H1001.75L998.212 564.981H1029.39ZM1073.26 626.682C1073.17 631.747 1074.96 634.28 1078.63 634.28C1079.67 634.28 1080.94 633.8 1082.43 632.839L1085.18 645.546C1084.65 645.983 1083.91 646.55 1082.95 647.249C1082.08 647.86 1080.11 648.69 1077.05 649.738C1074.09 650.786 1070.98 651.31 1067.75 651.31C1061.81 651.31 1056.97 649.301 1053.21 645.284C1049.46 641.179 1047.45 635.983 1047.19 629.695L1046.01 604.936H1035.92L1037.49 587.906H1045.35L1044.83 575.068L1075.88 568.78L1074.96 587.906H1082.56L1084.13 604.936H1074.17L1073.26 626.682ZM1146.88 586.072C1151.86 586.072 1155.92 587.557 1159.06 590.526C1162.21 593.408 1164.3 596.901 1165.35 601.006C1166.49 605.111 1167.05 610.351 1167.05 616.726C1167.05 623.101 1166.05 634.193 1164.04 650H1141.12L1138.23 619.608C1137.71 614.368 1137.01 610.875 1136.14 609.128C1135.26 607.381 1133.78 606.508 1131.68 606.508C1126.53 606.508 1123.74 610.918 1123.3 619.739L1121.99 650H1097.89L1094.35 564.981H1125.53L1124.22 599.041C1127.01 593.452 1131.64 589.565 1138.1 587.382C1140.81 586.509 1143.74 586.072 1146.88 586.072ZM1226.19 651.31C1219.47 651.31 1213.92 649.345 1209.55 645.415C1205.27 641.485 1203.13 635.939 1203.13 628.778C1203.13 621.529 1205.58 616.289 1210.47 613.058C1215.36 609.739 1221.26 608.08 1228.16 608.08C1235.06 608.08 1241.04 609.172 1246.1 611.355C1244.97 604.106 1240.38 600.482 1232.35 600.482C1228.68 600.482 1224.14 601.224 1218.72 602.709L1215.45 590.919C1223.31 587.688 1231.3 586.072 1239.42 586.072C1262.83 586.072 1274.53 596.028 1274.53 615.94C1274.53 622.752 1273.74 632.184 1272.17 644.236L1271.52 650H1249.9L1249.12 642.795C1243.18 648.472 1235.54 651.31 1226.19 651.31ZM1237.98 635.066C1241.91 635.066 1245.27 633.974 1248.07 631.791L1247.28 623.145C1245.1 621.66 1242.65 620.918 1239.95 620.918C1237.33 620.918 1235.14 621.573 1233.4 622.883C1231.74 624.193 1230.91 625.809 1230.91 627.73C1230.91 629.651 1231.56 631.354 1232.87 632.839C1234.18 634.324 1235.88 635.066 1237.98 635.066ZM1314.83 589.74L1317.05 588.954L1312.6 650H1287.84L1283.65 588.954C1288.63 590.963 1293.91 591.967 1299.5 591.967C1305.18 591.967 1310.29 591.225 1314.83 589.74ZM1300.29 586.203C1295.92 586.203 1292.25 584.893 1289.28 582.273C1286.31 579.653 1284.83 576.247 1284.83 572.055C1284.83 567.776 1286.27 564.37 1289.15 561.837C1292.12 559.217 1295.79 557.907 1300.15 557.907C1304.61 557.907 1308.32 559.217 1311.29 561.837C1314.26 564.457 1315.74 567.863 1315.74 572.055C1315.74 576.247 1314.26 579.653 1311.29 582.273C1308.32 584.893 1304.65 586.203 1300.29 586.203ZM1376.22 651.31C1369.49 651.31 1363.95 649.345 1359.58 645.415C1355.3 641.485 1353.16 635.939 1353.16 628.778C1353.16 621.529 1355.61 616.289 1360.5 613.058C1365.39 609.739 1371.28 608.08 1378.18 608.08C1385.08 608.08 1391.06 609.172 1396.13 611.355C1394.99 604.106 1390.41 600.482 1382.37 600.482C1378.71 600.482 1374.16 601.224 1368.75 602.709L1365.47 590.919C1373.33 587.688 1381.33 586.072 1389.45 586.072C1412.85 586.072 1424.56 596.028 1424.56 615.94C1424.56 622.752 1423.77 632.184 1422.2 644.236L1421.54 650H1399.93L1399.14 642.795C1393.2 648.472 1385.56 651.31 1376.22 651.31ZM1388.01 635.066C1391.94 635.066 1395.3 633.974 1398.09 631.791L1397.31 623.145C1395.12 621.66 1392.68 620.918 1389.97 620.918C1387.35 620.918 1385.17 621.573 1383.42 622.883C1381.76 624.193 1380.93 625.809 1380.93 627.73C1380.93 629.651 1381.59 631.354 1382.9 632.839C1384.21 634.324 1385.91 635.066 1388.01 635.066ZM1490.53 630.35C1490.53 635.328 1488.87 639.476 1485.55 642.795C1482.23 646.114 1478.39 648.384 1474.02 649.607C1469.74 650.742 1465.59 651.31 1461.58 651.31C1457.56 651.31 1454.02 651.048 1450.97 650.524C1448 650 1445.46 649.389 1443.37 648.69C1439.53 647.205 1436.47 645.808 1434.2 644.498L1433.02 643.712L1438.78 631.791C1444.02 634.76 1448.43 636.245 1452.01 636.245C1455.59 636.245 1457.39 634.76 1457.39 631.791C1457.39 630.306 1456.25 628.778 1453.98 627.206C1451.71 625.634 1449.22 624.149 1446.51 622.752C1443.89 621.355 1441.45 619.215 1439.18 616.333C1436.91 613.451 1435.77 610.132 1435.77 606.377C1435.77 599.652 1438.3 594.587 1443.37 591.181C1448.43 587.775 1455.11 586.072 1463.41 586.072C1467.6 586.072 1471.71 586.421 1475.73 587.12C1479.74 587.819 1482.76 588.517 1484.76 589.216L1487.65 590.395L1484.37 603.626C1479.39 601.792 1475.16 600.875 1471.66 600.875C1468.17 600.875 1466.42 602.229 1466.42 604.936C1466.42 606.246 1467.25 607.512 1468.91 608.735C1470.57 609.87 1472.58 611.006 1474.94 612.141C1477.3 613.276 1479.66 614.586 1482.01 616.071C1484.37 617.468 1486.38 619.433 1488.04 621.966C1489.7 624.411 1490.53 627.206 1490.53 630.35ZM1555.93 630.35C1555.93 635.328 1554.27 639.476 1550.95 642.795C1547.63 646.114 1543.79 648.384 1539.42 649.607C1535.15 650.742 1531 651.31 1526.98 651.31C1522.96 651.31 1519.43 651.048 1516.37 650.524C1513.4 650 1510.87 649.389 1508.77 648.69C1504.93 647.205 1501.87 645.808 1499.6 644.498L1498.42 643.712L1504.19 631.791C1509.43 634.76 1513.84 636.245 1517.42 636.245C1521 636.245 1522.79 634.76 1522.79 631.791C1522.79 630.306 1521.65 628.778 1519.38 627.206C1517.11 625.634 1514.62 624.149 1511.91 622.752C1509.29 621.355 1506.85 619.215 1504.58 616.333C1502.31 613.451 1501.17 610.132 1501.17 606.377C1501.17 599.652 1503.71 594.587 1508.77 591.181C1513.84 587.775 1520.52 586.072 1528.81 586.072C1533.01 586.072 1537.11 586.421 1541.13 587.12C1545.15 587.819 1548.16 588.517 1550.17 589.216L1553.05 590.395L1549.77 603.626C1544.8 601.792 1540.56 600.875 1537.07 600.875C1533.57 600.875 1531.83 602.229 1531.83 604.936C1531.83 606.246 1532.66 607.512 1534.32 608.735C1535.98 609.87 1537.98 611.006 1540.34 612.141C1542.7 613.276 1545.06 614.586 1547.42 616.071C1549.77 617.468 1551.78 619.433 1553.44 621.966C1555.1 624.411 1555.93 627.206 1555.93 630.35ZM1595.66 589.74L1597.88 588.954L1593.43 650H1568.67L1564.48 588.954C1569.46 590.963 1574.74 591.967 1580.33 591.967C1586.01 591.967 1591.12 591.225 1595.66 589.74ZM1581.12 586.203C1576.75 586.203 1573.08 584.893 1570.11 582.273C1567.14 579.653 1565.66 576.247 1565.66 572.055C1565.66 567.776 1567.1 564.37 1569.98 561.837C1572.95 559.217 1576.62 557.907 1580.99 557.907C1585.44 557.907 1589.15 559.217 1592.12 561.837C1595.09 564.457 1596.57 567.863 1596.57 572.055C1596.57 576.247 1595.09 579.653 1592.12 582.273C1589.15 584.893 1585.48 586.203 1581.12 586.203ZM1663.96 630.35C1663.96 635.328 1662.31 639.476 1658.99 642.795C1655.67 646.114 1651.83 648.384 1647.46 649.607C1643.18 650.742 1639.03 651.31 1635.01 651.31C1631 651.31 1627.46 651.048 1624.4 650.524C1621.43 650 1618.9 649.389 1616.8 648.69C1612.96 647.205 1609.91 645.808 1607.63 644.498L1606.46 643.712L1612.22 631.791C1617.46 634.76 1621.87 636.245 1625.45 636.245C1629.03 636.245 1630.82 634.76 1630.82 631.791C1630.82 630.306 1629.69 628.778 1627.42 627.206C1625.15 625.634 1622.66 624.149 1619.95 622.752C1617.33 621.355 1614.88 619.215 1612.61 616.333C1610.34 613.451 1609.21 610.132 1609.21 606.377C1609.21 599.652 1611.74 594.587 1616.8 591.181C1621.87 587.775 1628.55 586.072 1636.85 586.072C1641.04 586.072 1645.14 586.421 1649.16 587.12C1653.18 587.819 1656.19 588.517 1658.2 589.216L1661.08 590.395L1657.81 603.626C1652.83 601.792 1648.59 600.875 1645.1 600.875C1641.61 600.875 1639.86 602.229 1639.86 604.936C1639.86 606.246 1640.69 607.512 1642.35 608.735C1644.01 609.87 1646.02 611.006 1648.38 612.141C1650.73 613.276 1653.09 614.586 1655.45 616.071C1657.81 617.468 1659.82 619.433 1661.48 621.966C1663.14 624.411 1663.96 627.206 1663.96 630.35ZM1707.23 626.682C1707.14 631.747 1708.93 634.28 1712.6 634.28C1713.65 634.28 1714.91 633.8 1716.4 632.839L1719.15 645.546C1718.63 645.983 1717.88 646.55 1716.92 647.249C1716.05 647.86 1714.08 648.69 1711.03 649.738C1708.06 650.786 1704.96 651.31 1701.73 651.31C1695.79 651.31 1690.94 649.301 1687.19 645.284C1683.43 641.179 1681.42 635.983 1681.16 629.695L1679.98 604.936H1669.89L1671.47 587.906H1679.33L1678.8 575.068L1709.85 568.78L1708.93 587.906H1716.53L1718.1 604.936H1708.15L1707.23 626.682ZM1750.72 651.31C1744 651.31 1738.45 649.345 1734.09 645.415C1729.81 641.485 1727.67 635.939 1727.67 628.778C1727.67 621.529 1730.11 616.289 1735 613.058C1739.89 609.739 1745.79 608.08 1752.69 608.08C1759.59 608.08 1765.57 609.172 1770.63 611.355C1769.5 604.106 1764.91 600.482 1756.88 600.482C1753.21 600.482 1748.67 601.224 1743.26 602.709L1739.98 590.919C1747.84 587.688 1755.83 586.072 1763.95 586.072C1787.36 586.072 1799.06 596.028 1799.06 615.94C1799.06 622.752 1798.28 632.184 1796.7 644.236L1796.05 650H1774.43L1773.65 642.795C1767.71 648.472 1760.07 651.31 1750.72 651.31ZM1762.51 635.066C1766.44 635.066 1769.81 633.974 1772.6 631.791L1771.81 623.145C1769.63 621.66 1767.19 620.918 1764.48 620.918C1761.86 620.918 1759.67 621.573 1757.93 622.883C1756.27 624.193 1755.44 625.809 1755.44 627.73C1755.44 629.651 1756.09 631.354 1757.4 632.839C1758.71 634.324 1760.42 635.066 1762.51 635.066ZM1857.7 586.072C1863.81 586.072 1869.05 588.648 1873.42 593.801C1877.87 598.954 1880.1 605.678 1880.1 613.975C1880.1 622.184 1879.1 634.193 1877.09 650H1854.16L1851.54 620.656C1850.67 611.311 1848.14 606.639 1843.94 606.639C1838.97 606.639 1836.3 611.355 1835.95 620.787L1835.04 650H1810.93L1808.18 587.906H1837.79L1837.26 599.041C1837.7 598.168 1838.7 596.814 1840.28 594.98C1841.85 593.146 1843.38 591.661 1844.86 590.526C1848.7 587.557 1852.98 586.072 1857.7 586.072ZM1924.03 626.682C1923.95 631.747 1925.74 634.28 1929.4 634.28C1930.45 634.28 1931.72 633.8 1933.2 632.839L1935.95 645.546C1935.43 645.983 1934.69 646.55 1933.73 647.249C1932.85 647.86 1930.89 648.69 1927.83 649.738C1924.86 650.786 1921.76 651.31 1918.53 651.31C1912.59 651.31 1907.75 649.301 1903.99 645.284C1900.24 641.179 1898.23 635.983 1897.96 629.695L1896.79 604.936H1886.7L1888.27 587.906H1896.13L1895.61 575.068L1926.65 568.78L1925.74 587.906H1933.33L1934.91 604.936H1924.95L1924.03 626.682Z" fill="#ffffff"/>
<path d="M497.674 257.915C468.314 248.819 429.612 251.652 396.112 258.168C426.259 243.845 457.741 223.825 474.062 199.996C474.062 199.996 503.422 164.928 461.505 133.859C461.505 133.859 439.947 117.017 415.275 126.525V126.336C400.492 130.775 395.942 117.868 395.942 117.868L395.839 117.931C388.277 94.3839 360.49 89.6001 360.49 89.6001C307.829 79.2739 296.742 122.306 296.742 122.306C286.784 149.313 289.932 184.948 296.98 215.733C281.412 188.001 259.648 159.072 233.745 144.058C233.745 144.058 195.659 117.049 161.85 155.61C161.85 155.61 143.543 175.41 153.844 198.106H153.672C158.497 211.736 144.467 215.923 144.467 215.923L144.536 216.017C118.94 222.974 113.738 248.534 113.738 248.534C102.514 296.98 149.326 307.179 149.326 307.179C178.686 316.308 217.388 313.442 250.853 306.926C220.706 321.282 189.26 341.302 172.903 365.131C172.903 365.131 143.578 400.199 185.495 431.268C185.495 431.268 207.053 448.108 231.725 438.633V438.758C246.508 434.352 251.058 447.226 251.058 447.226L251.162 447.164C258.724 470.741 286.51 475.526 286.51 475.526C339.171 485.82 350.258 442.788 350.258 442.788C355.563 428.276 357.068 411.309 356.282 393.934C366.718 434.666 394.058 488.496 466.431 502L489.495 486.039L479.093 452.074C479.093 452.074 401.826 439.514 375.582 387.229C386.77 400.922 399.397 413.01 413.255 421.068C413.255 421.068 451.375 448.077 485.15 409.516C485.15 409.516 503.457 389.683 493.156 366.988H493.328C488.503 353.39 502.532 349.203 502.532 349.203L502.43 349.108C528.06 342.152 533.262 316.592 533.262 316.592C544.486 268.115 497.674 257.915 497.674 257.915Z" fill="#00FA00"/>
<path d="M626.306 458L593.786 129.548H764.516L740.126 373.99L838.228 368.57L807.334 458H626.306ZM900.672 458L868.152 129.548H1038.88L1006.36 458H900.672ZM1313.8 253.124V303.53L1222.75 326.294L1209.74 458H1104.05L1071.53 129.548H1320.85L1337.65 196.756L1235.21 203.26L1229.79 253.124H1313.8ZM1574.2 463.42C1546.38 463.42 1523.44 455.29 1505.37 439.03C1487.67 422.77 1478.81 399.825 1478.81 370.196C1478.81 340.205 1488.93 318.525 1509.16 305.156C1529.4 291.425 1553.79 284.56 1582.33 284.56C1610.88 284.56 1635.63 289.077 1656.59 298.11C1651.89 268.119 1632.92 253.124 1599.68 253.124C1584.5 253.124 1565.71 256.195 1543.31 262.338L1529.76 213.558C1562.28 200.189 1595.34 193.504 1628.95 193.504C1725.78 193.504 1774.2 234.696 1774.2 317.08C1774.2 345.264 1770.95 384.288 1764.45 434.152L1761.74 458H1672.31L1669.05 428.19C1644.48 451.677 1612.87 463.42 1574.2 463.42ZM1622.98 396.212C1639.24 396.212 1653.16 391.695 1664.72 382.662L1661.47 346.89C1652.43 340.747 1642.32 337.676 1631.11 337.676C1620.27 337.676 1611.24 340.386 1604.01 345.806C1597.15 351.226 1593.72 357.911 1593.72 365.86C1593.72 373.809 1596.43 380.855 1601.85 386.998C1607.27 393.141 1614.31 396.212 1622.98 396.212ZM1940.93 208.68L1950.14 205.428L1931.71 458H1829.28L1811.93 205.428C1832.53 213.739 1854.39 217.894 1877.51 217.894C1901 217.894 1922.14 214.823 1940.93 208.68ZM1880.77 194.046C1862.7 194.046 1847.52 188.626 1835.24 177.786C1822.95 166.946 1816.81 152.854 1816.81 135.51C1816.81 117.805 1822.77 103.713 1834.7 93.234C1846.98 82.394 1862.16 76.974 1880.22 76.974C1898.65 76.974 1914.01 82.394 1926.29 93.234C1938.58 104.074 1944.72 118.166 1944.72 135.51C1944.72 152.854 1938.58 166.946 1926.29 177.786C1914.01 188.626 1898.83 194.046 1880.77 194.046Z" fill="#ffffff"/>
</svg>
