<svg width="812" height="200" viewBox="0 0 812 200" fill="none" xmlns="http://www.w3.org/2000/svg">
<path d="M161.766 78.0235C151.355 74.5169 137.63 75.6091 125.75 78.121C136.441 72.5996 147.605 64.8816 153.393 55.6956C153.393 55.6956 163.805 42.1772 148.94 30.2003C148.94 30.2003 141.295 23.7077 132.546 27.3728V27.3001C127.303 29.0111 125.69 24.0357 125.69 24.0357L125.653 24.0599C122.971 14.9826 113.118 13.1385 113.118 13.1385C94.4424 9.15779 90.5106 25.7465 90.5106 25.7465C86.9792 36.1577 88.0957 49.8948 90.5952 61.7623C85.0743 51.0716 77.3564 39.9197 68.1704 34.1317C68.1704 34.1317 54.6639 23.7199 42.6745 38.5852C42.6745 38.5852 36.1825 46.2181 39.8352 54.9671H39.7742C41.4853 60.2216 36.5099 61.8357 36.5099 61.8357L36.5346 61.8717C27.4574 64.5538 25.6126 74.4072 25.6126 74.4072C21.6325 93.0829 38.2333 97.0146 38.2333 97.0146C48.645 100.534 62.3697 99.429 74.2373 96.9171C63.5465 102.451 52.3947 110.169 46.5942 119.355C46.5942 119.355 36.1949 132.873 51.0596 144.85C51.0596 144.85 58.7048 151.342 67.4539 147.689V147.738C72.6965 146.039 74.31 151.002 74.31 151.002L74.3468 150.978C77.0284 160.067 86.8821 161.912 86.8821 161.912C105.557 165.88 109.489 149.291 109.489 149.291C111.37 143.697 111.904 137.156 111.625 130.458C115.326 146.16 125.022 166.911 150.687 172.117L158.866 165.964L155.177 152.871C155.177 152.871 127.776 148.029 118.469 127.874C122.437 133.152 126.915 137.812 131.829 140.918C131.829 140.918 145.348 151.33 157.325 136.465C157.325 136.465 163.817 128.82 160.164 120.071H160.225C158.514 114.829 163.489 113.214 163.489 113.214L163.453 113.178C172.542 110.496 174.387 100.643 174.387 100.643C178.367 81.9552 161.766 78.0235 161.766 78.0235Z" fill="#00FA00"/>
<path d="M253.669 167.683C240.33 167.683 230.169 163.569 223.188 155.341C216.331 146.988 212.903 134.896 212.903 119.063C212.903 109.339 213.651 100.301 215.147 91.948C216.768 83.5953 218.326 75.5543 219.822 67.825C221.443 59.971 222.253 52.0547 222.253 44.076C222.253 40.5853 222.627 37.905 223.375 36.035C224.248 34.165 226.18 33.23 229.172 33.23C231.416 33.23 233.286 33.791 234.782 34.913C236.278 36.035 237.338 37.6557 237.961 39.775C238.709 41.8943 239.083 44.45 239.083 47.442C239.083 53.8 238.584 59.971 237.587 65.955C236.714 71.939 235.592 77.923 234.221 83.907C232.974 89.891 231.852 95.9373 230.855 102.046C229.982 108.03 229.546 114.201 229.546 120.559C229.546 130.034 231.416 137.576 235.156 143.186C239.021 148.671 245.441 151.414 254.417 151.414C260.65 151.414 265.824 150.978 269.938 150.105C274.052 149.232 277.418 148.235 280.036 147.113C282.779 145.991 285.085 144.994 286.955 144.121C288.825 143.124 290.57 142.625 292.191 142.625C294.061 142.625 295.495 143.248 296.492 144.495C297.614 145.742 298.175 147.238 298.175 148.983C298.175 150.978 297.676 152.91 296.679 154.78C295.682 156.525 294.186 158.021 292.191 159.268C286.83 162.135 280.846 164.255 274.239 165.626C267.756 166.997 260.9 167.683 253.669 167.683ZM324.072 168.057C321.952 168.057 320.207 167.558 318.836 166.561C317.464 165.564 316.405 164.005 315.657 161.886C315.033 159.767 314.722 157.273 314.722 154.406C314.722 144.682 314.722 136.392 314.722 129.535C314.722 122.678 314.659 116.757 314.535 111.77C314.535 106.659 314.535 101.921 314.535 97.558C314.535 93.1947 314.535 88.582 314.535 83.72C314.535 81.476 314.846 79.5437 315.47 77.923C316.093 76.3023 317.09 74.9933 318.462 73.996C319.833 72.9987 321.578 72.5 323.698 72.5C326.44 72.5 328.684 73.435 330.43 75.305C332.3 77.175 333.297 80.0423 333.422 83.907C333.422 86.6497 333.359 90.5767 333.235 95.688C333.11 100.675 332.923 106.222 332.674 112.331C332.549 118.44 332.424 124.611 332.3 130.844C332.175 136.953 332.05 142.563 331.926 147.674C331.801 152.785 331.739 156.837 331.739 159.829C331.739 162.198 331.115 164.192 329.869 165.813C328.622 167.309 326.69 168.057 324.072 168.057ZM325.755 56.605C321.142 56.605 317.277 55.2337 314.161 52.491C311.044 49.7483 309.486 46.4447 309.486 42.58C309.486 39.214 310.67 36.4713 313.039 34.352C315.532 32.108 318.649 30.986 322.389 30.986C325.505 30.986 328.186 31.734 330.43 33.23C332.798 34.726 334.544 36.6583 335.666 39.027C336.788 41.271 337.349 43.6397 337.349 46.133C337.349 48.5017 336.414 50.8703 334.544 53.239C332.798 55.483 329.869 56.605 325.755 56.605ZM375.383 168.244C372.266 168.244 369.773 167.06 367.903 164.691C366.157 162.322 365.285 158.894 365.285 154.406C365.285 146.427 365.098 139.633 364.724 134.023C364.35 128.288 363.913 122.99 363.415 118.128C362.916 113.141 362.48 108.03 362.106 102.794C361.732 97.4333 361.545 91.3247 361.545 84.468C361.545 74.744 362.854 66.2043 365.472 58.849C368.09 51.369 371.643 45.011 376.131 39.775C380.619 34.539 385.792 30.612 391.652 27.994C397.511 25.2513 403.682 23.88 410.165 23.88C412.284 23.88 414.341 24.441 416.336 25.563C418.455 26.685 419.515 28.555 419.515 31.173C419.515 32.9183 418.954 34.4767 417.832 35.848C416.71 37.0947 414.964 38.0297 412.596 38.653C405.24 40.2737 399.256 42.6423 394.644 45.759C390.156 48.8757 386.727 52.678 384.359 57.166C381.99 61.654 380.369 66.8277 379.497 72.687C378.749 78.4217 378.375 84.9043 378.375 92.135C378.375 97.9943 378.686 103.978 379.31 110.087C379.933 116.196 380.556 123.115 381.18 130.844C381.803 138.449 382.115 147.425 382.115 157.772C382.115 161.886 381.554 164.629 380.432 166C379.434 167.496 377.751 168.244 375.383 168.244ZM374.448 91.387C372.702 91.387 371.206 90.9507 369.96 90.078C368.713 89.0807 368.09 87.7717 368.09 86.151C368.09 83.907 368.713 81.7877 369.96 79.793C371.331 77.7983 373.45 76.4893 376.318 75.866C380.556 74.8687 384.795 74.1207 389.034 73.622C393.272 73.1233 397.636 72.874 402.124 72.874C404.368 72.874 406.238 73.3103 407.734 74.183C409.354 74.931 410.539 75.9907 411.287 77.362C412.035 78.6087 412.409 80.0423 412.409 81.663C412.409 83.2837 411.785 84.655 410.539 85.777C409.417 86.7743 407.609 87.3353 405.116 87.46C398.259 87.5847 392.898 88.021 389.034 88.769C385.294 89.3923 382.364 90.0157 380.245 90.639C378.125 91.1377 376.193 91.387 374.448 91.387ZM473.185 167.87C461.342 167.87 451.68 165.377 444.2 160.39C436.72 155.403 431.172 148.671 427.557 140.194C424.066 131.592 422.321 121.993 422.321 111.396C422.321 101.298 423.942 91.574 427.183 82.224C430.424 72.7493 434.912 64.3343 440.647 56.979C446.506 49.6237 453.363 43.8267 461.217 39.588C469.071 35.2247 477.611 33.043 486.836 33.043C496.186 33.043 502.793 35.0377 506.658 39.027C510.523 42.8917 512.455 48.19 512.455 54.922C512.455 57.4153 512.081 59.784 511.333 62.028C510.585 64.272 509.401 66.0797 507.78 67.451C506.284 68.8223 504.414 69.508 502.17 69.508C500.3 69.508 498.991 69.0093 498.243 68.012C497.62 67.0147 497.246 65.768 497.121 64.272C496.996 62.6513 496.934 60.906 496.934 59.036C496.934 57.4153 496.685 55.9193 496.186 54.548C495.687 53.052 494.628 51.8677 493.007 50.995C491.386 50.1223 488.893 49.686 485.527 49.686C478.67 49.686 472.375 51.4313 466.64 54.922C460.905 58.4127 455.981 63.0877 451.867 68.947C447.753 74.8063 444.574 81.4137 442.33 88.769C440.086 96.1243 438.964 103.729 438.964 111.583C438.964 124.548 442.081 134.522 448.314 141.503C454.547 148.484 462.962 151.975 473.559 151.975C479.294 151.975 483.969 151.352 487.584 150.105C491.324 148.734 494.316 147.113 496.56 145.243C498.929 143.248 500.861 141.316 502.357 139.446C503.853 137.451 505.224 135.831 506.471 134.584C507.842 133.337 509.401 132.714 511.146 132.714C513.265 132.714 514.761 133.337 515.634 134.584C516.631 135.831 517.13 137.389 517.13 139.259C517.13 141.752 516.195 144.62 514.325 147.861C512.455 151.102 509.65 154.281 505.91 157.398C502.295 160.39 497.744 162.883 492.259 164.878C486.774 166.873 480.416 167.87 473.185 167.87ZM561.372 167.87C555.762 167.87 550.837 166.561 546.599 163.943C542.485 161.325 539.306 157.647 537.062 152.91C534.818 148.173 533.696 142.625 533.696 136.267C533.696 130.283 534.631 124.237 536.501 118.128C538.371 112.019 540.989 106.222 544.355 100.737C547.721 95.2517 551.71 90.3897 556.323 86.151C561.06 81.9123 566.234 78.6087 571.844 76.24C577.454 73.7467 583.438 72.5 589.796 72.5C592.663 72.5 595.032 73.248 596.902 74.744C598.772 76.24 599.707 78.484 599.707 81.476C599.707 82.972 599.208 84.281 598.211 85.403C597.338 86.4003 595.967 87.0237 594.097 87.273C585.37 88.395 577.703 91.4493 571.096 96.436C564.613 101.423 559.564 107.469 555.949 114.575C552.333 121.681 550.526 129.099 550.526 136.828C550.526 140.443 550.837 143.747 551.461 146.739C552.084 149.606 553.455 153.346 555.575 157.959L545.851 145.056C548.718 147.923 551.087 149.793 552.957 150.666C554.951 151.539 557.632 151.975 560.998 151.975C568.976 151.975 576.082 147.238 582.316 137.763C588.674 128.288 593.286 114.513 596.154 96.436C596.652 94.0673 597.525 92.2597 598.772 91.013C600.018 89.6417 601.701 88.956 603.821 88.956C606.813 88.956 609.368 90.1403 611.488 92.509C613.607 94.753 614.916 97.745 615.415 101.485C616.537 108.716 617.721 115.198 618.968 120.933C620.339 126.543 622.271 131.904 624.765 137.015C627.258 142.002 630.624 147.3 634.863 152.91C635.985 154.157 636.608 155.59 636.733 157.211C636.857 158.832 636.608 160.452 635.985 162.073C635.486 163.569 634.613 164.816 633.367 165.813C632.245 166.81 630.873 167.309 629.253 167.309C627.507 167.309 626.074 166.935 624.952 166.187C623.83 165.439 622.77 164.504 621.773 163.382C619.404 160.016 617.16 156.712 615.041 153.471C612.921 150.105 610.989 146.303 609.244 142.064C607.498 137.701 606.002 132.589 604.756 126.73C603.509 120.746 602.636 113.702 602.138 105.599L608.309 105.412C606.563 116.881 604.07 126.668 600.829 134.771C597.587 142.75 593.785 149.17 589.422 154.032C585.058 158.769 580.446 162.26 575.584 164.504C570.846 166.748 566.109 167.87 561.372 167.87ZM666.545 168.244C664.675 168.244 663.054 167.683 661.683 166.561C660.311 165.439 659.252 163.818 658.504 161.699C657.756 159.58 657.382 157.211 657.382 154.593C657.382 146.49 657.257 138.511 657.008 130.657C656.758 122.803 656.26 115.572 655.512 108.965C654.888 102.358 653.953 96.9347 652.707 92.696C651.959 89.8287 651.398 87.5847 651.024 85.964C650.774 84.3433 650.65 82.7227 650.65 81.102C650.65 78.858 651.211 77.0503 652.333 75.679C653.579 74.183 655.449 73.435 657.943 73.435C660.187 73.435 662.181 74.4947 663.927 76.614C665.797 78.6087 667.355 82.1617 668.602 87.273C669.848 92.2597 670.721 99.241 671.22 108.217C671.718 117.193 671.843 128.538 671.594 142.251L665.61 136.828C666.482 124.735 668.415 114.575 671.407 106.347C674.523 97.9943 678.201 91.3247 682.44 86.338C686.803 81.3513 691.416 77.736 696.278 75.492C701.14 73.248 705.939 72.126 710.677 72.126C713.793 72.126 715.913 72.874 717.035 74.37C718.281 75.866 718.905 77.6737 718.905 79.793C718.905 81.5383 718.344 83.2213 717.222 84.842C716.1 86.338 714.167 87.46 711.425 88.208C704.942 89.704 699.581 92.3843 695.343 96.249C691.104 99.989 687.613 104.726 684.871 110.461C682.253 116.071 680.196 122.491 678.7 129.722C677.328 136.953 676.331 144.807 675.708 153.284C675.458 157.273 674.96 160.39 674.212 162.634C673.588 164.753 672.653 166.187 671.407 166.935C670.16 167.808 668.539 168.244 666.545 168.244ZM766.21 167.87C756.735 167.87 749.006 166.125 743.022 162.634C737.162 159.019 732.799 154.157 729.932 148.048C727.189 141.815 725.818 134.709 725.818 126.73C725.818 120.372 726.94 114.014 729.184 107.656C731.552 101.173 734.918 95.314 739.282 90.078C743.645 84.7173 748.881 80.4163 754.99 77.175C761.098 73.9337 767.955 72.313 775.56 72.313C781.419 72.313 786.53 73.3727 790.894 75.492C795.257 77.6113 798.623 80.7903 800.992 85.029C803.485 89.143 804.732 94.379 804.732 100.737C804.732 107.469 802.675 113.204 798.561 117.941C794.571 122.554 789.086 126.107 782.105 128.6C775.123 131.093 767.269 132.34 758.543 132.34C751.063 132.34 745.827 131.343 742.835 129.348C739.843 127.229 738.347 124.922 738.347 122.429C738.347 120.933 738.721 119.873 739.469 119.25C740.217 118.502 741.463 118.128 743.209 118.128C744.58 118.128 746.263 118.377 748.258 118.876C750.377 119.25 753.369 119.437 757.234 119.437C763.467 119.437 768.89 118.689 773.503 117.193C778.24 115.572 781.98 113.328 784.723 110.461C787.465 107.594 788.837 104.29 788.837 100.55C788.837 96.3113 787.777 93.1323 785.658 91.013C783.538 88.8937 780.048 87.834 775.186 87.834C770.324 87.834 765.836 88.956 761.722 91.2C757.732 93.444 754.242 96.4983 751.25 100.363C748.382 104.228 746.138 108.653 744.518 113.64C742.897 118.502 742.087 123.613 742.087 128.974C742.087 133.462 742.835 137.514 744.331 141.129C745.827 144.62 748.258 147.487 751.624 149.731C754.99 151.85 759.54 152.91 765.275 152.91C772.007 152.91 777.617 152.1 782.105 150.479C786.717 148.858 790.52 147.051 793.512 145.056C796.504 142.937 798.997 141.129 800.992 139.633C803.111 138.012 805.043 137.202 806.789 137.202C808.534 137.202 809.718 137.701 810.342 138.698C810.965 139.695 811.277 141.316 811.277 143.56C811.277 146.053 810.03 148.734 807.537 151.601C805.168 154.344 801.864 156.962 797.626 159.455C793.387 161.948 788.587 164.005 783.227 165.626C777.866 167.122 772.194 167.87 766.21 167.87Z" fill="black"/>
</svg>
