<svg width="678" height="200" viewBox="0 0 678 200" fill="none" xmlns="http://www.w3.org/2000/svg">
<path d="M161.766 78.0235C151.355 74.5169 137.63 75.6091 125.75 78.121C136.441 72.5996 147.605 64.8816 153.393 55.6956C153.393 55.6956 163.805 42.1772 148.94 30.2003C148.94 30.2003 141.295 23.7077 132.546 27.3728V27.3001C127.303 29.0111 125.69 24.0357 125.69 24.0357L125.653 24.0599C122.971 14.9826 113.118 13.1385 113.118 13.1385C94.4424 9.15779 90.5106 25.7465 90.5106 25.7465C86.9792 36.1577 88.0957 49.8948 90.5952 61.7623C85.0743 51.0716 77.3564 39.9197 68.1704 34.1317C68.1704 34.1317 54.6639 23.7199 42.6745 38.5852C42.6745 38.5852 36.1825 46.2181 39.8352 54.9671H39.7742C41.4853 60.2216 36.5099 61.8357 36.5099 61.8357L36.5346 61.8717C27.4574 64.5538 25.6126 74.4072 25.6126 74.4072C21.6325 93.0829 38.2333 97.0146 38.2333 97.0146C48.645 100.534 62.3697 99.429 74.2373 96.9171C63.5465 102.451 52.3947 110.169 46.5942 119.355C46.5942 119.355 36.1949 132.873 51.0596 144.85C51.0596 144.85 58.7048 151.342 67.4539 147.689V147.738C72.6965 146.039 74.31 151.002 74.31 151.002L74.3468 150.978C77.0284 160.067 86.8821 161.912 86.8821 161.912C105.557 165.88 109.489 149.291 109.489 149.291C111.37 143.697 111.904 137.156 111.625 130.458C115.326 146.16 125.022 166.911 150.687 172.117L158.866 165.964L155.177 152.871C155.177 152.871 127.776 148.029 118.469 127.874C122.437 133.152 126.915 137.812 131.829 140.918C131.829 140.918 145.348 151.33 157.325 136.465C157.325 136.465 163.817 128.82 160.164 120.071H160.225C158.514 114.829 163.489 113.214 163.489 113.214L163.453 113.178C172.542 110.496 174.387 100.643 174.387 100.643C178.367 81.9552 161.766 78.0235 161.766 78.0235Z" fill="#00FA00"/>
<path d="M241.902 154.314C231.487 154.314 223.555 151.102 218.104 144.678C212.751 138.157 210.074 128.715 210.074 116.354C210.074 108.762 210.658 101.705 211.826 95.184C213.091 88.6627 214.308 82.3847 215.476 76.35C216.741 70.218 217.374 64.0373 217.374 57.808C217.374 55.0827 217.666 52.99 218.25 51.53C218.931 50.07 220.44 49.34 222.776 49.34C224.528 49.34 225.988 49.778 227.156 50.654C228.324 51.53 229.151 52.7953 229.638 54.45C230.222 56.1047 230.514 58.1 230.514 60.436C230.514 65.4 230.125 70.218 229.346 74.89C228.665 79.562 227.789 84.234 226.718 88.906C225.745 93.578 224.869 98.2987 224.09 103.068C223.409 107.74 223.068 112.558 223.068 117.522C223.068 124.919 224.528 130.808 227.448 135.188C230.465 139.471 235.478 141.612 242.486 141.612C247.353 141.612 251.392 141.271 254.604 140.59C257.816 139.909 260.444 139.13 262.488 138.254C264.629 137.378 266.43 136.599 267.89 135.918C269.35 135.139 270.713 134.75 271.978 134.75C273.438 134.75 274.557 135.237 275.336 136.21C276.212 137.183 276.65 138.351 276.65 139.714C276.65 141.271 276.261 142.78 275.482 144.24C274.703 145.603 273.535 146.771 271.978 147.744C267.793 149.983 263.121 151.637 257.962 152.708C252.901 153.779 247.547 154.314 241.902 154.314ZM296.869 154.606C295.214 154.606 293.851 154.217 292.781 153.438C291.71 152.659 290.883 151.443 290.299 149.788C289.812 148.133 289.569 146.187 289.569 143.948C289.569 136.356 289.569 129.883 289.569 124.53C289.569 119.177 289.52 114.553 289.423 110.66C289.423 106.669 289.423 102.971 289.423 99.564C289.423 96.1573 289.423 92.556 289.423 88.76C289.423 87.008 289.666 85.4993 290.153 84.234C290.639 82.9687 291.418 81.9467 292.489 81.168C293.559 80.3893 294.922 80 296.577 80C298.718 80 300.47 80.73 301.833 82.19C303.293 83.65 304.071 85.8887 304.169 88.906C304.169 91.0473 304.12 94.1133 304.023 98.104C303.925 101.997 303.779 106.329 303.585 111.098C303.487 115.867 303.39 120.685 303.293 125.552C303.195 130.321 303.098 134.701 303.001 138.692C302.903 142.683 302.855 145.846 302.855 148.182C302.855 150.031 302.368 151.589 301.395 152.854C300.421 154.022 298.913 154.606 296.869 154.606ZM298.183 67.59C294.581 67.59 291.564 66.5193 289.131 64.378C286.697 62.2367 285.481 59.6573 285.481 56.64C285.481 54.012 286.405 51.8707 288.255 50.216C290.201 48.464 292.635 47.588 295.555 47.588C297.988 47.588 300.081 48.172 301.833 49.34C303.682 50.508 305.045 52.0167 305.921 53.866C306.797 55.618 307.235 57.4673 307.235 59.414C307.235 61.2633 306.505 63.1127 305.045 64.962C303.682 66.714 301.395 67.59 298.183 67.59ZM336.93 154.752C334.496 154.752 332.55 153.827 331.09 151.978C329.727 150.129 329.046 147.452 329.046 143.948C329.046 137.719 328.9 132.414 328.608 128.034C328.316 123.557 327.975 119.42 327.586 115.624C327.196 111.731 326.856 107.74 326.564 103.652C326.272 99.4667 326.126 94.6973 326.126 89.344C326.126 81.752 327.148 75.0847 329.192 69.342C331.236 63.502 334.01 58.538 337.514 54.45C341.018 50.362 345.057 47.296 349.632 45.252C354.206 43.1107 359.024 42.04 364.086 42.04C365.74 42.04 367.346 42.478 368.904 43.354C370.558 44.23 371.386 45.69 371.386 47.734C371.386 49.0967 370.948 50.3133 370.072 51.384C369.196 52.3573 367.833 53.0873 365.984 53.574C360.241 54.8393 355.569 56.6887 351.968 59.122C348.464 61.5553 345.787 64.524 343.938 68.028C342.088 71.532 340.823 75.5713 340.142 80.146C339.558 84.6233 339.266 89.6847 339.266 95.33C339.266 99.9047 339.509 104.577 339.996 109.346C340.482 114.115 340.969 119.517 341.456 125.552C341.942 131.489 342.186 138.497 342.186 146.576C342.186 149.788 341.748 151.929 340.872 153C340.093 154.168 338.779 154.752 336.93 154.752ZM336.2 94.746C334.837 94.746 333.669 94.4053 332.696 93.724C331.722 92.9453 331.236 91.9233 331.236 90.658C331.236 88.906 331.722 87.2513 332.696 85.694C333.766 84.1367 335.421 83.1147 337.66 82.628C340.969 81.8493 344.278 81.2653 347.588 80.876C350.897 80.4867 354.304 80.292 357.808 80.292C359.56 80.292 361.02 80.6327 362.188 81.314C363.453 81.898 364.378 82.7253 364.962 83.796C365.546 84.7693 365.838 85.8887 365.838 87.154C365.838 88.4193 365.351 89.49 364.378 90.366C363.502 91.1447 362.09 91.5827 360.144 91.68C354.79 91.7773 350.605 92.118 347.588 92.702C344.668 93.1887 342.38 93.6753 340.726 94.162C339.071 94.5513 337.562 94.746 336.2 94.746ZM413.289 154.46C404.042 154.46 396.499 152.513 390.659 148.62C384.819 144.727 380.488 139.471 377.665 132.852C374.94 126.136 373.577 118.641 373.577 110.368C373.577 102.484 374.842 94.892 377.373 87.592C379.904 80.1947 383.408 73.6247 387.885 67.882C392.46 62.1393 397.813 57.6133 403.945 54.304C410.077 50.8973 416.744 49.194 423.947 49.194C431.247 49.194 436.406 50.7513 439.423 53.866C442.44 56.8833 443.949 61.02 443.949 66.276C443.949 68.2227 443.657 70.072 443.073 71.824C442.489 73.576 441.564 74.9873 440.299 76.058C439.131 77.1287 437.671 77.664 435.919 77.664C434.459 77.664 433.437 77.2747 432.853 76.496C432.366 75.7173 432.074 74.744 431.977 73.576C431.88 72.3107 431.831 70.948 431.831 69.488C431.831 68.2227 431.636 67.0547 431.247 65.984C430.858 64.816 430.03 63.8913 428.765 63.21C427.5 62.5287 425.553 62.188 422.925 62.188C417.572 62.188 412.656 63.5507 408.179 66.276C403.702 69.0013 399.857 72.6513 396.645 77.226C393.433 81.8007 390.951 86.9593 389.199 92.702C387.447 98.4447 386.571 104.382 386.571 110.514C386.571 120.637 389.004 128.423 393.871 133.874C398.738 139.325 405.308 142.05 413.581 142.05C418.058 142.05 421.708 141.563 424.531 140.59C427.451 139.519 429.787 138.254 431.539 136.794C433.388 135.237 434.897 133.728 436.065 132.268C437.233 130.711 438.304 129.445 439.277 128.472C440.348 127.499 441.564 127.012 442.927 127.012C444.582 127.012 445.75 127.499 446.431 128.472C447.21 129.445 447.599 130.662 447.599 132.122C447.599 134.069 446.869 136.307 445.409 138.838C443.949 141.369 441.759 143.851 438.839 146.284C436.016 148.62 432.464 150.567 428.181 152.124C423.898 153.681 418.934 154.46 413.289 154.46ZM482.14 154.46C477.76 154.46 473.916 153.438 470.606 151.394C467.394 149.35 464.912 146.479 463.16 142.78C461.408 139.081 460.532 134.75 460.532 129.786C460.532 125.114 461.262 120.393 462.722 115.624C464.182 110.855 466.226 106.329 468.854 102.046C471.482 97.7633 474.597 93.9673 478.198 90.658C481.897 87.3487 485.936 84.7693 490.316 82.92C494.696 80.9733 499.368 80 504.332 80C506.571 80 508.42 80.584 509.88 81.752C511.34 82.92 512.07 84.672 512.07 87.008C512.07 88.176 511.681 89.198 510.902 90.074C510.221 90.8527 509.15 91.3393 507.69 91.534C500.877 92.41 494.891 94.7947 489.732 98.688C484.671 102.581 480.729 107.302 477.906 112.85C475.084 118.398 473.672 124.189 473.672 130.224C473.672 133.047 473.916 135.626 474.402 137.962C474.889 140.201 475.96 143.121 477.614 146.722L470.022 136.648C472.261 138.887 474.11 140.347 475.57 141.028C477.128 141.709 479.22 142.05 481.848 142.05C488.078 142.05 493.626 138.351 498.492 130.954C503.456 123.557 507.058 112.801 509.296 98.688C509.686 96.8387 510.367 95.4273 511.34 94.454C512.314 93.3833 513.628 92.848 515.282 92.848C517.618 92.848 519.614 93.7727 521.268 95.622C522.923 97.374 523.945 99.71 524.334 102.63C525.21 108.275 526.135 113.337 527.108 117.814C528.179 122.194 529.688 126.379 531.634 130.37C533.581 134.263 536.209 138.4 539.518 142.78C540.394 143.753 540.881 144.873 540.978 146.138C541.076 147.403 540.881 148.669 540.394 149.934C540.005 151.102 539.324 152.075 538.35 152.854C537.474 153.633 536.404 154.022 535.138 154.022C533.776 154.022 532.656 153.73 531.78 153.146C530.904 152.562 530.077 151.832 529.298 150.956C527.449 148.328 525.697 145.749 524.042 143.218C522.388 140.59 520.879 137.621 519.516 134.312C518.154 130.905 516.986 126.915 516.012 122.34C515.039 117.668 514.358 112.169 513.968 105.842L518.786 105.696C517.424 114.651 515.477 122.291 512.946 128.618C510.416 134.847 507.447 139.86 504.04 143.656C500.634 147.355 497.032 150.08 493.236 151.832C489.538 153.584 485.839 154.46 482.14 154.46ZM564.254 154.752C562.794 154.752 561.529 154.314 560.458 153.438C559.387 152.562 558.56 151.297 557.976 149.642C557.392 147.987 557.1 146.138 557.1 144.094C557.1 137.767 557.003 131.538 556.808 125.406C556.613 119.274 556.224 113.629 555.64 108.47C555.153 103.311 554.423 99.0773 553.45 95.768C552.866 93.5293 552.428 91.7773 552.136 90.512C551.941 89.2467 551.844 87.9813 551.844 86.716C551.844 84.964 552.282 83.5527 553.158 82.482C554.131 81.314 555.591 80.73 557.538 80.73C559.29 80.73 560.847 81.5573 562.21 83.212C563.67 84.7693 564.887 87.5433 565.86 91.534C566.833 95.4273 567.515 100.878 567.904 107.886C568.293 114.894 568.391 123.751 568.196 134.458L563.524 130.224C564.205 120.783 565.714 112.85 568.05 106.426C570.483 99.9047 573.355 94.6973 576.664 90.804C580.071 86.9107 583.672 84.088 587.468 82.336C591.264 80.584 595.011 79.708 598.71 79.708C601.143 79.708 602.798 80.292 603.674 81.46C604.647 82.628 605.134 84.0393 605.134 85.694C605.134 87.0567 604.696 88.3707 603.82 89.636C602.944 90.804 601.435 91.68 599.294 92.264C594.233 93.432 590.047 95.5247 586.738 98.542C583.429 101.462 580.703 105.161 578.562 109.638C576.518 114.018 574.912 119.031 573.744 124.676C572.673 130.321 571.895 136.453 571.408 143.072C571.213 146.187 570.824 148.62 570.24 150.372C569.753 152.027 569.023 153.146 568.05 153.73C567.077 154.411 565.811 154.752 564.254 154.752ZM642.067 154.46C634.67 154.46 628.635 153.097 623.963 150.372C619.389 147.549 615.982 143.753 613.743 138.984C611.602 134.117 610.531 128.569 610.531 122.34C610.531 117.376 611.407 112.412 613.159 107.448C615.009 102.387 617.637 97.812 621.043 93.724C624.45 89.5387 628.538 86.1807 633.307 83.65C638.077 81.1193 643.43 79.854 649.367 79.854C653.942 79.854 657.933 80.6813 661.339 82.336C664.746 83.9907 667.374 86.4727 669.223 89.782C671.17 92.994 672.143 97.082 672.143 102.046C672.143 107.302 670.537 111.779 667.325 115.478C664.211 119.079 659.928 121.853 654.477 123.8C649.027 125.747 642.895 126.72 636.081 126.72C630.241 126.72 626.153 125.941 623.817 124.384C621.481 122.729 620.313 120.929 620.313 118.982C620.313 117.814 620.605 116.987 621.189 116.5C621.773 115.916 622.747 115.624 624.109 115.624C625.18 115.624 626.494 115.819 628.051 116.208C629.706 116.5 632.042 116.646 635.059 116.646C639.926 116.646 644.16 116.062 647.761 114.894C651.46 113.629 654.38 111.877 656.521 109.638C658.663 107.399 659.733 104.82 659.733 101.9C659.733 98.5907 658.906 96.1087 657.251 94.454C655.597 92.7993 652.871 91.972 649.075 91.972C645.279 91.972 641.775 92.848 638.563 94.6C635.449 96.352 632.723 98.7367 630.387 101.754C628.149 104.771 626.397 108.227 625.131 112.12C623.866 115.916 623.233 119.907 623.233 124.092C623.233 127.596 623.817 130.759 624.985 133.582C626.153 136.307 628.051 138.546 630.679 140.298C633.307 141.953 636.86 142.78 641.337 142.78C646.593 142.78 650.973 142.147 654.477 140.882C658.079 139.617 661.047 138.205 663.383 136.648C665.719 134.993 667.666 133.582 669.223 132.414C670.878 131.149 672.387 130.516 673.749 130.516C675.112 130.516 676.037 130.905 676.523 131.684C677.01 132.463 677.253 133.728 677.253 135.48C677.253 137.427 676.28 139.519 674.333 141.758C672.484 143.899 669.905 145.943 666.595 147.89C663.286 149.837 659.539 151.443 655.353 152.708C651.168 153.876 646.739 154.46 642.067 154.46Z" fill="black"/>
</svg>
