<svg width="420" height="200" viewBox="0 0 420 200" fill="none" xmlns="http://www.w3.org/2000/svg">
<path d="M161.766 78.0235C151.355 74.5169 137.63 75.6091 125.75 78.121C136.441 72.5996 147.605 64.8816 153.393 55.6956C153.393 55.6956 163.805 42.1772 148.94 30.2003C148.94 30.2003 141.295 23.7077 132.546 27.3728V27.3001C127.303 29.0111 125.69 24.0357 125.69 24.0357L125.653 24.0599C122.971 14.9826 113.118 13.1385 113.118 13.1385C94.4424 9.15779 90.5106 25.7465 90.5106 25.7465C86.9792 36.1577 88.0957 49.8948 90.5952 61.7623C85.0743 51.0716 77.3564 39.9197 68.1704 34.1317C68.1704 34.1317 54.6639 23.7199 42.6745 38.5852C42.6745 38.5852 36.1825 46.2181 39.8352 54.9671H39.7742C41.4853 60.2216 36.5099 61.8357 36.5099 61.8357L36.5346 61.8717C27.4574 64.5538 25.6126 74.4072 25.6126 74.4072C21.6325 93.0829 38.2333 97.0146 38.2333 97.0146C48.645 100.534 62.3697 99.429 74.2373 96.9171C63.5465 102.451 52.3947 110.169 46.5942 119.355C46.5942 119.355 36.1949 132.873 51.0596 144.85C51.0596 144.85 58.7048 151.342 67.4539 147.689V147.738C72.6965 146.039 74.31 151.002 74.31 151.002L74.3468 150.978C77.0284 160.067 86.8821 161.912 86.8821 161.912C105.557 165.88 109.489 149.291 109.489 149.291C111.37 143.697 111.904 137.156 111.625 130.458C115.326 146.16 125.022 166.911 150.687 172.117L158.866 165.964L155.177 152.871C155.177 152.871 127.776 148.029 118.469 127.874C122.437 133.152 126.915 137.812 131.829 140.918C131.829 140.918 145.348 151.33 157.325 136.465C157.325 136.465 163.817 128.82 160.164 120.071H160.225C158.514 114.829 163.489 113.214 163.489 113.214L163.453 113.178C172.542 110.496 174.387 100.643 174.387 100.643C178.367 81.9552 161.766 78.0235 161.766 78.0235Z" fill="#00FA00"/>
<path d="M253.669 167.683C240.33 167.683 230.169 163.569 223.188 155.341C216.331 146.988 212.903 134.896 212.903 119.063C212.903 109.339 213.651 100.301 215.147 91.948C216.768 83.5953 218.326 75.5543 219.822 67.825C221.443 59.971 222.253 52.0547 222.253 44.076C222.253 40.5853 222.627 37.905 223.375 36.035C224.248 34.165 226.18 33.23 229.172 33.23C231.416 33.23 233.286 33.791 234.782 34.913C236.278 36.035 237.338 37.6557 237.961 39.775C238.709 41.8943 239.083 44.45 239.083 47.442C239.083 53.8 238.584 59.971 237.587 65.955C236.714 71.939 235.592 77.923 234.221 83.907C232.974 89.891 231.852 95.9373 230.855 102.046C229.982 108.03 229.546 114.201 229.546 120.559C229.546 130.034 231.416 137.576 235.156 143.186C239.021 148.671 245.441 151.414 254.417 151.414C260.65 151.414 265.824 150.978 269.938 150.105C274.052 149.232 277.418 148.235 280.036 147.113C282.779 145.991 285.085 144.994 286.955 144.121C288.825 143.124 290.57 142.625 292.191 142.625C294.061 142.625 295.495 143.248 296.492 144.495C297.614 145.742 298.175 147.238 298.175 148.983C298.175 150.978 297.676 152.91 296.679 154.78C295.682 156.525 294.186 158.021 292.191 159.268C286.83 162.135 280.846 164.255 274.239 165.626C267.756 166.997 260.9 167.683 253.669 167.683ZM324.072 168.057C321.952 168.057 320.207 167.558 318.836 166.561C317.464 165.564 316.405 164.005 315.657 161.886C315.033 159.767 314.722 157.273 314.722 154.406C314.722 144.682 314.722 136.392 314.722 129.535C314.722 122.678 314.659 116.757 314.535 111.77C314.535 106.659 314.535 101.921 314.535 97.558C314.535 93.1947 314.535 88.582 314.535 83.72C314.535 81.476 314.846 79.5437 315.47 77.923C316.093 76.3023 317.09 74.9933 318.462 73.996C319.833 72.9987 321.578 72.5 323.698 72.5C326.44 72.5 328.684 73.435 330.43 75.305C332.3 77.175 333.297 80.0423 333.422 83.907C333.422 86.6497 333.359 90.5767 333.235 95.688C333.11 100.675 332.923 106.222 332.674 112.331C332.549 118.44 332.424 124.611 332.3 130.844C332.175 136.953 332.05 142.563 331.926 147.674C331.801 152.785 331.739 156.837 331.739 159.829C331.739 162.198 331.115 164.192 329.869 165.813C328.622 167.309 326.69 168.057 324.072 168.057ZM325.755 56.605C321.142 56.605 317.277 55.2337 314.161 52.491C311.044 49.7483 309.486 46.4447 309.486 42.58C309.486 39.214 310.67 36.4713 313.039 34.352C315.532 32.108 318.649 30.986 322.389 30.986C325.505 30.986 328.186 31.734 330.43 33.23C332.798 34.726 334.544 36.6583 335.666 39.027C336.788 41.271 337.349 43.6397 337.349 46.133C337.349 48.5017 336.414 50.8703 334.544 53.239C332.798 55.483 329.869 56.605 325.755 56.605ZM375.383 168.244C372.266 168.244 369.773 167.06 367.903 164.691C366.157 162.322 365.285 158.894 365.285 154.406C365.285 146.427 365.098 139.633 364.724 134.023C364.35 128.288 363.913 122.99 363.415 118.128C362.916 113.141 362.48 108.03 362.106 102.794C361.732 97.4333 361.545 91.3247 361.545 84.468C361.545 74.744 362.854 66.2043 365.472 58.849C368.09 51.369 371.643 45.011 376.131 39.775C380.619 34.539 385.792 30.612 391.652 27.994C397.511 25.2513 403.682 23.88 410.165 23.88C412.284 23.88 414.341 24.441 416.336 25.563C418.455 26.685 419.515 28.555 419.515 31.173C419.515 32.9183 418.954 34.4767 417.832 35.848C416.71 37.0947 414.964 38.0297 412.596 38.653C405.24 40.2737 399.256 42.6423 394.644 45.759C390.156 48.8757 386.727 52.678 384.359 57.166C381.99 61.654 380.369 66.8277 379.497 72.687C378.749 78.4217 378.375 84.9043 378.375 92.135C378.375 97.9943 378.686 103.978 379.31 110.087C379.933 116.196 380.556 123.115 381.18 130.844C381.803 138.449 382.115 147.425 382.115 157.772C382.115 161.886 381.554 164.629 380.432 166C379.434 167.496 377.751 168.244 375.383 168.244ZM374.448 91.387C372.702 91.387 371.206 90.9507 369.96 90.078C368.713 89.0807 368.09 87.7717 368.09 86.151C368.09 83.907 368.713 81.7877 369.96 79.793C371.331 77.7983 373.45 76.4893 376.318 75.866C380.556 74.8687 384.795 74.1207 389.034 73.622C393.272 73.1233 397.636 72.874 402.124 72.874C404.368 72.874 406.238 73.3103 407.734 74.183C409.354 74.931 410.539 75.9907 411.287 77.362C412.035 78.6087 412.409 80.0423 412.409 81.663C412.409 83.2837 411.785 84.655 410.539 85.777C409.417 86.7743 407.609 87.3353 405.116 87.46C398.259 87.5847 392.898 88.021 389.034 88.769C385.294 89.3923 382.364 90.0157 380.245 90.639C378.125 91.1377 376.193 91.387 374.448 91.387Z" fill="white"/>
</svg>
