<svg width="2186" height="543" viewBox="0 0 2186 543" fill="none" xmlns="http://www.w3.org/2000/svg">
    <path
        d="M645.513 503.459V502.411C645.251 503.896 644.552 505.555 643.417 507.389C642.369 509.136 641.19 510.62 639.88 511.843C638.57 513.066 636.692 514.157 634.247 515.118C631.889 516.079 628.745 516.559 624.815 516.559C620.885 516.559 617.173 515.686 613.68 513.939C610.187 512.105 607.479 509.616 605.558 506.472C601.89 500.621 600.056 494.202 600.056 487.215C600.056 480.141 601.06 469.705 603.069 455.906H628.483V484.202C628.483 493.809 631.321 498.612 636.998 498.612C639.531 498.612 641.408 497.477 642.631 495.206C643.854 492.935 644.465 490.053 644.465 486.56C644.465 486.123 644.465 485.643 644.465 485.119L643.286 455.906H672.761L670.927 496.123C670.665 501.8 670.228 506.647 669.617 510.664C669.093 514.681 668.045 518.786 666.473 522.978C664.988 527.257 663.023 530.707 660.578 533.327C654.901 539.266 646.474 542.235 635.295 542.235C627.435 542.235 620.055 539.79 613.156 534.899L611.977 534.113L617.479 522.847C621.671 524.768 625.601 525.729 629.269 525.729C634.334 525.729 638.308 523.764 641.19 519.834C644.072 515.991 645.513 510.533 645.513 503.459ZM690.099 511.581C683.811 506.341 680.667 498.044 680.667 486.691C680.667 475.338 683.811 467.085 690.099 461.932C696.474 456.692 704.946 454.072 715.513 454.072C726.08 454.072 734.508 456.692 740.796 461.932C747.171 467.085 750.359 475.338 750.359 486.691C750.359 498.044 747.171 506.341 740.796 511.581C734.508 516.734 726.08 519.31 715.513 519.31C704.946 519.31 696.474 516.734 690.099 511.581ZM710.011 471.888C708.963 474.857 708.439 479.792 708.439 486.691C708.439 493.59 708.963 498.568 710.011 501.625C711.059 504.594 712.893 506.079 715.513 506.079C718.133 506.079 719.967 504.594 721.015 501.625C722.063 498.568 722.587 493.59 722.587 486.691C722.587 479.792 722.063 474.857 721.015 471.888C719.967 468.831 718.133 467.303 715.513 467.303C712.893 467.303 711.059 468.831 710.011 471.888ZM783.637 519.31C767.131 519.31 758.878 508.088 758.878 485.643C758.878 479.617 759.882 469.705 761.891 455.906H787.305V484.202C787.305 494.333 790.143 499.398 795.82 499.398C800.798 499.398 803.287 494.857 803.287 485.774C803.287 485.075 803.287 484.333 803.287 483.547L802.108 455.906H831.583L828.832 518H806.693L805.252 505.948C805.077 506.297 804.859 506.778 804.597 507.389C804.335 508 803.593 509.092 802.37 510.664C801.235 512.149 799.925 513.502 798.44 514.725C796.955 515.86 794.903 516.908 792.283 517.869C789.663 518.83 786.781 519.31 783.637 519.31ZM869.866 464.421C874.494 457.522 880.215 454.072 887.027 454.072C890.258 454.072 893.227 454.858 895.935 456.43L892.791 477.914C889.297 475.469 885.367 474.246 881.001 474.246C876.809 474.246 873.97 475.993 872.486 479.486C871.612 481.669 871.045 483.765 870.783 485.774L868.294 518H844.714L840.784 455.906H866.591L869.866 464.421ZM959.911 432.981L956.374 518H932.27L928.733 432.981H959.911ZM1000.24 457.74L1002.47 456.954L998.012 518H973.253L969.061 456.954C974.039 458.963 979.323 459.967 984.912 459.967C990.589 459.967 995.698 459.225 1000.24 457.74ZM985.698 454.203C981.332 454.203 977.664 452.893 974.694 450.273C971.725 447.653 970.24 444.247 970.24 440.055C970.24 435.776 971.681 432.37 974.563 429.837C977.533 427.217 981.201 425.907 985.567 425.907C990.021 425.907 993.733 427.217 996.702 429.837C999.672 432.457 1001.16 435.863 1001.16 440.055C1001.16 444.247 999.672 447.653 996.702 450.273C993.733 452.893 990.065 454.203 985.698 454.203ZM1018.24 455.906C1018.24 447.871 1020.12 441.758 1023.88 437.566C1027.72 433.287 1034.18 431.147 1043.26 431.147C1047.28 431.147 1051.12 431.715 1054.79 432.85L1056.23 445.557C1054.92 445.208 1053.61 445.033 1052.3 445.033C1048.02 445.033 1045.88 448.09 1045.88 454.203V455.906H1053.87L1055.45 472.936H1046.67L1044.7 518H1020.6L1018.64 472.936H1010.38L1011.95 455.906H1018.24ZM1098.24 519.31C1088.37 519.31 1080.07 516.472 1073.35 510.795C1066.71 505.031 1063.39 496.603 1063.39 485.512C1063.39 478.525 1065.09 472.587 1068.5 467.696C1074.7 458.613 1084.31 454.072 1097.32 454.072C1107.28 454.072 1114.87 456.081 1120.11 460.098C1125.35 464.028 1127.97 469.486 1127.97 476.473C1127.97 481.888 1125.79 486.298 1121.42 489.704C1117.15 493.023 1110.86 494.682 1102.56 494.682C1099.15 494.682 1096.1 494.42 1093.39 493.896L1091.95 493.634C1092.39 496.778 1093.74 499.136 1096.01 500.708C1098.37 502.193 1101.16 502.935 1104.39 502.935C1109.72 502.935 1114.26 501.319 1118.02 498.088L1126.14 507.913C1124.74 509.572 1123.08 511.144 1121.16 512.629C1119.24 514.026 1116.18 515.511 1111.99 517.083C1107.8 518.568 1103.22 519.31 1098.24 519.31ZM1108.85 475.294C1108.85 473.547 1108.15 472.106 1106.75 470.971C1105.44 469.836 1103.61 469.268 1101.25 469.268C1098.89 469.268 1096.67 470.316 1094.57 472.412C1092.56 474.508 1091.56 476.997 1091.56 479.879C1093.48 480.752 1095.97 481.189 1099.02 481.189C1102.17 481.189 1104.57 480.665 1106.23 479.617C1107.98 478.482 1108.85 477.041 1108.85 475.294ZM1216.55 454.072C1221.53 454.072 1225.59 455.557 1228.74 458.526C1231.88 461.408 1233.98 464.901 1235.02 469.006C1236.16 473.111 1236.73 478.351 1236.73 484.726C1236.73 491.101 1235.72 502.193 1233.71 518H1210.79L1207.91 487.608C1207.38 482.368 1206.68 478.875 1205.81 477.128C1204.94 475.381 1203.45 474.508 1201.36 474.508C1196.2 474.508 1193.41 478.918 1192.97 487.739L1191.66 518H1167.56L1164.02 432.981H1195.2L1193.89 467.041C1196.68 461.452 1201.31 457.565 1207.78 455.382C1210.48 454.509 1213.41 454.072 1216.55 454.072ZM1280.12 519.31C1270.25 519.31 1261.95 516.472 1255.23 510.795C1248.59 505.031 1245.27 496.603 1245.27 485.512C1245.27 478.525 1246.97 472.587 1250.38 467.696C1256.58 458.613 1266.19 454.072 1279.2 454.072C1289.16 454.072 1296.75 456.081 1301.99 460.098C1307.23 464.028 1309.85 469.486 1309.85 476.473C1309.85 481.888 1307.67 486.298 1303.3 489.704C1299.03 493.023 1292.74 494.682 1284.44 494.682C1281.03 494.682 1277.98 494.42 1275.27 493.896L1273.83 493.634C1274.27 496.778 1275.62 499.136 1277.89 500.708C1280.25 502.193 1283.04 502.935 1286.27 502.935C1291.6 502.935 1296.14 501.319 1299.9 498.088L1308.02 507.913C1306.62 509.572 1304.96 511.144 1303.04 512.629C1301.12 514.026 1298.06 515.511 1293.87 517.083C1289.68 518.568 1285.1 519.31 1280.12 519.31ZM1290.73 475.294C1290.73 473.547 1290.03 472.106 1288.63 470.971C1287.32 469.836 1285.49 469.268 1283.13 469.268C1280.77 469.268 1278.55 470.316 1276.45 472.412C1274.44 474.508 1273.44 476.997 1273.44 479.879C1275.36 480.752 1277.85 481.189 1280.9 481.189C1284.05 481.189 1286.45 480.665 1288.11 479.617C1289.86 478.482 1290.73 477.041 1290.73 475.294ZM1340.77 519.31C1334.04 519.31 1328.5 517.345 1324.13 513.415C1319.85 509.485 1317.71 503.939 1317.71 496.778C1317.71 489.529 1320.16 484.289 1325.05 481.058C1329.94 477.739 1335.83 476.08 1342.73 476.08C1349.63 476.08 1355.61 477.172 1360.68 479.355C1359.54 472.106 1354.96 468.482 1346.92 468.482C1343.26 468.482 1338.71 469.224 1333.3 470.709L1330.02 458.919C1337.88 455.688 1345.88 454.072 1354 454.072C1377.4 454.072 1389.11 464.028 1389.11 483.94C1389.11 490.752 1388.32 500.184 1386.75 512.236L1386.09 518H1364.48L1363.69 510.795C1357.75 516.472 1350.11 519.31 1340.77 519.31ZM1352.56 503.066C1356.49 503.066 1359.85 501.974 1362.64 499.791L1361.86 491.145C1359.67 489.66 1357.23 488.918 1354.52 488.918C1351.9 488.918 1349.72 489.573 1347.97 490.883C1346.31 492.193 1345.48 493.809 1345.48 495.73C1345.48 497.651 1346.14 499.354 1347.45 500.839C1348.76 502.324 1350.46 503.066 1352.56 503.066ZM1429.4 432.981L1425.87 518H1401.76L1398.22 432.981H1429.4ZM1473.27 494.682C1473.18 499.747 1474.97 502.28 1478.64 502.28C1479.69 502.28 1480.95 501.8 1482.44 500.839L1485.19 513.546C1484.67 513.983 1483.92 514.55 1482.96 515.249C1482.09 515.86 1480.12 516.69 1477.07 517.738C1474.1 518.786 1471 519.31 1467.77 519.31C1461.83 519.31 1456.98 517.301 1453.23 513.284C1449.47 509.179 1447.46 503.983 1447.2 497.695L1446.02 472.936H1435.93L1437.51 455.906H1445.37L1444.84 443.068L1475.89 436.78L1474.97 455.906H1482.57L1484.14 472.936H1474.19L1473.27 494.682ZM1546.89 454.072C1551.87 454.072 1555.93 455.557 1559.08 458.526C1562.22 461.408 1564.32 464.901 1565.36 469.006C1566.5 473.111 1567.07 478.351 1567.07 484.726C1567.07 491.101 1566.06 502.193 1564.05 518H1541.13L1538.25 487.608C1537.72 482.368 1537.02 478.875 1536.15 477.128C1535.28 475.381 1533.79 474.508 1531.7 474.508C1526.54 474.508 1523.75 478.918 1523.31 487.739L1522 518H1497.9L1494.36 432.981H1525.54L1524.23 467.041C1527.02 461.452 1531.65 457.565 1538.12 455.382C1540.82 454.509 1543.75 454.072 1546.89 454.072ZM1626.2 519.31C1619.48 519.31 1613.93 517.345 1609.57 513.415C1605.29 509.485 1603.15 503.939 1603.15 496.778C1603.15 489.529 1605.59 484.289 1610.48 481.058C1615.37 477.739 1621.27 476.08 1628.17 476.08C1635.07 476.08 1641.05 477.172 1646.12 479.355C1644.98 472.106 1640.4 468.482 1632.36 468.482C1628.69 468.482 1624.15 469.224 1618.74 470.709L1615.46 458.919C1623.32 455.688 1631.31 454.072 1639.43 454.072C1662.84 454.072 1674.54 464.028 1674.54 483.94C1674.54 490.752 1673.76 500.184 1672.18 512.236L1671.53 518H1649.91L1649.13 510.795C1643.19 516.472 1635.55 519.31 1626.2 519.31ZM1637.99 503.066C1641.92 503.066 1645.29 501.974 1648.08 499.791L1647.29 491.145C1645.11 489.66 1642.67 488.918 1639.96 488.918C1637.34 488.918 1635.16 489.573 1633.41 490.883C1631.75 492.193 1630.92 493.809 1630.92 495.73C1630.92 497.651 1631.57 499.354 1632.88 500.839C1634.19 502.324 1635.9 503.066 1637.99 503.066ZM1740.52 498.35C1740.52 503.328 1738.86 507.476 1735.54 510.795C1732.22 514.114 1728.38 516.384 1724.01 517.607C1719.73 518.742 1715.58 519.31 1711.56 519.31C1707.55 519.31 1704.01 519.048 1700.95 518.524C1697.98 518 1695.45 517.389 1693.36 516.69C1689.51 515.205 1686.46 513.808 1684.19 512.498L1683.01 511.712L1688.77 499.791C1694.01 502.76 1698.42 504.245 1702 504.245C1705.58 504.245 1707.37 502.76 1707.37 499.791C1707.37 498.306 1706.24 496.778 1703.97 495.206C1701.7 493.634 1699.21 492.149 1696.5 490.752C1693.88 489.355 1691.43 487.215 1689.16 484.333C1686.89 481.451 1685.76 478.132 1685.76 474.377C1685.76 467.652 1688.29 462.587 1693.36 459.181C1698.42 455.775 1705.1 454.072 1713.4 454.072C1717.59 454.072 1721.69 454.421 1725.71 455.12C1729.73 455.819 1732.74 456.517 1734.75 457.216L1737.63 458.395L1734.36 471.626C1729.38 469.792 1725.14 468.875 1721.65 468.875C1718.16 468.875 1716.41 470.229 1716.41 472.936C1716.41 474.246 1717.24 475.512 1718.9 476.735C1720.56 477.87 1722.57 479.006 1724.93 480.141C1727.28 481.276 1729.64 482.586 1732 484.071C1734.36 485.468 1736.37 487.433 1738.03 489.966C1739.69 492.411 1740.52 495.206 1740.52 498.35ZM1805.92 498.35C1805.92 503.328 1804.26 507.476 1800.94 510.795C1797.62 514.114 1793.78 516.384 1789.41 517.607C1785.13 518.742 1780.98 519.31 1776.97 519.31C1772.95 519.31 1769.41 519.048 1766.36 518.524C1763.39 518 1760.85 517.389 1758.76 516.69C1754.92 515.205 1751.86 513.808 1749.59 512.498L1748.41 511.712L1754.17 499.791C1759.41 502.76 1763.82 504.245 1767.4 504.245C1770.98 504.245 1772.78 502.76 1772.78 499.791C1772.78 498.306 1771.64 496.778 1769.37 495.206C1767.1 493.634 1764.61 492.149 1761.9 490.752C1759.28 489.355 1756.84 487.215 1754.57 484.333C1752.3 481.451 1751.16 478.132 1751.16 474.377C1751.16 467.652 1753.69 462.587 1758.76 459.181C1763.82 455.775 1770.5 454.072 1778.8 454.072C1782.99 454.072 1787.1 454.421 1791.12 455.12C1795.13 455.819 1798.15 456.517 1800.15 457.216L1803.04 458.395L1799.76 471.626C1794.78 469.792 1790.55 468.875 1787.05 468.875C1783.56 468.875 1781.81 470.229 1781.81 472.936C1781.81 474.246 1782.64 475.512 1784.3 476.735C1785.96 477.87 1787.97 479.006 1790.33 480.141C1792.69 481.276 1795.05 482.586 1797.4 484.071C1799.76 485.468 1801.77 487.433 1803.43 489.966C1805.09 492.411 1805.92 495.206 1805.92 498.35ZM1845.64 457.74L1847.87 456.954L1843.42 518H1818.66L1814.47 456.954C1819.44 458.963 1824.73 459.967 1830.32 459.967C1835.99 459.967 1841.1 459.225 1845.64 457.74ZM1831.1 454.203C1826.74 454.203 1823.07 452.893 1820.1 450.273C1817.13 447.653 1815.65 444.247 1815.65 440.055C1815.65 435.776 1817.09 432.37 1819.97 429.837C1822.94 427.217 1826.61 425.907 1830.97 425.907C1835.43 425.907 1839.14 427.217 1842.11 429.837C1845.08 432.457 1846.56 435.863 1846.56 440.055C1846.56 444.247 1845.08 447.653 1842.11 450.273C1839.14 452.893 1835.47 454.203 1831.1 454.203ZM1913.95 498.35C1913.95 503.328 1912.29 507.476 1908.97 510.795C1905.66 514.114 1901.81 516.384 1897.45 517.607C1893.17 518.742 1889.02 519.31 1885 519.31C1880.98 519.31 1877.45 519.048 1874.39 518.524C1871.42 518 1868.89 517.389 1866.79 516.69C1862.95 515.205 1859.89 513.808 1857.62 512.498L1856.44 511.712L1862.21 499.791C1867.45 502.76 1871.86 504.245 1875.44 504.245C1879.02 504.245 1880.81 502.76 1880.81 499.791C1880.81 498.306 1879.67 496.778 1877.4 495.206C1875.13 493.634 1872.64 492.149 1869.94 490.752C1867.32 489.355 1864.87 487.215 1862.6 484.333C1860.33 481.451 1859.19 478.132 1859.19 474.377C1859.19 467.652 1861.73 462.587 1866.79 459.181C1871.86 455.775 1878.54 454.072 1886.84 454.072C1891.03 454.072 1895.13 454.421 1899.15 455.12C1903.17 455.819 1906.18 456.517 1908.19 457.216L1911.07 458.395L1907.8 471.626C1902.82 469.792 1898.58 468.875 1895.09 468.875C1891.59 468.875 1889.85 470.229 1889.85 472.936C1889.85 474.246 1890.68 475.512 1892.34 476.735C1894 477.87 1896.01 479.006 1898.36 480.141C1900.72 481.276 1903.08 482.586 1905.44 484.071C1907.8 485.468 1909.8 487.433 1911.46 489.966C1913.12 492.411 1913.95 495.206 1913.95 498.35ZM1957.22 494.682C1957.13 499.747 1958.92 502.28 1962.59 502.28C1963.63 502.28 1964.9 501.8 1966.39 500.839L1969.14 513.546C1968.61 513.983 1967.87 514.55 1966.91 515.249C1966.04 515.86 1964.07 516.69 1961.01 517.738C1958.05 518.786 1954.95 519.31 1951.71 519.31C1945.78 519.31 1940.93 517.301 1937.17 513.284C1933.42 509.179 1931.41 503.983 1931.15 497.695L1929.97 472.936H1919.88L1921.45 455.906H1929.31L1928.79 443.068L1959.84 436.78L1958.92 455.906H1966.52L1968.09 472.936H1958.13L1957.22 494.682ZM2000.71 519.31C1993.99 519.31 1988.44 517.345 1984.07 513.415C1979.79 509.485 1977.65 503.939 1977.65 496.778C1977.65 489.529 1980.1 484.289 1984.99 481.058C1989.88 477.739 1995.78 476.08 2002.68 476.08C2009.57 476.08 2015.56 477.172 2020.62 479.355C2019.49 472.106 2014.9 468.482 2006.87 468.482C2003.2 468.482 1998.66 469.224 1993.24 470.709L1989.97 458.919C1997.83 455.688 2005.82 454.072 2013.94 454.072C2037.35 454.072 2049.05 464.028 2049.05 483.94C2049.05 490.752 2048.26 500.184 2046.69 512.236L2046.04 518H2024.42L2023.64 510.795C2017.7 516.472 2010.05 519.31 2000.71 519.31ZM2012.5 503.066C2016.43 503.066 2019.79 501.974 2022.59 499.791L2021.8 491.145C2019.62 489.66 2017.17 488.918 2014.47 488.918C2011.85 488.918 2009.66 489.573 2007.92 490.883C2006.26 492.193 2005.43 493.809 2005.43 495.73C2005.43 497.651 2006.08 499.354 2007.39 500.839C2008.7 502.324 2010.4 503.066 2012.5 503.066ZM2107.69 454.072C2113.8 454.072 2119.04 456.648 2123.41 461.801C2127.86 466.954 2130.09 473.678 2130.09 481.975C2130.09 490.184 2129.08 502.193 2127.07 518H2104.15L2101.53 488.656C2100.66 479.311 2098.12 474.639 2093.93 474.639C2088.95 474.639 2086.29 479.355 2085.94 488.787L2085.02 518H2060.92L2058.17 455.906H2087.77L2087.25 467.041C2087.69 466.168 2088.69 464.814 2090.26 462.98C2091.83 461.146 2093.36 459.661 2094.85 458.526C2098.69 455.557 2102.97 454.072 2107.69 454.072ZM2174.02 494.682C2173.93 499.747 2175.72 502.28 2179.39 502.28C2180.44 502.28 2181.71 501.8 2183.19 500.839L2185.94 513.546C2185.42 513.983 2184.68 514.55 2183.71 515.249C2182.84 515.86 2180.88 516.69 2177.82 517.738C2174.85 518.786 2171.75 519.31 2168.52 519.31C2162.58 519.31 2157.73 517.301 2153.98 513.284C2150.22 509.179 2148.21 503.983 2147.95 497.695L2146.77 472.936H2136.69L2138.26 455.906H2146.12L2145.59 443.068L2176.64 436.78L2175.72 455.906H2183.32L2184.89 472.936H2174.94L2174.02 494.682Z"
        fill="#000000" />
    <path
        d="M493.703 240.31C461.22 229.961 418.4 233.184 381.337 240.597C414.69 224.302 449.522 201.525 467.579 174.415C467.579 174.415 500.062 134.52 453.686 99.1734C453.686 99.1734 429.834 80.0124 402.539 90.8289V90.6142C386.182 95.6638 381.148 80.9803 381.148 80.9803L381.034 81.0517C372.668 54.2629 341.925 48.8204 341.925 48.8204C283.662 37.0725 271.395 86.0294 271.395 86.0294C260.378 116.755 263.861 157.296 271.659 192.319C254.435 160.769 230.356 127.857 201.697 110.776C201.697 110.776 159.559 80.0484 122.153 123.919C122.153 123.919 101.899 146.445 113.295 172.265H113.105C118.443 187.772 102.92 192.536 102.92 192.536L102.998 192.642C74.678 200.558 68.9227 229.637 68.9227 229.637C56.5053 284.753 108.297 296.356 108.297 296.356C140.78 306.742 183.6 303.482 220.625 296.068C187.271 312.401 152.479 335.177 134.382 362.287C134.382 362.287 101.938 402.183 148.314 437.529C148.314 437.529 172.165 456.688 199.461 445.908V446.051C215.818 441.038 220.852 455.685 220.852 455.685L220.966 455.614C229.332 482.437 260.075 487.882 260.075 487.882C318.338 499.593 330.605 450.635 330.605 450.635C336.474 434.126 338.139 414.823 337.269 395.055C348.816 441.396 379.065 502.636 459.137 518L484.654 499.842L473.146 461.201C473.146 461.201 387.659 446.911 358.622 387.427C371.001 403.006 384.971 416.758 400.303 425.926C400.303 425.926 442.479 456.653 479.847 412.782C479.847 412.782 500.101 390.22 488.705 364.399H488.895C483.557 348.929 499.078 344.165 499.078 344.165L498.965 344.057C527.322 336.144 533.077 307.064 533.077 307.064C545.495 251.913 493.703 240.31 493.703 240.31Z"
        fill="#00FA00" />
    <path
        d="M801.178 347L771.598 48.242H926.893L904.708 270.585L993.941 265.655L965.84 347H801.178ZM1050.74 347L1021.16 48.242H1176.45L1146.87 347H1050.74ZM1426.52 160.646V206.495L1343.7 227.201L1331.87 347H1235.73L1206.15 48.242H1432.93L1448.21 109.374L1355.04 115.29L1350.11 160.646H1426.52ZM1663.38 351.93C1638.07 351.93 1617.2 344.535 1600.77 329.745C1584.67 314.955 1576.61 294.085 1576.61 267.134C1576.61 239.855 1585.82 220.135 1604.22 207.974C1622.63 195.485 1644.81 189.24 1670.78 189.24C1696.74 189.24 1719.25 193.348 1738.32 201.565C1734.04 174.286 1716.79 160.646 1686.55 160.646C1672.75 160.646 1655.66 163.44 1635.28 169.027L1622.95 124.657C1652.53 112.496 1682.61 106.416 1713.17 106.416C1801.26 106.416 1845.3 143.884 1845.3 218.82C1845.3 244.456 1842.34 279.952 1836.42 325.308L1833.96 347H1752.61L1749.66 319.885C1727.31 341.248 1698.55 351.93 1663.38 351.93ZM1707.75 290.798C1722.54 290.798 1735.19 286.69 1745.71 278.473L1742.75 245.935C1734.54 240.348 1725.33 237.554 1715.15 237.554C1705.29 237.554 1697.07 240.019 1690.5 244.949C1684.25 249.879 1681.13 255.959 1681.13 263.19C1681.13 270.421 1683.59 276.83 1688.52 282.417C1693.45 288.004 1699.86 290.798 1707.75 290.798ZM1996.95 120.22L2005.33 117.262L1988.57 347H1895.39L1879.62 117.262C1898.35 124.821 1918.23 128.601 1939.27 128.601C1960.63 128.601 1979.86 125.807 1996.95 120.22ZM1942.23 106.909C1925.79 106.909 1911.99 101.979 1900.81 92.119C1889.64 82.259 1884.05 69.441 1884.05 53.665C1884.05 37.5603 1889.48 24.7423 1900.32 15.211C1911.5 5.35099 1925.3 0.420996 1941.73 0.420996C1958.5 0.420996 1972.46 5.35099 1983.64 15.211C1994.81 25.071 2000.4 37.889 2000.4 53.665C2000.4 69.441 1994.81 82.259 1983.64 92.119C1972.46 101.979 1958.66 106.909 1942.23 106.909Z"
        fill="#000000" />
</svg>