<svg width="741" height="200" viewBox="0 0 741 200" fill="none" xmlns="http://www.w3.org/2000/svg">
<path d="M161.766 78.0235C151.355 74.5169 137.63 75.6091 125.75 78.121C136.441 72.5996 147.605 64.8816 153.393 55.6956C153.393 55.6956 163.805 42.1772 148.94 30.2003C148.94 30.2003 141.295 23.7077 132.546 27.3728V27.3001C127.303 29.0111 125.69 24.0357 125.69 24.0357L125.653 24.0599C122.971 14.9826 113.118 13.1385 113.118 13.1385C94.4424 9.15779 90.5106 25.7465 90.5106 25.7465C86.9792 36.1577 88.0957 49.8948 90.5952 61.7623C85.0743 51.0716 77.3564 39.9197 68.1704 34.1317C68.1704 34.1317 54.6639 23.7199 42.6745 38.5852C42.6745 38.5852 36.1825 46.2181 39.8352 54.9671H39.7742C41.4853 60.2216 36.5099 61.8357 36.5099 61.8357L36.5346 61.8717C27.4574 64.5538 25.6126 74.4072 25.6126 74.4072C21.6325 93.0829 38.2333 97.0146 38.2333 97.0146C48.645 100.534 62.3697 99.429 74.2373 96.9171C63.5465 102.451 52.3947 110.169 46.5942 119.355C46.5942 119.355 36.1949 132.873 51.0596 144.85C51.0596 144.85 58.7048 151.342 67.4539 147.689V147.738C72.6965 146.039 74.31 151.002 74.31 151.002L74.3468 150.978C77.0284 160.067 86.8821 161.912 86.8821 161.912C105.557 165.88 109.489 149.291 109.489 149.291C111.37 143.697 111.904 137.156 111.625 130.458C115.326 146.16 125.022 166.911 150.687 172.117L158.866 165.964L155.177 152.871C155.177 152.871 127.776 148.029 118.469 127.874C122.437 133.152 126.915 137.812 131.829 140.918C131.829 140.918 145.348 151.33 157.325 136.465C157.325 136.465 163.817 128.82 160.164 120.071H160.225C158.514 114.829 163.489 113.214 163.489 113.214L163.453 113.178C172.542 110.496 174.387 100.643 174.387 100.643C178.367 81.9552 161.766 78.0235 161.766 78.0235Z" fill="#00FA00"/>
<path d="M285.272 140.617C285.272 141.864 285.334 142.986 285.459 143.983C285.708 148.471 285.833 151.899 285.833 154.268C285.833 156.512 285.646 158.195 285.272 159.317C285.023 160.314 284.524 160.875 283.776 161C283.028 161 281.968 161 280.597 161C279.226 160.875 277.418 160.875 275.174 161C273.055 161.125 269.377 161.249 264.141 161.374C259.03 161.499 251.924 161.561 242.823 161.561C233.847 161.561 221.817 161.436 206.732 161.187V157.821C207.106 148.471 207.418 140.056 207.667 132.576C207.916 124.971 208.041 117.928 208.041 111.445C208.166 104.838 208.228 98.4797 208.228 92.371C208.228 86.2623 208.166 80.029 208.041 73.671C207.916 67.313 207.792 60.581 207.667 53.475C207.542 46.2443 207.418 38.2657 207.293 29.539C208.54 29.0403 210.472 28.6663 213.09 28.417C215.708 28.043 218.513 27.856 221.505 27.856C224.497 27.856 227.427 28.043 230.294 28.417C233.161 28.791 235.468 29.352 237.213 30.1C236.964 38.2033 236.839 46.556 236.839 55.158C236.964 63.6353 237.088 72.175 237.213 80.777C237.338 89.379 237.4 97.981 237.4 106.583C237.525 115.06 237.525 123.288 237.4 131.267V131.454C238.273 131.205 239.893 131.142 242.262 131.267C244.755 131.267 247.623 131.329 250.864 131.454C254.105 131.579 257.534 131.766 261.149 132.015C264.889 132.14 268.38 132.264 271.621 132.389C274.987 132.514 277.917 132.638 280.41 132.763C283.028 132.763 284.836 132.701 285.833 132.576C285.833 133.947 285.771 135.319 285.646 136.69C285.521 137.937 285.397 139.246 285.272 140.617ZM305.456 66.939C308.324 67.0637 311.752 67.0637 315.741 66.939H318.92V67.5C318.796 82.5847 318.484 97.981 317.985 113.689C317.611 129.397 317.861 144.793 318.733 159.878C318.11 160.626 316.552 161 314.058 161C311.565 161.125 308.822 161.125 305.83 161C302.963 161 300.22 160.938 297.602 160.813C294.984 160.688 293.239 160.751 292.366 161C292.99 153.146 293.239 145.167 293.114 137.064C293.114 128.961 292.99 120.92 292.74 112.941C292.491 104.962 292.366 97.1083 292.366 89.379C292.366 81.525 292.74 73.9203 293.488 66.565V66.378C293.987 66.2533 294.797 66.2533 295.919 66.378C297.166 66.5027 298.101 66.565 298.724 66.565C300.345 66.6897 302.589 66.8143 305.456 66.939ZM292.927 40.759C292.678 36.7697 292.616 31.9077 292.74 26.173L318.172 26.734C318.172 27.482 318.172 28.8533 318.172 30.848C318.297 32.718 318.359 34.8373 318.359 37.206C318.484 39.45 318.546 41.8187 318.546 44.312C318.671 46.6807 318.733 48.8 318.733 50.67C318.235 51.418 317.05 51.9167 315.18 52.166C313.435 52.4153 311.316 52.54 308.822 52.54C306.454 52.4153 303.898 52.2907 301.155 52.166C298.413 51.9167 295.857 51.8543 293.488 51.979C293.488 48.3637 293.301 44.6237 292.927 40.759ZM365.302 94.428V135.194V160.252C363.183 160.003 361.063 159.94 358.944 160.065C356.825 160.19 354.705 160.377 352.586 160.626C350.467 160.751 348.41 160.875 346.415 161C344.545 161.125 342.8 161.062 341.179 160.813C340.93 159.317 340.743 156.886 340.618 153.52C340.618 150.029 340.556 146.165 340.431 141.926C340.431 137.563 340.431 133.012 340.431 128.275C340.431 123.538 340.431 118.987 340.431 114.624C340.556 110.136 340.618 106.147 340.618 102.656C340.743 99.1653 340.805 96.485 340.805 94.615C338.81 94.615 336.691 94.615 334.447 94.615C332.328 94.615 330.021 94.6773 327.528 94.802L326.967 71.988C329.585 71.988 331.954 71.988 334.073 71.988C336.317 71.988 338.436 72.0503 340.431 72.175C340.182 69.0583 340.244 65.6923 340.618 62.077C340.992 58.4617 341.865 54.971 343.236 51.605C344.732 48.1143 346.789 44.9977 349.407 42.255C352.025 39.3877 355.453 37.2683 359.692 35.897C364.928 34.1517 370.6 33.092 376.709 32.718C382.942 32.2193 388.989 32.0947 394.848 32.344C395.471 34.214 395.845 36.271 395.97 38.515C396.219 40.759 396.282 43.003 396.157 45.247C396.032 47.491 395.845 49.6727 395.596 51.792C395.347 53.9113 395.097 55.8437 394.848 57.589C393.352 57.4643 391.607 57.4643 389.612 57.589C387.742 57.7137 385.747 57.9007 383.628 58.15C381.509 58.3993 379.389 58.711 377.27 59.085C375.151 59.3343 373.218 59.5837 371.473 59.833C368.606 60.3317 366.798 61.8277 366.05 64.321C365.427 66.6897 365.427 69.4323 366.05 72.549H394.661C394.412 73.9203 394.349 75.2917 394.474 76.663C394.599 77.9097 394.599 79.4057 394.474 81.151C394.474 82.5223 394.474 83.6443 394.474 84.517C394.474 85.265 394.412 86.0753 394.287 86.948C394.287 87.8207 394.225 88.9427 394.1 90.314C393.975 91.6853 393.788 93.5553 393.539 95.924C387.181 95.55 381.82 95.2383 377.457 94.989C373.218 94.7397 369.167 94.5527 365.302 94.428Z" fill="white"/>
<path d="M452.205 57.589C450.46 57.963 449.088 58.6487 448.091 59.646C447.842 59.8953 447.592 60.3317 447.343 60.955C447.218 61.4537 447.094 61.8277 446.969 62.077C446.72 62.451 446.47 64.6327 446.221 68.622C446.096 72.6113 445.972 77.3487 445.847 82.834C445.722 88.3193 445.66 94.054 445.66 100.038C445.66 105.897 445.847 111.009 446.221 115.372C446.595 118.987 447.53 122.54 449.026 126.031C450.647 129.397 453.265 131.579 456.88 132.576C459.623 132.825 462.178 132.451 464.547 131.454C467.04 130.332 468.91 128.524 470.157 126.031C471.528 123.164 472.089 120.172 471.84 117.055C471.715 113.814 471.965 110.635 472.588 107.518C474.333 107.767 476.266 107.83 478.385 107.705C480.629 107.58 482.873 107.518 485.117 107.518C487.361 107.518 489.543 107.58 491.662 107.705C493.906 107.83 495.901 108.141 497.646 108.64C499.765 115.123 500.326 121.605 499.329 128.088C498.332 134.446 496.15 140.181 492.784 145.292C489.418 150.403 484.992 154.642 479.507 158.008C474.146 161.249 468.038 162.932 461.181 163.057C456.693 163.68 452.08 163.68 447.343 163.057C442.606 162.558 438.18 161.374 434.066 159.504C429.952 157.509 426.461 154.767 423.594 151.276C420.851 147.785 419.231 143.422 418.732 138.186C418.483 133.698 418.296 129.023 418.171 124.161C418.046 119.299 417.922 113.876 417.797 107.892C417.797 101.783 417.797 94.9267 417.797 87.322C417.922 79.5927 418.046 70.679 418.171 60.581C417.922 58.4617 417.984 56.3423 418.358 54.223C418.857 51.979 419.48 49.922 420.228 48.052C421.35 44.8107 422.721 41.8187 424.342 39.076C426.087 36.3333 428.144 33.9023 430.513 31.783C431.884 30.7857 433.38 29.9753 435.001 29.352C436.622 28.604 438.305 27.9807 440.05 27.482C445.785 25.612 451.457 24.864 457.067 25.238C462.677 25.612 467.913 26.921 472.775 29.165C477.762 31.2843 482.25 34.1517 486.239 37.767C490.228 41.3823 493.407 45.5587 495.776 50.296C498.145 54.9087 499.578 59.9577 500.077 65.443C500.576 70.9283 499.828 76.5383 497.833 82.273C493.22 83.2703 488.67 83.6443 484.182 83.395C479.819 83.021 475.268 82.3977 470.531 81.525C470.157 79.1563 469.908 76.476 469.783 73.484C469.783 70.492 469.471 67.7493 468.848 65.256C468.225 62.638 467.04 60.5187 465.295 58.898C463.674 57.2773 461.056 56.5293 457.441 56.654C455.82 56.9033 454.075 57.215 452.205 57.589ZM574.743 67.313C577.859 67.4377 581.412 67.6247 585.402 67.874C585.526 68.622 585.589 69.37 585.589 70.118C585.713 70.866 585.776 71.614 585.776 72.362V74.232C585.402 87.696 585.464 100.973 585.963 114.063C586.461 127.028 586.274 140.181 585.402 153.52C585.402 155.141 585.339 156.761 585.215 158.382C585.215 160.003 584.467 160.938 582.971 161.187H580.727C578.732 161.187 576.675 161.125 574.556 161C572.561 160.751 570.566 160.626 568.572 160.626C567.2 160.626 565.829 160.751 564.458 161C563.211 161.125 561.902 161.187 560.531 161.187C559.658 160.938 559.035 160.439 558.661 159.691C558.411 158.943 558.287 158.07 558.287 157.073C558.287 155.702 558.411 154.58 558.661 153.707C558.91 152.834 559.035 151.775 559.035 150.528C556.043 153.52 552.24 156.076 547.628 158.195C543.14 160.314 538.714 161.374 534.351 161.374C529.489 161.374 525.312 159.691 521.822 156.325C518.456 152.959 515.651 148.783 513.407 143.796C511.163 138.809 509.48 133.386 508.358 127.527C507.36 121.668 506.862 116.245 506.862 111.258C506.862 105.025 507.672 99.29 509.293 94.054C510.913 88.818 513.095 84.33 515.838 80.59C518.705 76.7253 522.071 73.7333 525.936 71.614C529.8 69.37 533.914 68.1857 538.278 68.061C540.522 68.061 542.579 68.1233 544.449 68.248C546.443 68.248 548.251 68.5597 549.872 69.183C551.492 69.6817 552.926 70.5543 554.173 71.801C555.419 72.923 556.479 74.5437 557.352 76.663C557.227 74.6683 557.289 72.9853 557.539 71.614C557.913 70.118 558.1 68.622 558.1 67.126C558.1 67.0013 558.474 66.939 559.222 66.939C560.094 66.8143 561.029 66.8143 562.027 66.939C563.024 66.939 564.021 66.939 565.019 66.939C566.016 66.939 566.702 66.939 567.076 66.939C569.195 67.0637 571.751 67.1883 574.743 67.313ZM536.221 96.859C533.353 99.2277 531.608 101.97 530.985 105.087C530.486 106.708 530.174 108.391 530.05 110.136C529.925 111.757 529.863 113.377 529.863 114.998C529.863 120.608 531.296 125.408 534.164 129.397C537.156 133.262 541.27 135.194 546.506 135.194C549.622 135.194 551.929 134.695 553.425 133.698C555.045 132.576 556.167 131.08 556.791 129.21C557.539 127.215 557.913 124.847 557.913 122.104C558.037 119.237 558.1 116.058 558.1 112.567C558.1 108.204 558.037 104.775 557.913 102.282C557.913 99.664 557.601 97.6693 556.978 96.298C556.479 94.9267 555.544 94.054 554.173 93.68C552.926 93.306 550.994 93.119 548.376 93.119C543.264 93.119 539.213 94.3657 536.221 96.859ZM624.407 72.175C624.532 72.549 624.594 73.1723 624.594 74.045C625.093 73.7957 626.215 73.297 627.96 72.549C629.83 71.801 631.638 71.1153 633.383 70.492C635.752 69.744 638.432 69.183 641.424 68.809C644.416 68.3103 647.221 67.9987 649.839 67.874C652.457 67.7493 654.639 67.7493 656.384 67.874C658.254 67.874 659.189 67.9363 659.189 68.061C659.189 72.2997 659.127 76.0397 659.002 79.281C659.002 82.5223 659.002 85.452 659.002 88.07C659.002 90.5633 659.002 92.8697 659.002 94.989C659.002 97.1083 659.065 99.103 659.189 100.973L657.506 100.412C656.883 100.163 656.197 99.9757 655.449 99.851C654.826 99.6017 654.202 99.3523 653.579 99.103C652.083 98.729 650.525 98.4173 648.904 98.168C647.408 97.9187 646.598 97.794 646.473 97.794C643.107 97.42 639.99 97.233 637.123 97.233C634.38 97.233 631.949 97.6693 629.83 98.542C627.835 99.4147 626.277 100.786 625.155 102.656C624.033 104.526 623.534 107.206 623.659 110.697C623.784 115.06 623.908 119.174 624.033 123.039C624.158 126.904 624.22 130.831 624.22 134.82C624.22 138.685 624.22 142.674 624.22 146.788C624.345 150.777 624.407 155.078 624.407 159.691V160.439C622.288 161.062 620.355 161.436 618.61 161.561C616.865 161.686 615.057 161.686 613.187 161.561C611.317 161.561 609.26 161.499 607.016 161.374C604.897 161.249 602.341 161.312 599.349 161.561C599.349 146.227 599.162 130.893 598.788 115.559C598.539 100.225 598.663 84.33 599.162 67.874C600.658 67.9987 601.905 68.1233 602.902 68.248C603.899 68.248 604.834 68.248 605.707 68.248C606.58 68.248 607.515 68.248 608.512 68.248C609.509 68.1233 610.756 67.9987 612.252 67.874C612.751 67.874 613.623 67.8117 614.87 67.687C616.241 67.5623 617.613 67.4377 618.984 67.313C620.48 67.1883 621.727 67.1883 622.724 67.313C623.846 67.313 624.407 67.4377 624.407 67.687C624.407 68.6843 624.407 69.4323 624.407 69.931C624.407 70.4297 624.407 70.866 624.407 71.24C624.407 71.4893 624.407 71.801 624.407 72.175ZM696.246 114.624C693.503 114.499 691.509 114.312 690.262 114.063V117.429C690.387 121.169 690.511 124.223 690.636 126.592C690.885 128.961 691.696 131.267 693.067 133.511C694.563 136.378 696.682 138.498 699.425 139.869C702.168 141.24 704.848 141.677 707.466 141.178C710.084 140.679 712.266 139.183 714.011 136.69C715.881 134.072 716.691 130.207 716.442 125.096C717.689 125.221 719.372 125.283 721.491 125.283C723.61 125.158 725.792 125.034 728.036 124.909C730.405 124.784 732.649 124.784 734.768 124.909C736.887 124.909 738.633 125.096 740.004 125.47C739.755 128.711 739.505 131.89 739.256 135.007C739.007 138.124 738.695 141.053 738.321 143.796C737.947 146.414 737.448 148.72 736.825 150.715C736.326 152.585 735.641 153.894 734.768 154.642C732.649 157.634 729.906 159.753 726.54 161C723.174 162.247 719.496 162.995 715.507 163.244C711.518 163.493 707.404 163.493 703.165 163.244C699.051 162.995 695.249 162.87 691.758 162.87C688.267 162.371 685.026 161.249 682.034 159.504C678.668 157.135 675.863 154.081 673.619 150.341C671.375 146.476 669.567 142.3 668.196 137.812C666.825 133.199 665.89 128.337 665.391 123.226C664.892 118.115 664.768 113.003 665.017 107.892C665.391 103.279 665.765 98.8537 666.139 94.615C666.638 90.2517 667.635 86.013 669.131 81.899C670.752 78.2837 673.245 75.2293 676.611 72.736C679.977 70.118 683.779 68.1857 688.018 66.939C692.257 65.5677 696.745 64.8197 701.482 64.695C706.219 64.5703 710.832 65.069 715.32 66.191C721.055 67.1883 725.667 69.183 729.158 72.175C732.649 75.167 735.267 78.7823 737.012 83.021C738.882 87.2597 740.004 91.9347 740.378 97.046C740.752 102.157 740.752 107.331 740.378 112.567C739.505 112.816 737.822 113.066 735.329 113.315C732.96 113.564 730.093 113.814 726.727 114.063C723.486 114.312 719.995 114.499 716.255 114.624C712.515 114.749 708.9 114.811 705.409 114.811C702.043 114.811 698.989 114.749 696.246 114.624ZM718.125 90.127C716.878 87.883 715.133 86.2 712.889 85.078C711.892 84.4547 710.894 84.0183 709.897 83.769C708.9 83.395 707.715 83.208 706.344 83.208C703.352 83.208 700.921 83.5197 699.051 84.143C697.181 84.7663 695.685 85.639 694.563 86.761C693.441 87.883 692.568 89.192 691.945 90.688C691.446 92.184 691.072 93.7423 690.823 95.363C690.574 96.7343 690.449 97.7317 690.449 98.355C690.574 98.8537 691.197 99.2277 692.319 99.477C693.441 99.6017 695.186 99.664 697.555 99.664C700.048 99.5393 703.664 99.477 708.401 99.477C711.642 99.477 714.073 99.5393 715.694 99.664C717.315 99.7887 718.437 99.851 719.06 99.851C719.808 99.7263 720.182 99.5393 720.182 99.29C720.182 98.916 720.182 98.2303 720.182 97.233C720.182 94.7397 719.496 92.371 718.125 90.127Z" fill="white"/>
</svg>
