<?xml version="1.0" encoding="UTF-8" standalone="no"?>
<svg
   xmlns:dc="http://purl.org/dc/elements/1.1/"
   xmlns:cc="http://creativecommons.org/ns#"
   xmlns:rdf="http://www.w3.org/1999/02/22-rdf-syntax-ns#"
   xmlns:svg="http://www.w3.org/2000/svg"
   xmlns="http://www.w3.org/2000/svg"
   viewBox="0 0 3779.5332 3779.5332"
   height="3779.5332"
   width="3779.5332"
   xml:space="preserve"
   id="svg2"
   version="1.1"><metadata
     id="metadata8"><rdf:RDF><cc:Work
         rdf:about=""><dc:format>image/svg+xml</dc:format><dc:type
           rdf:resource="http://purl.org/dc/dcmitype/StillImage" /></cc:Work></rdf:RDF></metadata><defs
     id="defs6" /><g
     transform="matrix(1.3333333,0,0,-1.3333333,0,3779.5333)"
     id="g10"><g
       transform="scale(0.1)"
       id="g12"><g
         transform="scale(1.73902)"
         id="g14"><path
           id="path16"
           style="fill:#fefefe;fill-opacity:1;fill-rule:evenodd;stroke:none"
           d="M 0,16300.3 H 16300.3 V 0 H 0 v 16300.3" /></g><g
         transform="scale(1.61257)"
         id="g18"><path
           id="path20"
           style="fill:#222222;fill-opacity:1;fill-rule:nonzero;stroke:none"
           d="m 8559.98,10787.9 c -456.6,1362.8 -1691.76,2721.8 -1212.84,4119.5 477.19,1392.6 2542.09,1320.3 2763.26,-88.4 954,1059.9 2723.9,-6.1 2364,-1433.5 -361.2,-1432.7 -2137.8,-1897.7 -3263.97,-2790.7 1362.77,456.6 2721.77,1691.8 4119.47,1212.8 1392.7,-477.1 1320.4,-2542.03 -88.4,-2763.17 1059.9,-954 -12.3,-2747.78 -1433.4,-2363.99 -1237.4,334.13 -1469.9,1540.83 -2370.89,2714.61 1507.49,-2535.83 2625.09,-5177.5 2802.79,-7729.88 -360.9,28.58 -634.3,4.52 -735.8,5.82 242.2,2219.31 -833.1,4964.99 -2263.81,7648.77 C 9829.82,7685.85 10627,7047.25 10230.2,5824.85 9775.68,4424.73 7688.15,4504.54 7466.95,5913.28 6513.01,4853.36 4743.1,5919.3 5102.96,7346.71 5464.16,8779.45 7240.79,9244.48 8366.94,10137.5 7004.15,9680.86 5645.14,8445.63 4247.4,8924.62 c -1392.59,477.19 -1320.32,2542.08 88.41,2763.18 -1059.92,954 6.06,2723.9 1433.47,2364 C 7201.97,13690.6 7667,11914 8559.98,10787.9 v 0" /></g></g></g></svg>