<svg t="1733715241378" class="icon" viewBox="0 0 1024 1024" version="1.1" xmlns="http://www.w3.org/2000/svg"
    p-id="31420" width="200" height="200">
    <path
        d="M940.704 16.128c-3.616-0.224-252.928 2.592-252.928 2.592-44.416 0.544-80 43.936-79.392 88.416 0.544 44.064 36.512 86.336 80.48 86.336 0.288 0 0.672 0 1.056 0l46.464-7.552-84.704 81.344c-68.896-48.032-150.528-75.872-236.256-75.872-110.816 0-214.976 42.304-293.344 120.672-161.76 161.76-161.76 424.544 0 586.304 78.368 78.336 182.528 121.28 293.344 121.28 110.816 0 214.944-43.328 293.312-121.632 140.672-140.64 162.944-357.92 59.104-518.624l94.752-90.56 0 56.192c0 44.512 35.872 80.544 80.32 80.544 44.416 0 80.352-36.032 80.352-80.544L1023.264 95.904C1023.232 74.432 1019.776 20.992 940.704 16.128zM594.88 784.064c-47.872 47.936-111.616 74.4-179.456 74.4-67.84 0-131.584-26.464-179.488-74.4-99.04-98.944-99.04-260.064 0-359.072 47.904-47.936 111.648-74.4 179.488-74.4 67.84 0 131.584 26.464 179.456 74.4C693.92 524 693.92 685.12 594.88 784.064z"
        p-id="31421" fill="#2986cc"></path>
</svg>