<?xml version="1.0" standalone="no"?><!DOCTYPE svg PUBLIC "-//W3C//DTD SVG 1.1//EN" "http://www.w3.org/Graphics/SVG/1.1/DTD/svg11.dtd"><svg t="1733665808975" class="icon" viewBox="0 0 1024 1024" version="1.1" xmlns="http://www.w3.org/2000/svg" p-id="2416" xmlns:xlink="http://www.w3.org/1999/xlink" width="200" height="200"><path d="M512.776 587.284s-7.744 193.284-68 304" fill="#00DA38" p-id="2417"></path><path d="M792.776 159.284s112 46.856 112 112c0 65.14-118.22 195.428-392 192 0 0-31.344-91.256 0-212 32.692-125.928 97.632-199.864 160-208 50.08-6.532 66.688 32.392 120 116z" fill="#0CE000" p-id="2418"></path><path d="M511.536 459.276c-5.508-18.824-26.26-102.06 1.24-207.992 32.692-125.928 97.632-199.864 160-208 50.08-6.532 66.688 32.392 120 116l0.04 0.016-281.28 299.976z" fill="#44EA00" p-id="2419"></path><path d="M791.396 720.032s-46.98 111.948-112.124 111.876c-65.14-0.068-195.3-118.428-191.576-392.204 0 0 91.288-31.248 212 0.228 125.892 32.824 199.76 97.844 207.828 160.224 6.476 50.084-32.464 66.652-116.128 119.876z" fill="#0CE000" p-id="2420"></path><path d="M491.704 438.468c18.832-5.488 102.088-26.152 207.992 1.464 125.892 32.824 199.76 97.844 207.828 160.224 6.476 50.084-32.464 66.652-116.128 119.876l-0.016 0.036-299.676-281.6z" fill="#44EA00" p-id="2421"></path><path d="M230.648 718.044s-111.9-47.1-111.76-112.24c0.14-65.144 118.644-195.176 392.416-191.156 0 0 31.148 91.32-0.46 212-32.96 125.856-98.056 199.652-160.444 207.656-50.092 6.424-66.62-32.536-119.752-116.26z" fill="#0CE000" p-id="2422"></path><path d="M230.612 718.028l281.924-299.372c5.464 18.84 26.04 102.116-1.692 207.992-32.96 125.856-98.056 199.652-160.444 207.656-50.092 6.424-66.62-32.536-119.752-116.26l-0.036-0.016z" fill="#44EA00" p-id="2423"></path><path d="M233.24 157.3S280.46 45.452 345.6 45.664c65.14 0.208 195.048 118.852 190.732 392.616 0 0-91.352 31.052-212-0.684-125.82-33.096-199.548-98.272-207.48-160.672-6.372-50.096 32.604-66.58 116.388-119.624z" fill="#0CE000" p-id="2424"></path><path d="M532.324 439.508c-18.844 5.448-102.144 25.932-207.992-1.912-125.82-33.096-199.548-98.272-207.48-160.672-6.372-50.096 32.604-66.58 116.388-119.624l0.016-0.036 299.068 282.244z" fill="#44EA00" p-id="2425"></path><path d="M640.944 315.064l-83.996 118.844 80.044 121.54-118.844-83.992-121.536 80.044 83.992-118.844-80.044-121.54 118.844 83.992 121.54-80.044z" fill="#92FA14" p-id="2426"></path></svg>