<?xml version="1.0" standalone="no"?><!DOCTYPE svg PUBLIC "-//W3C//DTD SVG 1.1//EN" "http://www.w3.org/Graphics/SVG/1.1/DTD/svg11.dtd"><svg t="1733665851929" class="icon" viewBox="0 0 1024 1024" version="1.1" xmlns="http://www.w3.org/2000/svg" p-id="3876" xmlns:xlink="http://www.w3.org/1999/xlink" width="200" height="200"><path d="M414.592 404.992a20.032 20.032 0 0 0 0.896 28.416c92.16 86.528 129.28 192.96 161.984 286.848 35.776 102.528 66.688 190.912 156.864 227.072 60.48 24.192 121.792 15.808 168.256-23.04 42.048-35.328 63.808-90.496 54.08-137.472-8.256-39.68-36.736-68.544-80.32-81.472a20.032 20.032 0 0 0-24.96 13.632 19.968 19.968 0 0 0 13.504 24.96c29.12 8.64 47.104 26.304 52.288 51.136 6.784 32.896-9.408 72.448-40.448 98.496-20.352 17.024-64.128 41.856-127.488 16.448-73.216-29.184-99.968-105.856-133.76-202.816-34.176-98.496-73.024-209.856-172.48-303.104a19.968 19.968 0 0 0-28.416 0.896z" fill="#040000" p-id="3877"></path><path d="M724.224 389.12c-2.24-23.808 57.472-63.232 35.136-114.624-11.776-27.008-50.752-62.784-78.976-58.496-55.552 8.64-117.632 86.656-141.248 118.08-27.584 36.544-51.136 60.992-96 67.456-0.448 0-0.768 0.128-1.152 0.256l0.192-1.152c5.824-45.056 29.952-68.928 66.112-96.96 31.04-24.064 108.096-87.36 115.968-142.912 3.968-28.352-32.448-66.88-59.648-78.272-51.584-21.632-90.176 38.72-114.048 36.736-23.872-1.856-52.288-67.52-106.688-54.4-28.672 6.848-70.72 39.04-71.36 67.712-1.152 56.128 64.96 130.816 91.648 159.552 31.232 33.408 51.136 60.928 49.792 106.24v1.152l-1.024-0.384c-43.264-13.568-62.592-41.472-83.968-81.856-18.304-34.816-67.136-121.792-120.64-139.136-27.2-8.832-71.424 20.352-87.36 45.12-30.272 47.168 22.4 95.488 16.384 118.72-5.952 23.168-75.648 39.808-72.128 95.616 1.792 29.44 26.176 76.48 54.272 82.048 55.168 10.88 140.16-41.216 173.12-62.592 38.336-24.896 68.864-39.808 113.28-30.592l1.088 0.192c-0.256 0.32-0.32 0.576-0.576 1.024-20.928 40.192-51.712 54.464-95.296 68.416-37.376 12.096-131.52 44.992-157.824 94.656-13.376 25.28 7.616 73.856 29.248 93.952 41.152 37.888 97.984-5.632 119.808 4.352 21.696 9.92 25.984 81.408 81.536 87.744 29.312 3.392 79.872-12.48 90.304-39.232 20.288-52.352-16.256-145.216-31.68-181.312-17.856-42.048-27.264-74.752-10.432-116.864a19.904 19.904 0 0 1 13.696-9.728c45.312-1.984 73.088 17.6 106.88 48.32 29.12 26.368 104.832 91.392 160.96 89.344 28.608-1.088 60.16-43.52 66.688-72.256 12.352-54.592-53.696-82.176-56.064-105.92z" fill="#12AA36" p-id="3878"></path></svg>