<?xml version="1.0" standalone="no"?><!DOCTYPE svg PUBLIC "-//W3C//DTD SVG 1.1//EN" "http://www.w3.org/Graphics/SVG/1.1/DTD/svg11.dtd"><svg t="1733665860303" class="icon" viewBox="0 0 1024 1024" version="1.1" xmlns="http://www.w3.org/2000/svg" p-id="4859" xmlns:xlink="http://www.w3.org/1999/xlink" width="200" height="200"><path d="M491.859587 550.384195c5.96084-12.824837 21.314518-18.243782 33.958723-12.824837 32.694302 14.089257 94.650908 50.938084 167.264773 143.060152 107.114482 136.376786 73.878285 278.714412-14.089257 323.149761-81.103546 41.183983-158.052567-9.392838-178.82519-52.202504-1.625684-3.793262-7.22526-4.335156-9.754101-0.361263-13.1861 22.037044-49.673664 72.613865-106.572588 72.613864-72.613865 0-137.279944-44.615982-137.279943-127.34521s59.427765-134.209208 125.358264-187.676134c56.718292-45.338508 97.902276-112.89469 119.939319-158.413829zM531.77915 473.615805c-5.96084 12.824837-21.314518 18.243782-33.958723 12.824837-32.694302-14.089257-94.650908-50.938084-167.264773-143.060152-107.114482-136.376786-73.878285-278.714412 14.089257-323.149761 81.103546-41.183983 158.052567 9.392838 178.82519 52.202504 1.625684 3.793262 7.22526 4.335156 9.754101 0.361263C546.22967 50.576821 582.717234 0 639.616158 0c72.613865 0 137.279944 44.615982 137.279944 127.345211s-59.427765 134.209208-125.358265 187.676133c-55.995766 45.519139-97.721644 112.714059-119.758687 158.594461zM550.384195 531.77915c-12.824837-5.96084-18.243782-21.314518-12.824837-33.958723 14.089257-32.694302 50.938084-94.650908 143.060152-167.264773 136.376786-107.114482 278.714412-73.878285 323.149761 14.089257 41.183983 81.103546-9.392838 158.052567-52.202504 178.82519-3.793262 1.625684-4.335156 7.22526-0.361263 9.754101 22.037044 13.1861 72.613865 49.673664 72.613864 106.572588 0 72.613865-44.615982 137.279944-127.34521 137.279943s-134.209208-59.427765-187.676134-125.358264c-45.338508-56.176398-112.533427-97.902276-158.413829-119.939319zM473.615805 491.859587c12.824837 5.96084 18.243782 21.314518 12.824837 33.958723-14.089257 32.694302-50.938084 94.650908-143.060152 167.264773-136.557418 107.114482-278.895043 74.058917-323.330393-13.908625-41.183983-81.103546 9.392838-158.052567 52.202505-178.82519 3.793262-1.625684 4.335156-7.22526 0.361263-9.754101C50.576821 477.409067 0 440.921503 0 384.022579c0-72.613865 44.615982-137.279944 127.345211-137.279944s134.209208 59.427765 187.676133 125.358265c45.519139 56.537661 112.714059 97.721644 158.594461 119.758687z" fill="#9BCB6E" p-id="4860"></path></svg>