<svg t="1734076024305" class="icon" viewBox="0 0 1030 1024" version="1.1" xmlns="http://www.w3.org/2000/svg" p-id="59984" width="200" height="200"><path d="M942.784975 436.778166c-0.57078-60.679261-48.733943-126.224525-108.637107-128.90596v-0.176572c-0.513291-54.967354-37.942503-100.917204-88.520189-114.611819a104.645753 104.645753 0 0 0 5.005618-32.994374c-0.542036-57.829467-47.855188-104.26797-105.680548-103.725934-37.076067 0.349038-69.446279 19.940346-87.772836 49.185639a147.166816 147.166816 0 0 0-86.553256-27.019662c-48.475244 0.455803-91.279644 24.194505-117.900991 60.486264a147.938806 147.938806 0 0 0-41.74086-5.609249c-81.637977 0.767884-147.199666 67.569685-146.435889 149.207662a147.224304 147.224304 0 0 0 14.712986 62.954169c-39.16619 14.055973-67.023543 51.66997-66.61291 95.632355" fill="#FFF1BD" p-id="59985"></path><path d="M957.43226 481.73839c0-67.894086-52.101134-146.370187-126.848688-150.41903a20.531658 20.531658 0 0 1 19.422948 20.322234c0-62.670832-42.118643-118.266454-102.420121-135.205072a20.523445 20.523445 0 0 1 13.932783 26.22714A125.050114 125.050114 0 0 0 767.883996 203.263411c0-69.060284-56.191041-125.243112-125.243112-125.243112-42.911164 0-82.368904 21.619836-105.524507 57.825361a20.53987 20.53987 0 0 1 29.290463-5.59693C537.621456 109.515862 503.629243 98.551957 468.121794 98.551957c-53.599945 0-102.769159 24.646202-134.909416 67.618961a20.531658 20.531658 0 0 1 22.223467-7.407822A168.569016 168.569016 0 0 0 307.974865 151.934267c-92.831837 0-168.359593 75.527756-168.359593 168.359592 0 25.089686 5.412145 49.267766 16.09682 71.860802a20.531658 20.531658 0 0 1 11.805703-28.157115C118.898829 380.936163 86.232962 426.906545 86.232962 478.387623c0 11.341688 9.18997 20.531658 20.531658 20.531658s20.531658-9.18997 20.531657-20.531658a80.139166 80.139166 0 0 1 53.731349-75.613989 20.53987 20.53987 0 0 0 11.809809-28.165328A126.101335 126.101335 0 0 1 180.678587 320.293859c0-70.193631 57.102646-127.296277 127.296278-127.296277 12.13421 0 24.210931 1.741085 35.901656 5.169871a20.527551 20.527551 0 0 0 22.21936-7.407822C390.40947 158.258017 427.596409 139.615272 468.121794 139.615272a126.380566 126.380566 0 0 1 74.29175 23.956338 20.511126 20.511126 0 0 0 29.286357-5.59693C587.287535 133.624134 613.810331 119.083614 642.640884 119.083614c46.422078 0 84.179796 37.761825 84.179797 84.179797a84.34405 84.34405 0 0 1-4.274691 26.489944 20.548083 20.548083 0 0 0 13.936889 26.223034C779.147664 267.958664 808.947311 307.301426 808.947311 351.645701a15.255022 15.255022 0 0 1-0.004106 0.176572 20.531658 20.531658 0 0 0 19.418842 20.502913c49.555209 2.681434 88.006897 61.020087 88.006897 109.41731a20.531658 20.531658 0 1 0 41.063316-0.004106z" fill="#FFFFFF" opacity=".65" p-id="59986"></path><path d="M961.538591 440.679181c0-67.898192-52.101134-146.370187-126.848687-150.41903a20.531658 20.531658 0 0 1 19.422948 20.326341c0-62.670832-42.118643-118.266454-102.420121-135.205072a20.531658 20.531658 0 0 1 13.932783 26.223033A125.078858 125.078858 0 0 0 771.990328 162.200095C771.990328 93.139812 715.799287 36.956984 646.747216 36.956984c-42.911164 0-82.368904 21.619836-105.524508 57.829467a20.523445 20.523445 0 0 1 29.290463-5.59693C541.727787 68.44844 507.735575 57.488641 472.228126 57.488641c-53.595839 0-102.769159 24.646202-134.90531 67.614855a20.531658 20.531658 0 0 1 22.223466-7.403715A168.59776 168.59776 0 0 0 312.081196 110.870951c-92.831837 0-168.359593 75.527756-168.359592 168.359593 0 25.089686 5.416251 49.271872 16.092713 71.860802a20.53987 20.53987 0 0 1 11.805703-28.165328C123.005161 339.868742 90.339294 385.839123 90.339294 437.324308a20.531658 20.531658 0 0 0 41.063315 0 80.143272 80.143272 0 0 1 53.731348-75.618095 20.53987 20.53987 0 0 0 11.805703-28.165328A126.125973 126.125973 0 0 1 184.784919 279.230544c0-70.189525 57.106753-127.296277 127.296277-127.296277 12.138316 0 24.215037 1.736978 35.901657 5.169871a20.531658 20.531658 0 0 0 22.223466-7.403716C394.515802 117.194702 431.70274 98.551957 472.228126 98.551957a126.380566 126.380566 0 0 1 74.29175 23.956338 20.527551 20.527551 0 0 0 29.286356-5.59693C591.393867 92.560819 617.916662 78.020299 646.747216 78.020299c46.422078 0 84.179796 37.761825 84.179796 84.179796a84.34405 84.34405 0 0 1-4.274691 26.489945 20.527551 20.527551 0 0 0 13.936889 26.223033C783.253995 226.895349 813.053643 266.234005 813.053643 310.582385a15.616379 15.616379 0 0 1-0.004106 0.176573 20.531658 20.531658 0 0 0 19.418841 20.502913c49.555209 2.685541 88.006897 61.024193 88.006898 109.41731a20.531658 20.531658 0 1 0 41.063315 0z" fill="#6E6E96" p-id="59987"></path><path d="M326.749013 859.89046C168.355486 790.731625 41.063315 626.470151 41.063315 457.326249h948.562584c0 176.896656-134.313998 343.539802-304.541972 408.362352" fill="#F0F0FF" p-id="59988"></path><path d="M705.47597 457.326249c0 173.981161-99.927578 337.979829-227.749466 405.011585l207.361529 3.350767C855.311901 800.866051 989.625899 634.222905 989.625899 457.326249h-284.149929z" fill="#CCCCE8" opacity=".47" p-id="59989"></path><path d="M698.07636 921.341712c0 33.877235-27.717738 61.594973-61.594973 61.594973H370.251489c-33.877235 0-61.594973-27.717738-61.594973-61.594973V903.392937c0-33.877235 27.717738-61.594973 61.594973-61.594973H636.481387c33.877235 0 61.594973 27.717738 61.594973 61.594973v17.948775z" fill="#F0F0FF" p-id="59990"></path><path d="M636.481387 841.797964h-110.870951c33.877235 0 61.594973 27.717738 61.594973 61.594973v17.948775c0 33.877235-27.717738 61.594973-61.594973 61.594973h110.870951c33.877235 0 61.594973-27.717738 61.594973-61.594973V903.392937c0-33.877235-27.717738-61.594973-61.594973-61.594973z" fill="#CCCCE8" opacity=".47" p-id="59991"></path><path d="M44.997181 453.708571c-3.264534 169.115158 120.837018 335.795261 277.863136 408.000994l93.016621 3.305597c-108.132028-104.612902-149.979653-216.678796-165.702796-296.760473C225.848234 477.857906 506.277827 494.287339 505.078778 477.857906c-2.393991-32.747994-263.014641-20.346873-263.014641-20.346872l-197.066956-3.802463z" fill="#FFFFFF" p-id="59992"></path><path d="M334.961676 841.075249C176.564043 771.908201 61.594973 610.525266 61.594973 457.326249a20.531658 20.531658 0 0 1-20.531658 20.531657h948.562584a20.531658 20.531658 0 0 1-20.531658-20.531657c0 161.222789-122.516508 324.897057-291.315478 389.177571a20.535764 20.535764 0 0 0 14.610328 38.377774c87.477181-33.310561 167.419243-93.291746 225.117307-168.889309C978.119958 636.575833 1010.157556 547.131719 1010.157556 457.326249a20.531658 20.531658 0 0 0-20.531657-20.531658H41.063315a20.531658 20.531658 0 0 0-20.531657 20.531658c0 85.653969 30.214387 172.400223 87.382735 250.868112 54.125556 74.287644 128.922385 134.843715 210.621956 170.51131a20.535764 20.535764 0 0 0 27.031981-10.598441 20.535764 20.535764 0 0 0-10.606654-27.031981z" fill="#6E6E96" p-id="59993"></path><path d="M370.251489 841.797964h110.870951c-33.877235 0-61.594973 27.717738-61.594973 61.594973v17.948775c0 33.877235 27.717738 61.594973 61.594973 61.594973h-110.870951c-33.877235 0-61.594973-27.717738-61.594973-61.594973V903.392937c0-33.877235 27.717738-61.594973 61.594973-61.594973z" fill="#FFFFFF" p-id="59994"></path><path d="M677.544702 921.341712c0 22.642312-18.421003 41.063315-41.063315 41.063315H370.251489c-22.642312 0-41.063315-18.421003-41.063316-41.063315V903.392937c0-22.642312 18.421003-41.063315 41.063316-41.063316H636.481387c22.642312 0 41.063315 18.421003 41.063315 41.063316v17.948775zM718.608018 903.392937c0-45.280518-36.846113-82.126631-82.126631-82.126631H370.251489c-45.284624 0-82.126631 36.846113-82.126631 82.126631v17.948775c0 45.280518 36.842006 82.126631 82.126631 82.12663H636.481387c45.280518 0 82.126631-36.846113 82.126631-82.12663V903.392937z" fill="#6E6E96" p-id="59995"></path></svg>